<?xml version="1.0" encoding="UTF-8"?>
<!-- ドチキンさん (love / heart eyes) — kofun-friends mascot variant -->
<svg xmlns="http://www.w3.org/2000/svg" viewBox="0 0 256 256" width="256" height="256" role="img" aria-label="dochicken-san in love">
  <rect width="256" height="256" fill="#fff8e1"/>
  <ellipse cx="128" cy="160" rx="70" ry="62" fill="#fff3c4" stroke="#e0a800" stroke-width="4"/>
  <path d="M70 150 q-26 18 6 44 q14 -10 16 -36 Z" fill="#ffe082" stroke="#e0a800" stroke-width="3"/>
  <circle cx="128" cy="92" r="44" fill="#fff3c4" stroke="#e0a800" stroke-width="4"/>
  <path d="M108 54 q8 -18 20 -6 q8 -16 20 -2 q6 -12 14 4 q-2 12 -10 12 l-44 0 Z" fill="#ef5350" stroke="#c62828" stroke-width="2"/>
  <!-- heart eyes -->
  <path d="M114 86 c-4 -6 -14 -2 -10 5 c2 5 10 9 10 9 c0 0 8 -4 10 -9 c4 -7 -6 -11 -10 -5 Z" fill="#e53935"/>
  <path d="M142 86 c-4 -6 -14 -2 -10 5 c2 5 10 9 10 9 c0 0 8 -4 10 -9 c4 -7 -6 -11 -10 -5 Z" fill="#e53935"/>
  <path d="M120 106 L136 106 L128 120 Z" fill="#fb8c00" stroke="#e65100" stroke-width="2"/>
  <g stroke="#fb8c00" stroke-width="5" stroke-linecap="round">
    <path d="M112 220 l0 14 M112 234 l-8 6 M112 234 l8 6"/>
    <path d="M144 220 l0 14 M144 234 l-8 6 M144 234 l8 6"/>
  </g>
  <!-- floating heart -->
  <path d="M188 70 c-5 -7 -17 -3 -12 6 c3 6 12 11 12 11 c0 0 9 -5 12 -11 c5 -9 -7 -13 -12 -6 Z" fill="#ec407a" opacity="0.9"/>
</svg>
