<?xml version="1.0" encoding="UTF-8"?>
<!-- ドチキンさん — kofun-friends mascot sample asset -->
<svg xmlns="http://www.w3.org/2000/svg" viewBox="0 0 256 256" width="256" height="256" role="img" aria-label="dochicken-san">
  <rect width="256" height="256" fill="#fff8e1"/>
  <!-- body -->
  <ellipse cx="128" cy="160" rx="70" ry="62" fill="#fff3c4" stroke="#e0a800" stroke-width="4"/>
  <!-- wing -->
  <path d="M70 150 q-26 18 6 44 q14 -10 16 -36 Z" fill="#ffe082" stroke="#e0a800" stroke-width="3"/>
  <!-- head -->
  <circle cx="128" cy="92" r="44" fill="#fff3c4" stroke="#e0a800" stroke-width="4"/>
  <!-- comb -->
  <path d="M108 54 q8 -18 20 -6 q8 -16 20 -2 q6 -12 14 4 q-2 12 -10 12 l-44 0 Z" fill="#ef5350" stroke="#c62828" stroke-width="2"/>
  <!-- eyes -->
  <circle cx="114" cy="90" r="6" fill="#3e2723"/>
  <circle cx="142" cy="90" r="6" fill="#3e2723"/>
  <!-- beak -->
  <path d="M120 104 L136 104 L128 118 Z" fill="#fb8c00" stroke="#e65100" stroke-width="2"/>
  <!-- feet -->
  <g stroke="#fb8c00" stroke-width="5" stroke-linecap="round">
    <path d="M112 220 l0 14 M112 234 l-8 6 M112 234 l8 6"/>
    <path d="M144 220 l0 14 M144 234 l-8 6 M144 234 l8 6"/>
  </g>
</svg>
