<?xml version="1.0" encoding="UTF-8"?>
<!-- Arcade Market — kofun-friends cyberpunk background study -->
<svg xmlns="http://www.w3.org/2000/svg" viewBox="0 0 320 180" width="320" height="180" role="img" aria-label="Arcade Market">
  <g shape-rendering="crispEdges">
    <rect x="0" y="0" width="320" height="180" fill="#0a0a14"/>
    <rect x="0" y="0" width="320" height="84" fill="#12101e" opacity="0.72"/>
    <rect x="0" y="80" width="320" height="52" fill="#0d2240" opacity="0.48"/>
    <rect x="0" y="132" width="320" height="48" fill="#0a0a14"/>
    <rect x="124" y="84" width="1" height="1" fill="#ff0090" opacity="0.75"/>
    <rect x="171" y="29" width="1" height="1" fill="#00ffff" opacity="0.45"/>
    <rect x="218" y="52" width="1" height="1" fill="#00ffff" opacity="0.45"/>
    <rect x="265" y="75" width="1" height="1" fill="#00ffff" opacity="0.75"/>
    <rect x="312" y="20" width="1" height="1" fill="#00ffff" opacity="0.45"/>
    <rect x="39" y="43" width="1" height="1" fill="#ff0090" opacity="0.45"/>
    <rect x="86" y="66" width="1" height="1" fill="#00ffff" opacity="0.75"/>
    <rect x="133" y="11" width="1" height="1" fill="#00ffff" opacity="0.45"/>
    <rect x="180" y="34" width="1" height="1" fill="#00ffff" opacity="0.45"/>
    <rect x="227" y="57" width="1" height="1" fill="#00ffff" opacity="0.75"/>
    <rect x="274" y="80" width="1" height="1" fill="#ff0090" opacity="0.45"/>
    <rect x="1" y="25" width="1" height="1" fill="#00ffff" opacity="0.45"/>
    <rect x="48" y="48" width="1" height="1" fill="#00ffff" opacity="0.75"/>
    <rect x="95" y="71" width="1" height="1" fill="#00ffff" opacity="0.45"/>
    <rect x="142" y="16" width="1" height="1" fill="#00ffff" opacity="0.45"/>
    <rect x="189" y="39" width="1" height="1" fill="#ff0090" opacity="0.75"/>
    <rect x="236" y="62" width="1" height="1" fill="#00ffff" opacity="0.45"/>
    <rect x="283" y="85" width="1" height="1" fill="#00ffff" opacity="0.45"/>
    <rect x="10" y="30" width="1" height="1" fill="#00ffff" opacity="0.75"/>
    <rect x="57" y="53" width="1" height="1" fill="#00ffff" opacity="0.45"/>
    <rect x="104" y="76" width="1" height="1" fill="#ff0090" opacity="0.45"/>
    <rect x="151" y="21" width="1" height="1" fill="#00ffff" opacity="0.75"/>
    <rect x="198" y="44" width="1" height="1" fill="#00ffff" opacity="0.45"/>
    <rect x="245" y="67" width="1" height="1" fill="#00ffff" opacity="0.45"/>
    <rect x="292" y="12" width="1" height="1" fill="#00ffff" opacity="0.75"/>
    <rect x="19" y="35" width="1" height="1" fill="#ff0090" opacity="0.45"/>
    <rect x="66" y="58" width="1" height="1" fill="#00ffff" opacity="0.45"/>
    <rect x="113" y="81" width="1" height="1" fill="#00ffff" opacity="0.75"/>
    <rect x="160" y="26" width="1" height="1" fill="#00ffff" opacity="0.45"/>
    <rect x="207" y="49" width="1" height="1" fill="#00ffff" opacity="0.45"/>
    <rect x="254" y="72" width="1" height="1" fill="#ff0090" opacity="0.75"/>
    <rect x="301" y="17" width="1" height="1" fill="#00ffff" opacity="0.45"/>
    <rect x="28" y="40" width="1" height="1" fill="#00ffff" opacity="0.45"/>
    <rect x="75" y="63" width="1" height="1" fill="#00ffff" opacity="0.75"/>
    <rect x="0" y="0" width="320" height="1" fill="#000000" opacity="0.16"/>
    <rect x="0" y="4" width="320" height="1" fill="#000000" opacity="0.16"/>
    <rect x="0" y="8" width="320" height="1" fill="#000000" opacity="0.16"/>
    <rect x="0" y="12" width="320" height="1" fill="#000000" opacity="0.16"/>
    <rect x="0" y="16" width="320" height="1" fill="#000000" opacity="0.16"/>
    <rect x="0" y="20" width="320" height="1" fill="#000000" opacity="0.16"/>
    <rect x="0" y="24" width="320" height="1" fill="#000000" opacity="0.16"/>
    <rect x="0" y="28" width="320" height="1" fill="#000000" opacity="0.16"/>
    <rect x="0" y="32" width="320" height="1" fill="#000000" opacity="0.16"/>
    <rect x="0" y="36" width="320" height="1" fill="#000000" opacity="0.16"/>
    <rect x="0" y="40" width="320" height="1" fill="#000000" opacity="0.16"/>
    <rect x="0" y="44" width="320" height="1" fill="#000000" opacity="0.16"/>
    <rect x="0" y="48" width="320" height="1" fill="#000000" opacity="0.16"/>
    <rect x="0" y="52" width="320" height="1" fill="#000000" opacity="0.16"/>
    <rect x="0" y="56" width="320" height="1" fill="#000000" opacity="0.16"/>
    <rect x="0" y="60" width="320" height="1" fill="#000000" opacity="0.16"/>
    <rect x="0" y="64" width="320" height="1" fill="#000000" opacity="0.16"/>
    <rect x="0" y="68" width="320" height="1" fill="#000000" opacity="0.16"/>
    <rect x="0" y="72" width="320" height="1" fill="#000000" opacity="0.16"/>
    <rect x="0" y="76" width="320" height="1" fill="#000000" opacity="0.16"/>
    <rect x="0" y="80" width="320" height="1" fill="#000000" opacity="0.16"/>
    <rect x="0" y="84" width="320" height="1" fill="#000000" opacity="0.16"/>
    <rect x="0" y="88" width="320" height="1" fill="#000000" opacity="0.16"/>
    <rect x="0" y="92" width="320" height="1" fill="#000000" opacity="0.16"/>
    <rect x="0" y="96" width="320" height="1" fill="#000000" opacity="0.16"/>
    <rect x="0" y="100" width="320" height="1" fill="#000000" opacity="0.16"/>
    <rect x="0" y="104" width="320" height="1" fill="#000000" opacity="0.16"/>
    <rect x="0" y="108" width="320" height="1" fill="#000000" opacity="0.16"/>
    <rect x="0" y="112" width="320" height="1" fill="#000000" opacity="0.16"/>
    <rect x="0" y="116" width="320" height="1" fill="#000000" opacity="0.16"/>
    <rect x="0" y="120" width="320" height="1" fill="#000000" opacity="0.16"/>
    <rect x="0" y="124" width="320" height="1" fill="#000000" opacity="0.16"/>
    <rect x="0" y="128" width="320" height="1" fill="#000000" opacity="0.16"/>
    <rect x="0" y="132" width="320" height="1" fill="#000000" opacity="0.16"/>
    <rect x="0" y="136" width="320" height="1" fill="#000000" opacity="0.16"/>
    <rect x="0" y="140" width="320" height="1" fill="#000000" opacity="0.16"/>
    <rect x="0" y="144" width="320" height="1" fill="#000000" opacity="0.16"/>
    <rect x="0" y="148" width="320" height="1" fill="#000000" opacity="0.16"/>
    <rect x="0" y="152" width="320" height="1" fill="#000000" opacity="0.16"/>
    <rect x="0" y="156" width="320" height="1" fill="#000000" opacity="0.16"/>
    <rect x="0" y="160" width="320" height="1" fill="#000000" opacity="0.16"/>
    <rect x="0" y="164" width="320" height="1" fill="#000000" opacity="0.16"/>
    <rect x="0" y="168" width="320" height="1" fill="#000000" opacity="0.16"/>
    <rect x="0" y="172" width="320" height="1" fill="#000000" opacity="0.16"/>
    <rect x="0" y="176" width="320" height="1" fill="#000000" opacity="0.16"/>
    <rect x="0" y="34" width="18" height="60" fill="#0d2240" opacity="0.95"/>
    <rect x="16" y="26" width="2" height="8" fill="#ff0090" opacity="0.55"/>
    <rect x="13" y="42" width="2" height="3" fill="#ff0090" opacity="0.8"/>
    <rect x="5" y="56" width="2" height="3" fill="#ff0090" opacity="0.35"/>
    <rect x="8" y="70" width="2" height="3" fill="#ff0090" opacity="0.35"/>
    <rect x="11" y="84" width="2" height="3" fill="#ff0090" opacity="0.8"/>
    <rect x="22" y="50" width="12" height="44" fill="#0d2240" opacity="0.95"/>
    <rect x="30" y="58" width="2" height="3" fill="#ff0090" opacity="0.35"/>
    <rect x="29" y="72" width="2" height="3" fill="#ff0090" opacity="0.35"/>
    <rect x="28" y="86" width="2" height="3" fill="#ff0090" opacity="0.8"/>
    <rect x="38" y="16" width="24" height="78" fill="#0d2240" opacity="0.95"/>
    <rect x="60" y="8" width="2" height="8" fill="#ff0090" opacity="0.55"/>
    <rect x="51" y="24" width="2" height="3" fill="#ff0090" opacity="0.35"/>
    <rect x="48" y="38" width="2" height="3" fill="#ff0090" opacity="0.35"/>
    <rect x="45" y="52" width="2" height="3" fill="#ff0090" opacity="0.8"/>
    <rect x="42" y="66" width="2" height="3" fill="#ff0090" opacity="0.35"/>
    <rect x="56" y="80" width="2" height="3" fill="#ff0090" opacity="0.35"/>
    <rect x="66" y="56" width="16" height="38" fill="#0d2240" opacity="0.95"/>
    <rect x="74" y="64" width="2" height="3" fill="#ff0090" opacity="0.35"/>
    <rect x="70" y="78" width="2" height="3" fill="#ff0090" opacity="0.8"/>
    <rect x="86" y="6" width="26" height="88" fill="#0d2240" opacity="0.95"/>
    <rect x="110" y="-2" width="2" height="8" fill="#ff0090" opacity="0.55"/>
    <rect x="108" y="14" width="2" height="3" fill="#ff0090" opacity="0.8"/>
    <rect x="103" y="28" width="2" height="3" fill="#ff0090" opacity="0.35"/>
    <rect x="98" y="42" width="2" height="3" fill="#ff0090" opacity="0.35"/>
    <rect x="93" y="56" width="2" height="3" fill="#ff0090" opacity="0.8"/>
    <rect x="107" y="70" width="2" height="3" fill="#ff0090" opacity="0.35"/>
    <rect x="102" y="84" width="2" height="3" fill="#ff0090" opacity="0.35"/>
    <rect x="116" y="42" width="14" height="52" fill="#0d2240" opacity="0.95"/>
    <rect x="126" y="50" width="2" height="3" fill="#ff0090" opacity="0.35"/>
    <rect x="126" y="64" width="2" height="3" fill="#ff0090" opacity="0.8"/>
    <rect x="126" y="78" width="2" height="3" fill="#ff0090" opacity="0.35"/>
    <rect x="134" y="24" width="21" height="70" fill="#0d2240" opacity="0.95"/>
    <rect x="153" y="16" width="2" height="8" fill="#ff0090" opacity="0.55"/>
    <rect x="148" y="32" width="2" height="3" fill="#ff0090" opacity="0.35"/>
    <rect x="148" y="46" width="2" height="3" fill="#ff0090" opacity="0.35"/>
    <rect x="148" y="60" width="2" height="3" fill="#ff0090" opacity="0.8"/>
    <rect x="148" y="74" width="2" height="3" fill="#ff0090" opacity="0.35"/>
    <rect x="148" y="88" width="2" height="3" fill="#ff0090" opacity="0.35"/>
    <rect x="24" y="72" width="34" height="46" fill="#0a0a14"/>
    <rect x="26" y="74" width="30" height="14" fill="#ff0090"/>
    <rect x="30" y="94" width="22" height="20" fill="#ff0090" opacity="0.3"/>
    <rect x="72" y="72" width="34" height="46" fill="#0a0a14"/>
    <rect x="74" y="74" width="30" height="14" fill="#00ffff"/>
    <rect x="78" y="94" width="22" height="20" fill="#00ffff" opacity="0.3"/>
    <rect x="122" y="72" width="34" height="46" fill="#0a0a14"/>
    <rect x="124" y="74" width="30" height="14" fill="#ffe040"/>
    <rect x="128" y="94" width="22" height="20" fill="#ffe040" opacity="0.3"/>
    <rect x="178" y="72" width="34" height="46" fill="#0a0a14"/>
    <rect x="180" y="74" width="30" height="14" fill="#7c4dff"/>
    <rect x="184" y="94" width="22" height="20" fill="#7c4dff" opacity="0.3"/>
    <rect x="238" y="72" width="34" height="46" fill="#0a0a14"/>
    <rect x="240" y="74" width="30" height="14" fill="#ccff00"/>
    <rect x="244" y="94" width="22" height="20" fill="#ccff00" opacity="0.3"/>
    <rect x="0" y="122" width="320" height="12" fill="#1c1830" opacity="0.76"/>
    <rect x="10" y="126" width="14" height="2" fill="#00ffff"/>
    <rect x="38" y="126" width="14" height="2" fill="#00ffff"/>
    <rect x="66" y="126" width="14" height="2" fill="#ff0090"/>
    <rect x="94" y="126" width="14" height="2" fill="#00ffff"/>
    <rect x="122" y="126" width="14" height="2" fill="#00ffff"/>
    <rect x="150" y="126" width="14" height="2" fill="#ff0090"/>
    <rect x="178" y="126" width="14" height="2" fill="#00ffff"/>
    <rect x="206" y="126" width="14" height="2" fill="#00ffff"/>
    <rect x="234" y="126" width="14" height="2" fill="#ff0090"/>
    <rect x="262" y="126" width="14" height="2" fill="#00ffff"/>
    <rect x="290" y="126" width="14" height="2" fill="#00ffff"/>
    <rect x="318" y="126" width="14" height="2" fill="#ff0090"/>
    <rect x="0" y="134" width="320" height="2" fill="#ff0090" opacity="0.8"/>
    <rect x="0" y="160" width="320" height="2" fill="#a0006a" opacity="0.55"/>
    <line x1="0" y1="148" x2="320" y2="148" stroke="#ff0090" stroke-width="1" opacity="0.34"/>
    <line x1="0" y1="156" x2="320" y2="156" stroke="#ff0090" stroke-width="1" opacity="0.34"/>
    <line x1="0" y1="165" x2="320" y2="165" stroke="#ff0090" stroke-width="1" opacity="0.34"/>
    <line x1="0" y1="174" x2="320" y2="174" stroke="#ff0090" stroke-width="1" opacity="0.34"/>
    <line x1="160" y1="134" x2="-160" y2="180" stroke="#ff0090" stroke-width="1" opacity="0.28"/>
    <line x1="160" y1="134" x2="-128" y2="180" stroke="#ff0090" stroke-width="1" opacity="0.28"/>
    <line x1="160" y1="134" x2="-96" y2="180" stroke="#ff0090" stroke-width="1" opacity="0.28"/>
    <line x1="160" y1="134" x2="-64" y2="180" stroke="#ff0090" stroke-width="1" opacity="0.28"/>
    <line x1="160" y1="134" x2="-32" y2="180" stroke="#ff0090" stroke-width="1" opacity="0.28"/>
    <line x1="160" y1="134" x2="0" y2="180" stroke="#ff0090" stroke-width="1" opacity="0.28"/>
    <line x1="160" y1="134" x2="32" y2="180" stroke="#ff0090" stroke-width="1" opacity="0.28"/>
    <line x1="160" y1="134" x2="64" y2="180" stroke="#ff0090" stroke-width="1" opacity="0.28"/>
    <line x1="160" y1="134" x2="96" y2="180" stroke="#ff0090" stroke-width="1" opacity="0.28"/>
    <line x1="160" y1="134" x2="128" y2="180" stroke="#ff0090" stroke-width="1" opacity="0.28"/>
    <line x1="160" y1="134" x2="160" y2="180" stroke="#ff0090" stroke-width="1" opacity="0.28"/>
    <line x1="160" y1="134" x2="192" y2="180" stroke="#ff0090" stroke-width="1" opacity="0.28"/>
    <line x1="160" y1="134" x2="224" y2="180" stroke="#ff0090" stroke-width="1" opacity="0.28"/>
    <line x1="160" y1="134" x2="256" y2="180" stroke="#ff0090" stroke-width="1" opacity="0.28"/>
    <line x1="160" y1="134" x2="288" y2="180" stroke="#ff0090" stroke-width="1" opacity="0.28"/>
    <line x1="160" y1="134" x2="320" y2="180" stroke="#ff0090" stroke-width="1" opacity="0.28"/>
    <line x1="160" y1="134" x2="352" y2="180" stroke="#ff0090" stroke-width="1" opacity="0.28"/>
    <line x1="160" y1="134" x2="384" y2="180" stroke="#ff0090" stroke-width="1" opacity="0.28"/>
    <line x1="160" y1="134" x2="416" y2="180" stroke="#ff0090" stroke-width="1" opacity="0.28"/>
    <line x1="160" y1="134" x2="448" y2="180" stroke="#ff0090" stroke-width="1" opacity="0.28"/>
    <line x1="160" y1="134" x2="480" y2="180" stroke="#ff0090" stroke-width="1" opacity="0.28"/>
  </g>
</svg>
