<?xml version="1.0" encoding="UTF-8"?>
<!-- Cactus Greenhouse — kofun-friends cyberpunk background study -->
<svg xmlns="http://www.w3.org/2000/svg" viewBox="0 0 320 180" width="320" height="180" role="img" aria-label="Cactus Greenhouse">
  <g shape-rendering="crispEdges">
    <rect x="0" y="0" width="320" height="180" fill="#0a0a14"/>
    <rect x="0" y="0" width="320" height="84" fill="#12101e" opacity="0.72"/>
    <rect x="0" y="80" width="320" height="52" fill="#0d2240" opacity="0.48"/>
    <rect x="0" y="132" width="320" height="48" fill="#0a0a14"/>
    <rect x="83" y="21" width="1" height="1" fill="#ff0090" opacity="0.75"/>
    <rect x="130" y="44" width="1" height="1" fill="#00ffff" opacity="0.45"/>
    <rect x="177" y="67" width="1" height="1" fill="#00ffff" opacity="0.45"/>
    <rect x="224" y="12" width="1" height="1" fill="#00ffff" opacity="0.75"/>
    <rect x="271" y="35" width="1" height="1" fill="#00ffff" opacity="0.45"/>
    <rect x="318" y="58" width="1" height="1" fill="#ff0090" opacity="0.45"/>
    <rect x="45" y="81" width="1" height="1" fill="#00ffff" opacity="0.75"/>
    <rect x="92" y="26" width="1" height="1" fill="#00ffff" opacity="0.45"/>
    <rect x="139" y="49" width="1" height="1" fill="#00ffff" opacity="0.45"/>
    <rect x="186" y="72" width="1" height="1" fill="#00ffff" opacity="0.75"/>
    <rect x="233" y="17" width="1" height="1" fill="#ff0090" opacity="0.45"/>
    <rect x="280" y="40" width="1" height="1" fill="#00ffff" opacity="0.45"/>
    <rect x="7" y="63" width="1" height="1" fill="#00ffff" opacity="0.75"/>
    <rect x="54" y="8" width="1" height="1" fill="#00ffff" opacity="0.45"/>
    <rect x="101" y="31" width="1" height="1" fill="#00ffff" opacity="0.45"/>
    <rect x="148" y="54" width="1" height="1" fill="#ff0090" opacity="0.75"/>
    <rect x="195" y="77" width="1" height="1" fill="#00ffff" opacity="0.45"/>
    <rect x="242" y="22" width="1" height="1" fill="#00ffff" opacity="0.45"/>
    <rect x="289" y="45" width="1" height="1" fill="#00ffff" opacity="0.75"/>
    <rect x="16" y="68" width="1" height="1" fill="#00ffff" opacity="0.45"/>
    <rect x="63" y="13" width="1" height="1" fill="#ff0090" opacity="0.45"/>
    <rect x="110" y="36" width="1" height="1" fill="#00ffff" opacity="0.75"/>
    <rect x="157" y="59" width="1" height="1" fill="#00ffff" opacity="0.45"/>
    <rect x="204" y="82" width="1" height="1" fill="#00ffff" opacity="0.45"/>
    <rect x="251" y="27" width="1" height="1" fill="#00ffff" opacity="0.75"/>
    <rect x="298" y="50" width="1" height="1" fill="#ff0090" opacity="0.45"/>
    <rect x="25" y="73" width="1" height="1" fill="#00ffff" opacity="0.45"/>
    <rect x="72" y="18" width="1" height="1" fill="#00ffff" opacity="0.75"/>
    <rect x="119" y="41" width="1" height="1" fill="#00ffff" opacity="0.45"/>
    <rect x="166" y="64" width="1" height="1" fill="#00ffff" opacity="0.45"/>
    <rect x="213" y="9" width="1" height="1" fill="#ff0090" opacity="0.75"/>
    <rect x="260" y="32" width="1" height="1" fill="#00ffff" opacity="0.45"/>
    <rect x="307" y="55" width="1" height="1" fill="#00ffff" opacity="0.45"/>
    <rect x="34" y="78" width="1" height="1" fill="#00ffff" opacity="0.75"/>
    <rect x="0" y="0" width="320" height="1" fill="#000000" opacity="0.16"/>
    <rect x="0" y="4" width="320" height="1" fill="#000000" opacity="0.16"/>
    <rect x="0" y="8" width="320" height="1" fill="#000000" opacity="0.16"/>
    <rect x="0" y="12" width="320" height="1" fill="#000000" opacity="0.16"/>
    <rect x="0" y="16" width="320" height="1" fill="#000000" opacity="0.16"/>
    <rect x="0" y="20" width="320" height="1" fill="#000000" opacity="0.16"/>
    <rect x="0" y="24" width="320" height="1" fill="#000000" opacity="0.16"/>
    <rect x="0" y="28" width="320" height="1" fill="#000000" opacity="0.16"/>
    <rect x="0" y="32" width="320" height="1" fill="#000000" opacity="0.16"/>
    <rect x="0" y="36" width="320" height="1" fill="#000000" opacity="0.16"/>
    <rect x="0" y="40" width="320" height="1" fill="#000000" opacity="0.16"/>
    <rect x="0" y="44" width="320" height="1" fill="#000000" opacity="0.16"/>
    <rect x="0" y="48" width="320" height="1" fill="#000000" opacity="0.16"/>
    <rect x="0" y="52" width="320" height="1" fill="#000000" opacity="0.16"/>
    <rect x="0" y="56" width="320" height="1" fill="#000000" opacity="0.16"/>
    <rect x="0" y="60" width="320" height="1" fill="#000000" opacity="0.16"/>
    <rect x="0" y="64" width="320" height="1" fill="#000000" opacity="0.16"/>
    <rect x="0" y="68" width="320" height="1" fill="#000000" opacity="0.16"/>
    <rect x="0" y="72" width="320" height="1" fill="#000000" opacity="0.16"/>
    <rect x="0" y="76" width="320" height="1" fill="#000000" opacity="0.16"/>
    <rect x="0" y="80" width="320" height="1" fill="#000000" opacity="0.16"/>
    <rect x="0" y="84" width="320" height="1" fill="#000000" opacity="0.16"/>
    <rect x="0" y="88" width="320" height="1" fill="#000000" opacity="0.16"/>
    <rect x="0" y="92" width="320" height="1" fill="#000000" opacity="0.16"/>
    <rect x="0" y="96" width="320" height="1" fill="#000000" opacity="0.16"/>
    <rect x="0" y="100" width="320" height="1" fill="#000000" opacity="0.16"/>
    <rect x="0" y="104" width="320" height="1" fill="#000000" opacity="0.16"/>
    <rect x="0" y="108" width="320" height="1" fill="#000000" opacity="0.16"/>
    <rect x="0" y="112" width="320" height="1" fill="#000000" opacity="0.16"/>
    <rect x="0" y="116" width="320" height="1" fill="#000000" opacity="0.16"/>
    <rect x="0" y="120" width="320" height="1" fill="#000000" opacity="0.16"/>
    <rect x="0" y="124" width="320" height="1" fill="#000000" opacity="0.16"/>
    <rect x="0" y="128" width="320" height="1" fill="#000000" opacity="0.16"/>
    <rect x="0" y="132" width="320" height="1" fill="#000000" opacity="0.16"/>
    <rect x="0" y="136" width="320" height="1" fill="#000000" opacity="0.16"/>
    <rect x="0" y="140" width="320" height="1" fill="#000000" opacity="0.16"/>
    <rect x="0" y="144" width="320" height="1" fill="#000000" opacity="0.16"/>
    <rect x="0" y="148" width="320" height="1" fill="#000000" opacity="0.16"/>
    <rect x="0" y="152" width="320" height="1" fill="#000000" opacity="0.16"/>
    <rect x="0" y="156" width="320" height="1" fill="#000000" opacity="0.16"/>
    <rect x="0" y="160" width="320" height="1" fill="#000000" opacity="0.16"/>
    <rect x="0" y="164" width="320" height="1" fill="#000000" opacity="0.16"/>
    <rect x="0" y="168" width="320" height="1" fill="#000000" opacity="0.16"/>
    <rect x="0" y="172" width="320" height="1" fill="#000000" opacity="0.16"/>
    <rect x="0" y="176" width="320" height="1" fill="#000000" opacity="0.16"/>
    <rect x="0" y="74" width="18" height="34" fill="#1c1830" opacity="0.95"/>
    <rect x="16" y="66" width="2" height="8" fill="#00ffff" opacity="0.55"/>
    <rect x="9" y="82" width="2" height="3" fill="#00ffff" opacity="0.35"/>
    <rect x="12" y="96" width="2" height="3" fill="#00ffff" opacity="0.8"/>
    <rect x="22" y="54" width="12" height="54" fill="#1c1830" opacity="0.95"/>
    <rect x="29" y="62" width="2" height="3" fill="#00ffff" opacity="0.8"/>
    <rect x="28" y="76" width="2" height="3" fill="#00ffff" opacity="0.35"/>
    <rect x="27" y="90" width="2" height="3" fill="#00ffff" opacity="0.35"/>
    <rect x="38" y="68" width="24" height="40" fill="#1c1830" opacity="0.95"/>
    <rect x="60" y="60" width="2" height="8" fill="#00ffff" opacity="0.55"/>
    <rect x="52" y="76" width="2" height="3" fill="#00ffff" opacity="0.8"/>
    <rect x="49" y="90" width="2" height="3" fill="#00ffff" opacity="0.35"/>
    <rect x="66" y="36" width="16" height="72" fill="#1c1830" opacity="0.95"/>
    <rect x="72" y="44" width="2" height="3" fill="#00ffff" opacity="0.35"/>
    <rect x="77" y="58" width="2" height="3" fill="#00ffff" opacity="0.35"/>
    <rect x="73" y="72" width="2" height="3" fill="#00ffff" opacity="0.8"/>
    <rect x="78" y="86" width="2" height="3" fill="#00ffff" opacity="0.35"/>
    <rect x="74" y="100" width="2" height="3" fill="#00ffff" opacity="0.35"/>
    <rect x="86" y="60" width="26" height="48" fill="#1c1830" opacity="0.95"/>
    <rect x="110" y="52" width="2" height="8" fill="#00ffff" opacity="0.55"/>
    <rect x="105" y="68" width="2" height="3" fill="#00ffff" opacity="0.8"/>
    <rect x="100" y="82" width="2" height="3" fill="#00ffff" opacity="0.35"/>
    <rect x="95" y="96" width="2" height="3" fill="#00ffff" opacity="0.35"/>
    <rect x="116" y="46" width="14" height="62" fill="#1c1830" opacity="0.95"/>
    <rect x="123" y="54" width="2" height="3" fill="#00ffff" opacity="0.35"/>
    <rect x="123" y="68" width="2" height="3" fill="#00ffff" opacity="0.35"/>
    <rect x="123" y="82" width="2" height="3" fill="#00ffff" opacity="0.8"/>
    <rect x="123" y="96" width="2" height="3" fill="#00ffff" opacity="0.35"/>
    <rect x="134" y="72" width="21" height="36" fill="#1c1830" opacity="0.95"/>
    <rect x="153" y="64" width="2" height="8" fill="#00ffff" opacity="0.55"/>
    <rect x="140" y="80" width="2" height="3" fill="#00ffff" opacity="0.35"/>
    <rect x="140" y="94" width="2" height="3" fill="#00ffff" opacity="0.35"/>
    <rect x="159" y="28" width="11" height="80" fill="#1c1830" opacity="0.95"/>
    <rect x="166" y="36" width="2" height="3" fill="#00ffff" opacity="0.35"/>
    <rect x="164" y="50" width="2" height="3" fill="#00ffff" opacity="0.8"/>
    <rect x="166" y="64" width="2" height="3" fill="#00ffff" opacity="0.35"/>
    <rect x="164" y="78" width="2" height="3" fill="#00ffff" opacity="0.35"/>
    <rect x="166" y="92" width="2" height="3" fill="#00ffff" opacity="0.8"/>
    <rect x="174" y="64" width="19" height="44" fill="#1c1830" opacity="0.95"/>
    <rect x="191" y="56" width="2" height="8" fill="#00ffff" opacity="0.55"/>
    <rect x="186" y="72" width="2" height="3" fill="#00ffff" opacity="0.35"/>
    <rect x="188" y="86" width="2" height="3" fill="#00ffff" opacity="0.35"/>
    <rect x="178" y="100" width="2" height="3" fill="#00ffff" opacity="0.8"/>
    <rect x="28" y="50" width="264" height="82" fill="#0d2240" opacity="0.42"/>
    <line x1="28" y1="50" x2="292" y2="50" stroke="#00ffff" stroke-width="2" opacity="0.78"/>
    <line x1="28" y1="132" x2="292" y2="132" stroke="#00ffff" stroke-width="2" opacity="0.64"/>
    <line x1="28" y1="50" x2="28" y2="132" stroke="#00ffff" stroke-width="2" opacity="0.64"/>
    <line x1="292" y1="50" x2="292" y2="132" stroke="#00ffff" stroke-width="2" opacity="0.64"/>
    <line x1="160" y1="34" x2="28" y2="50" stroke="#00ffff" stroke-width="2" opacity="0.68"/>
    <line x1="160" y1="34" x2="292" y2="50" stroke="#00ffff" stroke-width="2" opacity="0.68"/>
    <line x1="160" y1="34" x2="160" y2="132" stroke="#00ffff" stroke-width="1" opacity="0.42"/>
    <line x1="56" y1="52" x2="38" y2="132" stroke="#1870a8" stroke-width="1" opacity="0.42"/>
    <line x1="56" y1="52" x2="74" y2="132" stroke="#a0006a" stroke-width="1" opacity="0.34"/>
    <line x1="94" y1="52" x2="76" y2="132" stroke="#1870a8" stroke-width="1" opacity="0.42"/>
    <line x1="94" y1="52" x2="112" y2="132" stroke="#a0006a" stroke-width="1" opacity="0.34"/>
    <line x1="132" y1="52" x2="114" y2="132" stroke="#1870a8" stroke-width="1" opacity="0.42"/>
    <line x1="132" y1="52" x2="150" y2="132" stroke="#a0006a" stroke-width="1" opacity="0.34"/>
    <line x1="170" y1="52" x2="152" y2="132" stroke="#1870a8" stroke-width="1" opacity="0.42"/>
    <line x1="170" y1="52" x2="188" y2="132" stroke="#a0006a" stroke-width="1" opacity="0.34"/>
    <line x1="208" y1="52" x2="190" y2="132" stroke="#1870a8" stroke-width="1" opacity="0.42"/>
    <line x1="208" y1="52" x2="226" y2="132" stroke="#a0006a" stroke-width="1" opacity="0.34"/>
    <line x1="246" y1="52" x2="228" y2="132" stroke="#1870a8" stroke-width="1" opacity="0.42"/>
    <line x1="246" y1="52" x2="264" y2="132" stroke="#a0006a" stroke-width="1" opacity="0.34"/>
    <rect x="52" y="62" width="70" height="4" fill="#ff0090" opacity="0.9"/>
    <rect x="198" y="62" width="70" height="4" fill="#ff0090" opacity="0.9"/>
    <rect x="64" y="70" width="46" height="2" fill="#ff44cc" opacity="0.7"/>
    <rect x="210" y="70" width="46" height="2" fill="#ff44cc" opacity="0.7"/>
    <rect x="0" y="132" width="320" height="12" fill="#0a0a14"/>
    <rect x="0" y="144" width="320" height="36" fill="#0d2240" opacity="0.62"/>
    <rect x="42" y="122" width="62" height="12" fill="#1c1830"/>
    <rect x="130" y="118" width="72" height="16" fill="#1c1830"/>
    <rect x="224" y="124" width="54" height="10" fill="#1c1830"/>
    <rect x="44" y="122" width="58" height="2" fill="#ff0090"/>
    <rect x="132" y="118" width="68" height="2" fill="#ccff00"/>
    <rect x="226" y="124" width="50" height="2" fill="#00ffff"/>
    <rect x="66" y="76" width="10" height="46" fill="#1870a8"/>
    <rect x="68" y="78" width="6" height="44" fill="#ccff00"/>
    <rect x="70" y="82" width="2" height="34" fill="#e8e8ff" opacity="0.18"/>
    <rect x="54" y="91" width="12" height="8" fill="#1870a8"/>
    <rect x="52" y="75" width="8" height="24" fill="#1870a8"/>
    <rect x="56" y="93" width="10" height="4" fill="#ccff00"/>
    <rect x="54" y="77" width="4" height="20" fill="#ccff00"/>
    <rect x="76" y="99" width="12" height="8" fill="#1870a8"/>
    <rect x="82" y="81" width="8" height="26" fill="#1870a8"/>
    <rect x="76" y="101" width="10" height="4" fill="#ccff00"/>
    <rect x="84" y="83" width="4" height="22" fill="#ccff00"/>
    <rect x="69" y="72" width="6" height="4" fill="#ff0090"/>
    <rect x="158" y="56" width="12" height="62" fill="#1870a8"/>
    <rect x="160" y="58" width="8" height="60" fill="#ccff00"/>
    <rect x="162" y="62" width="2" height="50" fill="#e8e8ff" opacity="0.18"/>
    <rect x="146" y="76" width="12" height="8" fill="#1870a8"/>
    <rect x="144" y="60" width="8" height="24" fill="#1870a8"/>
    <rect x="148" y="78" width="10" height="4" fill="#ccff00"/>
    <rect x="146" y="62" width="4" height="20" fill="#ccff00"/>
    <rect x="170" y="87" width="12" height="8" fill="#1870a8"/>
    <rect x="176" y="69" width="8" height="26" fill="#1870a8"/>
    <rect x="170" y="89" width="10" height="4" fill="#ccff00"/>
    <rect x="178" y="71" width="4" height="22" fill="#ccff00"/>
    <rect x="161" y="52" width="6" height="4" fill="#ff0090"/>
    <rect x="242" y="84" width="10" height="40" fill="#1870a8"/>
    <rect x="244" y="86" width="6" height="38" fill="#ccff00"/>
    <rect x="246" y="90" width="2" height="28" fill="#e8e8ff" opacity="0.18"/>
    <rect x="230" y="97" width="12" height="8" fill="#1870a8"/>
    <rect x="228" y="81" width="8" height="24" fill="#1870a8"/>
    <rect x="232" y="99" width="10" height="4" fill="#ccff00"/>
    <rect x="230" y="83" width="4" height="20" fill="#ccff00"/>
    <rect x="252" y="104" width="12" height="8" fill="#1870a8"/>
    <rect x="258" y="86" width="8" height="26" fill="#1870a8"/>
    <rect x="252" y="106" width="10" height="4" fill="#ccff00"/>
    <rect x="260" y="88" width="4" height="22" fill="#ccff00"/>
    <rect x="245" y="80" width="6" height="4" fill="#ff0090"/>
    <rect x="0" y="138" width="320" height="2" fill="#ccff00" opacity="0.8"/>
    <rect x="0" y="160" width="320" height="2" fill="#a0006a" opacity="0.55"/>
    <line x1="0" y1="148" x2="320" y2="148" stroke="#ccff00" stroke-width="1" opacity="0.34"/>
    <line x1="0" y1="156" x2="320" y2="156" stroke="#ccff00" stroke-width="1" opacity="0.34"/>
    <line x1="0" y1="165" x2="320" y2="165" stroke="#ccff00" stroke-width="1" opacity="0.34"/>
    <line x1="0" y1="174" x2="320" y2="174" stroke="#ccff00" stroke-width="1" opacity="0.34"/>
    <line x1="160" y1="138" x2="-160" y2="180" stroke="#ccff00" stroke-width="1" opacity="0.28"/>
    <line x1="160" y1="138" x2="-128" y2="180" stroke="#ccff00" stroke-width="1" opacity="0.28"/>
    <line x1="160" y1="138" x2="-96" y2="180" stroke="#ccff00" stroke-width="1" opacity="0.28"/>
    <line x1="160" y1="138" x2="-64" y2="180" stroke="#ccff00" stroke-width="1" opacity="0.28"/>
    <line x1="160" y1="138" x2="-32" y2="180" stroke="#ccff00" stroke-width="1" opacity="0.28"/>
    <line x1="160" y1="138" x2="0" y2="180" stroke="#ccff00" stroke-width="1" opacity="0.28"/>
    <line x1="160" y1="138" x2="32" y2="180" stroke="#ccff00" stroke-width="1" opacity="0.28"/>
    <line x1="160" y1="138" x2="64" y2="180" stroke="#ccff00" stroke-width="1" opacity="0.28"/>
    <line x1="160" y1="138" x2="96" y2="180" stroke="#ccff00" stroke-width="1" opacity="0.28"/>
    <line x1="160" y1="138" x2="128" y2="180" stroke="#ccff00" stroke-width="1" opacity="0.28"/>
    <line x1="160" y1="138" x2="160" y2="180" stroke="#ccff00" stroke-width="1" opacity="0.28"/>
    <line x1="160" y1="138" x2="192" y2="180" stroke="#ccff00" stroke-width="1" opacity="0.28"/>
    <line x1="160" y1="138" x2="224" y2="180" stroke="#ccff00" stroke-width="1" opacity="0.28"/>
    <line x1="160" y1="138" x2="256" y2="180" stroke="#ccff00" stroke-width="1" opacity="0.28"/>
    <line x1="160" y1="138" x2="288" y2="180" stroke="#ccff00" stroke-width="1" opacity="0.28"/>
    <line x1="160" y1="138" x2="320" y2="180" stroke="#ccff00" stroke-width="1" opacity="0.28"/>
    <line x1="160" y1="138" x2="352" y2="180" stroke="#ccff00" stroke-width="1" opacity="0.28"/>
    <line x1="160" y1="138" x2="384" y2="180" stroke="#ccff00" stroke-width="1" opacity="0.28"/>
    <line x1="160" y1="138" x2="416" y2="180" stroke="#ccff00" stroke-width="1" opacity="0.28"/>
    <line x1="160" y1="138" x2="448" y2="180" stroke="#ccff00" stroke-width="1" opacity="0.28"/>
    <line x1="160" y1="138" x2="480" y2="180" stroke="#ccff00" stroke-width="1" opacity="0.28"/>
  </g>
</svg>
