<?xml version="1.0" encoding="UTF-8"?>
<!-- Canal Reflections — kofun-friends cyberpunk background study -->
<svg xmlns="http://www.w3.org/2000/svg" viewBox="0 0 320 180" width="320" height="180" role="img" aria-label="Canal Reflections">
  <g shape-rendering="crispEdges">
    <rect x="0" y="0" width="320" height="180" fill="#0a0a14"/>
    <rect x="0" y="0" width="320" height="84" fill="#12101e" opacity="0.72"/>
    <rect x="0" y="80" width="320" height="32" fill="#0d2240" opacity="0.48"/>
    <rect x="0" y="112" width="320" height="68" fill="#0a0a14"/>
    <rect x="279" y="23" width="1" height="1" fill="#ff0090" opacity="0.75"/>
    <rect x="6" y="46" width="1" height="1" fill="#00ffff" opacity="0.45"/>
    <rect x="53" y="69" width="1" height="1" fill="#00ffff" opacity="0.45"/>
    <rect x="100" y="14" width="1" height="1" fill="#00ffff" opacity="0.75"/>
    <rect x="147" y="37" width="1" height="1" fill="#00ffff" opacity="0.45"/>
    <rect x="194" y="60" width="1" height="1" fill="#ff0090" opacity="0.45"/>
    <rect x="241" y="83" width="1" height="1" fill="#00ffff" opacity="0.75"/>
    <rect x="288" y="28" width="1" height="1" fill="#00ffff" opacity="0.45"/>
    <rect x="15" y="51" width="1" height="1" fill="#00ffff" opacity="0.45"/>
    <rect x="62" y="74" width="1" height="1" fill="#00ffff" opacity="0.75"/>
    <rect x="109" y="19" width="1" height="1" fill="#ff0090" opacity="0.45"/>
    <rect x="156" y="42" width="1" height="1" fill="#00ffff" opacity="0.45"/>
    <rect x="203" y="65" width="1" height="1" fill="#00ffff" opacity="0.75"/>
    <rect x="250" y="10" width="1" height="1" fill="#00ffff" opacity="0.45"/>
    <rect x="297" y="33" width="1" height="1" fill="#00ffff" opacity="0.45"/>
    <rect x="24" y="56" width="1" height="1" fill="#ff0090" opacity="0.75"/>
    <rect x="71" y="79" width="1" height="1" fill="#00ffff" opacity="0.45"/>
    <rect x="118" y="24" width="1" height="1" fill="#00ffff" opacity="0.45"/>
    <rect x="165" y="47" width="1" height="1" fill="#00ffff" opacity="0.75"/>
    <rect x="212" y="70" width="1" height="1" fill="#00ffff" opacity="0.45"/>
    <rect x="259" y="15" width="1" height="1" fill="#ff0090" opacity="0.45"/>
    <rect x="306" y="38" width="1" height="1" fill="#00ffff" opacity="0.75"/>
    <rect x="33" y="61" width="1" height="1" fill="#00ffff" opacity="0.45"/>
    <rect x="80" y="84" width="1" height="1" fill="#00ffff" opacity="0.45"/>
    <rect x="127" y="29" width="1" height="1" fill="#00ffff" opacity="0.75"/>
    <rect x="174" y="52" width="1" height="1" fill="#ff0090" opacity="0.45"/>
    <rect x="221" y="75" width="1" height="1" fill="#00ffff" opacity="0.45"/>
    <rect x="268" y="20" width="1" height="1" fill="#00ffff" opacity="0.75"/>
    <rect x="315" y="43" width="1" height="1" fill="#00ffff" opacity="0.45"/>
    <rect x="42" y="66" width="1" height="1" fill="#00ffff" opacity="0.45"/>
    <rect x="89" y="11" width="1" height="1" fill="#ff0090" opacity="0.75"/>
    <rect x="136" y="34" width="1" height="1" fill="#00ffff" opacity="0.45"/>
    <rect x="183" y="57" width="1" height="1" fill="#00ffff" opacity="0.45"/>
    <rect x="230" y="80" width="1" height="1" fill="#00ffff" opacity="0.75"/>
    <rect x="0" y="0" width="320" height="1" fill="#000000" opacity="0.16"/>
    <rect x="0" y="4" width="320" height="1" fill="#000000" opacity="0.16"/>
    <rect x="0" y="8" width="320" height="1" fill="#000000" opacity="0.16"/>
    <rect x="0" y="12" width="320" height="1" fill="#000000" opacity="0.16"/>
    <rect x="0" y="16" width="320" height="1" fill="#000000" opacity="0.16"/>
    <rect x="0" y="20" width="320" height="1" fill="#000000" opacity="0.16"/>
    <rect x="0" y="24" width="320" height="1" fill="#000000" opacity="0.16"/>
    <rect x="0" y="28" width="320" height="1" fill="#000000" opacity="0.16"/>
    <rect x="0" y="32" width="320" height="1" fill="#000000" opacity="0.16"/>
    <rect x="0" y="36" width="320" height="1" fill="#000000" opacity="0.16"/>
    <rect x="0" y="40" width="320" height="1" fill="#000000" opacity="0.16"/>
    <rect x="0" y="44" width="320" height="1" fill="#000000" opacity="0.16"/>
    <rect x="0" y="48" width="320" height="1" fill="#000000" opacity="0.16"/>
    <rect x="0" y="52" width="320" height="1" fill="#000000" opacity="0.16"/>
    <rect x="0" y="56" width="320" height="1" fill="#000000" opacity="0.16"/>
    <rect x="0" y="60" width="320" height="1" fill="#000000" opacity="0.16"/>
    <rect x="0" y="64" width="320" height="1" fill="#000000" opacity="0.16"/>
    <rect x="0" y="68" width="320" height="1" fill="#000000" opacity="0.16"/>
    <rect x="0" y="72" width="320" height="1" fill="#000000" opacity="0.16"/>
    <rect x="0" y="76" width="320" height="1" fill="#000000" opacity="0.16"/>
    <rect x="0" y="80" width="320" height="1" fill="#000000" opacity="0.16"/>
    <rect x="0" y="84" width="320" height="1" fill="#000000" opacity="0.16"/>
    <rect x="0" y="88" width="320" height="1" fill="#000000" opacity="0.16"/>
    <rect x="0" y="92" width="320" height="1" fill="#000000" opacity="0.16"/>
    <rect x="0" y="96" width="320" height="1" fill="#000000" opacity="0.16"/>
    <rect x="0" y="100" width="320" height="1" fill="#000000" opacity="0.16"/>
    <rect x="0" y="104" width="320" height="1" fill="#000000" opacity="0.16"/>
    <rect x="0" y="108" width="320" height="1" fill="#000000" opacity="0.16"/>
    <rect x="0" y="112" width="320" height="1" fill="#000000" opacity="0.16"/>
    <rect x="0" y="116" width="320" height="1" fill="#000000" opacity="0.16"/>
    <rect x="0" y="120" width="320" height="1" fill="#000000" opacity="0.16"/>
    <rect x="0" y="124" width="320" height="1" fill="#000000" opacity="0.16"/>
    <rect x="0" y="128" width="320" height="1" fill="#000000" opacity="0.16"/>
    <rect x="0" y="132" width="320" height="1" fill="#000000" opacity="0.16"/>
    <rect x="0" y="136" width="320" height="1" fill="#000000" opacity="0.16"/>
    <rect x="0" y="140" width="320" height="1" fill="#000000" opacity="0.16"/>
    <rect x="0" y="144" width="320" height="1" fill="#000000" opacity="0.16"/>
    <rect x="0" y="148" width="320" height="1" fill="#000000" opacity="0.16"/>
    <rect x="0" y="152" width="320" height="1" fill="#000000" opacity="0.16"/>
    <rect x="0" y="156" width="320" height="1" fill="#000000" opacity="0.16"/>
    <rect x="0" y="160" width="320" height="1" fill="#000000" opacity="0.16"/>
    <rect x="0" y="164" width="320" height="1" fill="#000000" opacity="0.16"/>
    <rect x="0" y="168" width="320" height="1" fill="#000000" opacity="0.16"/>
    <rect x="0" y="172" width="320" height="1" fill="#000000" opacity="0.16"/>
    <rect x="0" y="176" width="320" height="1" fill="#000000" opacity="0.16"/>
    <rect x="0" y="70" width="18" height="38" fill="#1c1830" opacity="0.95"/>
    <rect x="16" y="62" width="2" height="8" fill="#ff0090" opacity="0.55"/>
    <rect x="5" y="78" width="2" height="3" fill="#ff0090" opacity="0.8"/>
    <rect x="8" y="92" width="2" height="3" fill="#ff0090" opacity="0.35"/>
    <rect x="22" y="52" width="12" height="56" fill="#1c1830" opacity="0.95"/>
    <rect x="27" y="60" width="2" height="3" fill="#ff0090" opacity="0.35"/>
    <rect x="26" y="74" width="2" height="3" fill="#ff0090" opacity="0.8"/>
    <rect x="30" y="88" width="2" height="3" fill="#ff0090" opacity="0.35"/>
    <rect x="29" y="102" width="2" height="3" fill="#ff0090" opacity="0.35"/>
    <rect x="38" y="36" width="24" height="72" fill="#1c1830" opacity="0.95"/>
    <rect x="60" y="28" width="2" height="8" fill="#ff0090" opacity="0.55"/>
    <rect x="54" y="44" width="2" height="3" fill="#ff0090" opacity="0.35"/>
    <rect x="51" y="58" width="2" height="3" fill="#ff0090" opacity="0.8"/>
    <rect x="48" y="72" width="2" height="3" fill="#ff0090" opacity="0.35"/>
    <rect x="45" y="86" width="2" height="3" fill="#ff0090" opacity="0.35"/>
    <rect x="42" y="100" width="2" height="3" fill="#ff0090" opacity="0.8"/>
    <rect x="66" y="64" width="16" height="44" fill="#1c1830" opacity="0.95"/>
    <rect x="73" y="72" width="2" height="3" fill="#ff0090" opacity="0.8"/>
    <rect x="78" y="86" width="2" height="3" fill="#ff0090" opacity="0.35"/>
    <rect x="74" y="100" width="2" height="3" fill="#ff0090" opacity="0.35"/>
    <rect x="86" y="40" width="26" height="68" fill="#1c1830" opacity="0.95"/>
    <rect x="110" y="32" width="2" height="8" fill="#ff0090" opacity="0.55"/>
    <rect x="104" y="48" width="2" height="3" fill="#ff0090" opacity="0.35"/>
    <rect x="99" y="62" width="2" height="3" fill="#ff0090" opacity="0.8"/>
    <rect x="94" y="76" width="2" height="3" fill="#ff0090" opacity="0.35"/>
    <rect x="108" y="90" width="2" height="3" fill="#ff0090" opacity="0.35"/>
    <rect x="116" y="56" width="14" height="52" fill="#1c1830" opacity="0.95"/>
    <rect x="126" y="64" width="2" height="3" fill="#ff0090" opacity="0.8"/>
    <rect x="126" y="78" width="2" height="3" fill="#ff0090" opacity="0.35"/>
    <rect x="126" y="92" width="2" height="3" fill="#ff0090" opacity="0.35"/>
    <rect x="134" y="20" width="21" height="88" fill="#1c1830" opacity="0.95"/>
    <rect x="153" y="12" width="2" height="8" fill="#ff0090" opacity="0.55"/>
    <rect x="144" y="28" width="2" height="3" fill="#ff0090" opacity="0.35"/>
    <rect x="144" y="42" width="2" height="3" fill="#ff0090" opacity="0.8"/>
    <rect x="144" y="56" width="2" height="3" fill="#ff0090" opacity="0.35"/>
    <rect x="144" y="70" width="2" height="3" fill="#ff0090" opacity="0.35"/>
    <rect x="144" y="84" width="2" height="3" fill="#ff0090" opacity="0.8"/>
    <rect x="144" y="98" width="2" height="3" fill="#ff0090" opacity="0.35"/>
    <rect x="159" y="74" width="11" height="34" fill="#1c1830" opacity="0.95"/>
    <rect x="164" y="82" width="2" height="3" fill="#ff0090" opacity="0.35"/>
    <rect x="166" y="96" width="2" height="3" fill="#ff0090" opacity="0.35"/>
    <rect x="174" y="48" width="19" height="60" fill="#1c1830" opacity="0.95"/>
    <rect x="191" y="40" width="2" height="8" fill="#ff0090" opacity="0.55"/>
    <rect x="182" y="56" width="2" height="3" fill="#ff0090" opacity="0.35"/>
    <rect x="184" y="70" width="2" height="3" fill="#ff0090" opacity="0.8"/>
    <rect x="186" y="84" width="2" height="3" fill="#ff0090" opacity="0.35"/>
    <rect x="188" y="98" width="2" height="3" fill="#ff0090" opacity="0.35"/>
    <rect x="0" y="112" width="320" height="12" fill="#0a0a14"/>
    <rect x="0" y="124" width="320" height="56" fill="#0d2240" opacity="0.72"/>
    <rect x="12" y="130" width="74" height="1" fill="#00ffff" opacity="0.44"/>
    <rect x="132" y="132" width="98" height="1" fill="#ff0090" opacity="0.36"/>
    <rect x="230" y="134" width="48" height="1" fill="#ccff00" opacity="0.26"/>
    <rect x="33" y="137" width="74" height="1" fill="#00ffff" opacity="0.44"/>
    <rect x="139" y="139" width="98" height="1" fill="#ff0090" opacity="0.36"/>
    <rect x="216" y="141" width="48" height="1" fill="#ccff00" opacity="0.26"/>
    <rect x="12" y="144" width="74" height="1" fill="#00ffff" opacity="0.44"/>
    <rect x="146" y="146" width="98" height="1" fill="#ff0090" opacity="0.36"/>
    <rect x="238" y="148" width="48" height="1" fill="#ccff00" opacity="0.26"/>
    <rect x="33" y="151" width="74" height="1" fill="#00ffff" opacity="0.44"/>
    <rect x="153" y="153" width="98" height="1" fill="#ff0090" opacity="0.36"/>
    <rect x="224" y="155" width="48" height="1" fill="#ccff00" opacity="0.26"/>
    <rect x="12" y="158" width="74" height="1" fill="#00ffff" opacity="0.44"/>
    <rect x="132" y="160" width="98" height="1" fill="#ff0090" opacity="0.36"/>
    <rect x="210" y="162" width="48" height="1" fill="#ccff00" opacity="0.26"/>
    <rect x="33" y="165" width="74" height="1" fill="#00ffff" opacity="0.44"/>
    <rect x="139" y="167" width="98" height="1" fill="#ff0090" opacity="0.36"/>
    <rect x="232" y="169" width="48" height="1" fill="#ccff00" opacity="0.26"/>
    <rect x="12" y="172" width="74" height="1" fill="#00ffff" opacity="0.44"/>
    <rect x="146" y="174" width="98" height="1" fill="#ff0090" opacity="0.36"/>
    <rect x="218" y="176" width="48" height="1" fill="#ccff00" opacity="0.26"/>
  </g>
</svg>
