<?xml version="1.0" encoding="UTF-8"?>
<!-- Crab Dock — kofun-friends cyberpunk background study -->
<svg xmlns="http://www.w3.org/2000/svg" viewBox="0 0 320 180" width="320" height="180" role="img" aria-label="Crab Dock">
  <g shape-rendering="crispEdges">
    <rect x="0" y="0" width="320" height="180" fill="#0b001b"/>
    <rect x="0" y="0" width="320" height="84" fill="#08173d" opacity="0.72"/>
    <rect x="0" y="80" width="320" height="46" fill="#03274c" opacity="0.48"/>
    <rect x="0" y="126" width="320" height="54" fill="#050915"/>
    <rect x="52" y="80" width="1" height="1" fill="#e13a6a" opacity="0.75"/>
    <rect x="99" y="25" width="1" height="1" fill="#53ebe4" opacity="0.45"/>
    <rect x="146" y="48" width="1" height="1" fill="#53ebe4" opacity="0.45"/>
    <rect x="193" y="71" width="1" height="1" fill="#53ebe4" opacity="0.75"/>
    <rect x="240" y="16" width="1" height="1" fill="#53ebe4" opacity="0.45"/>
    <rect x="287" y="39" width="1" height="1" fill="#e13a6a" opacity="0.45"/>
    <rect x="14" y="62" width="1" height="1" fill="#53ebe4" opacity="0.75"/>
    <rect x="61" y="85" width="1" height="1" fill="#53ebe4" opacity="0.45"/>
    <rect x="108" y="30" width="1" height="1" fill="#53ebe4" opacity="0.45"/>
    <rect x="155" y="53" width="1" height="1" fill="#53ebe4" opacity="0.75"/>
    <rect x="202" y="76" width="1" height="1" fill="#e13a6a" opacity="0.45"/>
    <rect x="249" y="21" width="1" height="1" fill="#53ebe4" opacity="0.45"/>
    <rect x="296" y="44" width="1" height="1" fill="#53ebe4" opacity="0.75"/>
    <rect x="23" y="67" width="1" height="1" fill="#53ebe4" opacity="0.45"/>
    <rect x="70" y="12" width="1" height="1" fill="#53ebe4" opacity="0.45"/>
    <rect x="117" y="35" width="1" height="1" fill="#e13a6a" opacity="0.75"/>
    <rect x="164" y="58" width="1" height="1" fill="#53ebe4" opacity="0.45"/>
    <rect x="211" y="81" width="1" height="1" fill="#53ebe4" opacity="0.45"/>
    <rect x="258" y="26" width="1" height="1" fill="#53ebe4" opacity="0.75"/>
    <rect x="305" y="49" width="1" height="1" fill="#53ebe4" opacity="0.45"/>
    <rect x="32" y="72" width="1" height="1" fill="#e13a6a" opacity="0.45"/>
    <rect x="79" y="17" width="1" height="1" fill="#53ebe4" opacity="0.75"/>
    <rect x="126" y="40" width="1" height="1" fill="#53ebe4" opacity="0.45"/>
    <rect x="173" y="63" width="1" height="1" fill="#53ebe4" opacity="0.45"/>
    <rect x="220" y="8" width="1" height="1" fill="#53ebe4" opacity="0.75"/>
    <rect x="267" y="31" width="1" height="1" fill="#e13a6a" opacity="0.45"/>
    <rect x="314" y="54" width="1" height="1" fill="#53ebe4" opacity="0.45"/>
    <rect x="41" y="77" width="1" height="1" fill="#53ebe4" opacity="0.75"/>
    <rect x="88" y="22" width="1" height="1" fill="#53ebe4" opacity="0.45"/>
    <rect x="135" y="45" width="1" height="1" fill="#53ebe4" opacity="0.45"/>
    <rect x="182" y="68" width="1" height="1" fill="#e13a6a" opacity="0.75"/>
    <rect x="229" y="13" width="1" height="1" fill="#53ebe4" opacity="0.45"/>
    <rect x="276" y="36" width="1" height="1" fill="#53ebe4" opacity="0.45"/>
    <rect x="3" y="59" width="1" height="1" fill="#53ebe4" opacity="0.75"/>
    <rect x="0" y="0" width="320" height="1" fill="#000000" opacity="0.16"/>
    <rect x="0" y="4" width="320" height="1" fill="#000000" opacity="0.16"/>
    <rect x="0" y="8" width="320" height="1" fill="#000000" opacity="0.16"/>
    <rect x="0" y="12" width="320" height="1" fill="#000000" opacity="0.16"/>
    <rect x="0" y="16" width="320" height="1" fill="#000000" opacity="0.16"/>
    <rect x="0" y="20" width="320" height="1" fill="#000000" opacity="0.16"/>
    <rect x="0" y="24" width="320" height="1" fill="#000000" opacity="0.16"/>
    <rect x="0" y="28" width="320" height="1" fill="#000000" opacity="0.16"/>
    <rect x="0" y="32" width="320" height="1" fill="#000000" opacity="0.16"/>
    <rect x="0" y="36" width="320" height="1" fill="#000000" opacity="0.16"/>
    <rect x="0" y="40" width="320" height="1" fill="#000000" opacity="0.16"/>
    <rect x="0" y="44" width="320" height="1" fill="#000000" opacity="0.16"/>
    <rect x="0" y="48" width="320" height="1" fill="#000000" opacity="0.16"/>
    <rect x="0" y="52" width="320" height="1" fill="#000000" opacity="0.16"/>
    <rect x="0" y="56" width="320" height="1" fill="#000000" opacity="0.16"/>
    <rect x="0" y="60" width="320" height="1" fill="#000000" opacity="0.16"/>
    <rect x="0" y="64" width="320" height="1" fill="#000000" opacity="0.16"/>
    <rect x="0" y="68" width="320" height="1" fill="#000000" opacity="0.16"/>
    <rect x="0" y="72" width="320" height="1" fill="#000000" opacity="0.16"/>
    <rect x="0" y="76" width="320" height="1" fill="#000000" opacity="0.16"/>
    <rect x="0" y="80" width="320" height="1" fill="#000000" opacity="0.16"/>
    <rect x="0" y="84" width="320" height="1" fill="#000000" opacity="0.16"/>
    <rect x="0" y="88" width="320" height="1" fill="#000000" opacity="0.16"/>
    <rect x="0" y="92" width="320" height="1" fill="#000000" opacity="0.16"/>
    <rect x="0" y="96" width="320" height="1" fill="#000000" opacity="0.16"/>
    <rect x="0" y="100" width="320" height="1" fill="#000000" opacity="0.16"/>
    <rect x="0" y="104" width="320" height="1" fill="#000000" opacity="0.16"/>
    <rect x="0" y="108" width="320" height="1" fill="#000000" opacity="0.16"/>
    <rect x="0" y="112" width="320" height="1" fill="#000000" opacity="0.16"/>
    <rect x="0" y="116" width="320" height="1" fill="#000000" opacity="0.16"/>
    <rect x="0" y="120" width="320" height="1" fill="#000000" opacity="0.16"/>
    <rect x="0" y="124" width="320" height="1" fill="#000000" opacity="0.16"/>
    <rect x="0" y="128" width="320" height="1" fill="#000000" opacity="0.16"/>
    <rect x="0" y="132" width="320" height="1" fill="#000000" opacity="0.16"/>
    <rect x="0" y="136" width="320" height="1" fill="#000000" opacity="0.16"/>
    <rect x="0" y="140" width="320" height="1" fill="#000000" opacity="0.16"/>
    <rect x="0" y="144" width="320" height="1" fill="#000000" opacity="0.16"/>
    <rect x="0" y="148" width="320" height="1" fill="#000000" opacity="0.16"/>
    <rect x="0" y="152" width="320" height="1" fill="#000000" opacity="0.16"/>
    <rect x="0" y="156" width="320" height="1" fill="#000000" opacity="0.16"/>
    <rect x="0" y="160" width="320" height="1" fill="#000000" opacity="0.16"/>
    <rect x="0" y="164" width="320" height="1" fill="#000000" opacity="0.16"/>
    <rect x="0" y="168" width="320" height="1" fill="#000000" opacity="0.16"/>
    <rect x="0" y="172" width="320" height="1" fill="#000000" opacity="0.16"/>
    <rect x="0" y="176" width="320" height="1" fill="#000000" opacity="0.16"/>
    <rect x="0" y="58" width="18" height="42" fill="#4d004f" opacity="0.95"/>
    <rect x="16" y="50" width="2" height="8" fill="#53ebe4" opacity="0.55"/>
    <rect x="4" y="66" width="2" height="3" fill="#53ebe4" opacity="0.8"/>
    <rect x="7" y="80" width="2" height="3" fill="#53ebe4" opacity="0.35"/>
    <rect x="10" y="94" width="2" height="3" fill="#53ebe4" opacity="0.35"/>
    <rect x="22" y="42" width="12" height="58" fill="#4d004f" opacity="0.95"/>
    <rect x="27" y="50" width="2" height="3" fill="#53ebe4" opacity="0.8"/>
    <rect x="26" y="64" width="2" height="3" fill="#53ebe4" opacity="0.35"/>
    <rect x="30" y="78" width="2" height="3" fill="#53ebe4" opacity="0.35"/>
    <rect x="29" y="92" width="2" height="3" fill="#53ebe4" opacity="0.8"/>
    <rect x="38" y="64" width="24" height="36" fill="#4d004f" opacity="0.95"/>
    <rect x="60" y="56" width="2" height="8" fill="#53ebe4" opacity="0.55"/>
    <rect x="48" y="72" width="2" height="3" fill="#53ebe4" opacity="0.35"/>
    <rect x="45" y="86" width="2" height="3" fill="#53ebe4" opacity="0.35"/>
    <rect x="66" y="22" width="16" height="78" fill="#4d004f" opacity="0.95"/>
    <rect x="76" y="30" width="2" height="3" fill="#53ebe4" opacity="0.8"/>
    <rect x="72" y="44" width="2" height="3" fill="#53ebe4" opacity="0.35"/>
    <rect x="77" y="58" width="2" height="3" fill="#53ebe4" opacity="0.35"/>
    <rect x="73" y="72" width="2" height="3" fill="#53ebe4" opacity="0.8"/>
    <rect x="78" y="86" width="2" height="3" fill="#53ebe4" opacity="0.35"/>
    <rect x="86" y="52" width="26" height="48" fill="#4d004f" opacity="0.95"/>
    <rect x="110" y="44" width="2" height="8" fill="#53ebe4" opacity="0.55"/>
    <rect x="97" y="60" width="2" height="3" fill="#53ebe4" opacity="0.35"/>
    <rect x="92" y="74" width="2" height="3" fill="#53ebe4" opacity="0.8"/>
    <rect x="106" y="88" width="2" height="3" fill="#53ebe4" opacity="0.35"/>
    <rect x="116" y="38" width="14" height="62" fill="#4d004f" opacity="0.95"/>
    <rect x="122" y="46" width="2" height="3" fill="#53ebe4" opacity="0.8"/>
    <rect x="122" y="60" width="2" height="3" fill="#53ebe4" opacity="0.35"/>
    <rect x="122" y="74" width="2" height="3" fill="#53ebe4" opacity="0.35"/>
    <rect x="122" y="88" width="2" height="3" fill="#53ebe4" opacity="0.8"/>
    <rect x="134" y="66" width="21" height="34" fill="#4d004f" opacity="0.95"/>
    <rect x="153" y="58" width="2" height="8" fill="#53ebe4" opacity="0.55"/>
    <rect x="148" y="74" width="2" height="3" fill="#53ebe4" opacity="0.35"/>
    <rect x="148" y="88" width="2" height="3" fill="#53ebe4" opacity="0.35"/>
    <rect x="159" y="28" width="11" height="72" fill="#4d004f" opacity="0.95"/>
    <rect x="166" y="36" width="2" height="3" fill="#53ebe4" opacity="0.35"/>
    <rect x="164" y="50" width="2" height="3" fill="#53ebe4" opacity="0.8"/>
    <rect x="166" y="64" width="2" height="3" fill="#53ebe4" opacity="0.35"/>
    <rect x="164" y="78" width="2" height="3" fill="#53ebe4" opacity="0.35"/>
    <rect x="166" y="92" width="2" height="3" fill="#53ebe4" opacity="0.8"/>
    <rect x="174" y="56" width="19" height="44" fill="#4d004f" opacity="0.95"/>
    <rect x="191" y="48" width="2" height="8" fill="#53ebe4" opacity="0.55"/>
    <rect x="178" y="64" width="2" height="3" fill="#53ebe4" opacity="0.8"/>
    <rect x="180" y="78" width="2" height="3" fill="#53ebe4" opacity="0.35"/>
    <rect x="182" y="92" width="2" height="3" fill="#53ebe4" opacity="0.35"/>
    <rect x="0" y="126" width="320" height="16" fill="#050915"/>
    <rect x="0" y="142" width="320" height="38" fill="#03274c" opacity="0.74"/>
    <rect x="44" y="82" width="54" height="28" fill="#c1115a"/>
    <rect x="54" y="90" width="34" height="12" fill="#ffea00"/>
    <rect x="64" y="84" width="14" height="4" fill="#53ebe4"/>
    <rect x="218" y="78" width="50" height="34" fill="#0f9595"/>
    <rect x="226" y="86" width="34" height="16" fill="#eca6c0"/>
    <rect x="236" y="92" width="14" height="4" fill="#050915"/>
    <rect x="18" y="132" width="4" height="26" fill="#7c4dff"/>
    <rect x="10" y="132" width="32" height="2" fill="#53ebe4" opacity="0.72"/>
    <rect x="60" y="132" width="4" height="26" fill="#7c4dff"/>
    <rect x="52" y="132" width="32" height="2" fill="#53ebe4" opacity="0.72"/>
    <rect x="102" y="132" width="4" height="26" fill="#7c4dff"/>
    <rect x="94" y="132" width="32" height="2" fill="#53ebe4" opacity="0.72"/>
    <rect x="144" y="132" width="4" height="26" fill="#7c4dff"/>
    <rect x="136" y="132" width="32" height="2" fill="#53ebe4" opacity="0.72"/>
    <rect x="186" y="132" width="4" height="26" fill="#7c4dff"/>
    <rect x="178" y="132" width="32" height="2" fill="#53ebe4" opacity="0.72"/>
    <rect x="228" y="132" width="4" height="26" fill="#7c4dff"/>
    <rect x="220" y="132" width="32" height="2" fill="#53ebe4" opacity="0.72"/>
    <rect x="270" y="132" width="4" height="26" fill="#7c4dff"/>
    <rect x="262" y="132" width="32" height="2" fill="#53ebe4" opacity="0.72"/>
    <rect x="312" y="132" width="4" height="26" fill="#7c4dff"/>
    <rect x="304" y="132" width="32" height="2" fill="#53ebe4" opacity="0.72"/>
    <rect x="42" y="148" width="86" height="1" fill="#53ebe4" opacity="0.34"/>
    <rect x="172" y="151" width="94" height="1" fill="#e13a6a" opacity="0.28"/>
    <rect x="20" y="156" width="86" height="1" fill="#53ebe4" opacity="0.34"/>
    <rect x="164" y="159" width="94" height="1" fill="#e13a6a" opacity="0.28"/>
    <rect x="28" y="164" width="86" height="1" fill="#53ebe4" opacity="0.34"/>
    <rect x="156" y="167" width="94" height="1" fill="#e13a6a" opacity="0.28"/>
    <rect x="36" y="172" width="86" height="1" fill="#53ebe4" opacity="0.34"/>
    <rect x="172" y="175" width="94" height="1" fill="#e13a6a" opacity="0.28"/>
  </g>
</svg>
