<?xml version="1.0" encoding="UTF-8"?>
<!-- Data Shrine — kofun-friends cyberpunk background study -->
<svg xmlns="http://www.w3.org/2000/svg" viewBox="0 0 320 180" width="320" height="180" role="img" aria-label="Data Shrine">
  <g shape-rendering="crispEdges">
    <rect x="0" y="0" width="320" height="180" fill="#0b001b"/>
    <rect x="0" y="0" width="320" height="84" fill="#08173d" opacity="0.72"/>
    <rect x="0" y="80" width="320" height="54" fill="#03274c" opacity="0.48"/>
    <rect x="0" y="134" width="320" height="46" fill="#050915"/>
    <rect x="186" y="44" width="1" height="1" fill="#e13a6a" opacity="0.75"/>
    <rect x="233" y="67" width="1" height="1" fill="#53ebe4" opacity="0.45"/>
    <rect x="280" y="12" width="1" height="1" fill="#53ebe4" opacity="0.45"/>
    <rect x="7" y="35" width="1" height="1" fill="#53ebe4" opacity="0.75"/>
    <rect x="54" y="58" width="1" height="1" fill="#53ebe4" opacity="0.45"/>
    <rect x="101" y="81" width="1" height="1" fill="#e13a6a" opacity="0.45"/>
    <rect x="148" y="26" width="1" height="1" fill="#53ebe4" opacity="0.75"/>
    <rect x="195" y="49" width="1" height="1" fill="#53ebe4" opacity="0.45"/>
    <rect x="242" y="72" width="1" height="1" fill="#53ebe4" opacity="0.45"/>
    <rect x="289" y="17" width="1" height="1" fill="#53ebe4" opacity="0.75"/>
    <rect x="16" y="40" width="1" height="1" fill="#e13a6a" opacity="0.45"/>
    <rect x="63" y="63" width="1" height="1" fill="#53ebe4" opacity="0.45"/>
    <rect x="110" y="8" width="1" height="1" fill="#53ebe4" opacity="0.75"/>
    <rect x="157" y="31" width="1" height="1" fill="#53ebe4" opacity="0.45"/>
    <rect x="204" y="54" width="1" height="1" fill="#53ebe4" opacity="0.45"/>
    <rect x="251" y="77" width="1" height="1" fill="#e13a6a" opacity="0.75"/>
    <rect x="298" y="22" width="1" height="1" fill="#53ebe4" opacity="0.45"/>
    <rect x="25" y="45" width="1" height="1" fill="#53ebe4" opacity="0.45"/>
    <rect x="72" y="68" width="1" height="1" fill="#53ebe4" opacity="0.75"/>
    <rect x="119" y="13" width="1" height="1" fill="#53ebe4" opacity="0.45"/>
    <rect x="166" y="36" width="1" height="1" fill="#e13a6a" opacity="0.45"/>
    <rect x="213" y="59" width="1" height="1" fill="#53ebe4" opacity="0.75"/>
    <rect x="260" y="82" width="1" height="1" fill="#53ebe4" opacity="0.45"/>
    <rect x="307" y="27" width="1" height="1" fill="#53ebe4" opacity="0.45"/>
    <rect x="34" y="50" width="1" height="1" fill="#53ebe4" opacity="0.75"/>
    <rect x="81" y="73" width="1" height="1" fill="#e13a6a" opacity="0.45"/>
    <rect x="128" y="18" width="1" height="1" fill="#53ebe4" opacity="0.45"/>
    <rect x="175" y="41" width="1" height="1" fill="#53ebe4" opacity="0.75"/>
    <rect x="222" y="64" width="1" height="1" fill="#53ebe4" opacity="0.45"/>
    <rect x="269" y="9" width="1" height="1" fill="#53ebe4" opacity="0.45"/>
    <rect x="316" y="32" width="1" height="1" fill="#e13a6a" opacity="0.75"/>
    <rect x="43" y="55" width="1" height="1" fill="#53ebe4" opacity="0.45"/>
    <rect x="90" y="78" width="1" height="1" fill="#53ebe4" opacity="0.45"/>
    <rect x="137" y="23" width="1" height="1" fill="#53ebe4" opacity="0.75"/>
    <rect x="0" y="0" width="320" height="1" fill="#000000" opacity="0.16"/>
    <rect x="0" y="4" width="320" height="1" fill="#000000" opacity="0.16"/>
    <rect x="0" y="8" width="320" height="1" fill="#000000" opacity="0.16"/>
    <rect x="0" y="12" width="320" height="1" fill="#000000" opacity="0.16"/>
    <rect x="0" y="16" width="320" height="1" fill="#000000" opacity="0.16"/>
    <rect x="0" y="20" width="320" height="1" fill="#000000" opacity="0.16"/>
    <rect x="0" y="24" width="320" height="1" fill="#000000" opacity="0.16"/>
    <rect x="0" y="28" width="320" height="1" fill="#000000" opacity="0.16"/>
    <rect x="0" y="32" width="320" height="1" fill="#000000" opacity="0.16"/>
    <rect x="0" y="36" width="320" height="1" fill="#000000" opacity="0.16"/>
    <rect x="0" y="40" width="320" height="1" fill="#000000" opacity="0.16"/>
    <rect x="0" y="44" width="320" height="1" fill="#000000" opacity="0.16"/>
    <rect x="0" y="48" width="320" height="1" fill="#000000" opacity="0.16"/>
    <rect x="0" y="52" width="320" height="1" fill="#000000" opacity="0.16"/>
    <rect x="0" y="56" width="320" height="1" fill="#000000" opacity="0.16"/>
    <rect x="0" y="60" width="320" height="1" fill="#000000" opacity="0.16"/>
    <rect x="0" y="64" width="320" height="1" fill="#000000" opacity="0.16"/>
    <rect x="0" y="68" width="320" height="1" fill="#000000" opacity="0.16"/>
    <rect x="0" y="72" width="320" height="1" fill="#000000" opacity="0.16"/>
    <rect x="0" y="76" width="320" height="1" fill="#000000" opacity="0.16"/>
    <rect x="0" y="80" width="320" height="1" fill="#000000" opacity="0.16"/>
    <rect x="0" y="84" width="320" height="1" fill="#000000" opacity="0.16"/>
    <rect x="0" y="88" width="320" height="1" fill="#000000" opacity="0.16"/>
    <rect x="0" y="92" width="320" height="1" fill="#000000" opacity="0.16"/>
    <rect x="0" y="96" width="320" height="1" fill="#000000" opacity="0.16"/>
    <rect x="0" y="100" width="320" height="1" fill="#000000" opacity="0.16"/>
    <rect x="0" y="104" width="320" height="1" fill="#000000" opacity="0.16"/>
    <rect x="0" y="108" width="320" height="1" fill="#000000" opacity="0.16"/>
    <rect x="0" y="112" width="320" height="1" fill="#000000" opacity="0.16"/>
    <rect x="0" y="116" width="320" height="1" fill="#000000" opacity="0.16"/>
    <rect x="0" y="120" width="320" height="1" fill="#000000" opacity="0.16"/>
    <rect x="0" y="124" width="320" height="1" fill="#000000" opacity="0.16"/>
    <rect x="0" y="128" width="320" height="1" fill="#000000" opacity="0.16"/>
    <rect x="0" y="132" width="320" height="1" fill="#000000" opacity="0.16"/>
    <rect x="0" y="136" width="320" height="1" fill="#000000" opacity="0.16"/>
    <rect x="0" y="140" width="320" height="1" fill="#000000" opacity="0.16"/>
    <rect x="0" y="144" width="320" height="1" fill="#000000" opacity="0.16"/>
    <rect x="0" y="148" width="320" height="1" fill="#000000" opacity="0.16"/>
    <rect x="0" y="152" width="320" height="1" fill="#000000" opacity="0.16"/>
    <rect x="0" y="156" width="320" height="1" fill="#000000" opacity="0.16"/>
    <rect x="0" y="160" width="320" height="1" fill="#000000" opacity="0.16"/>
    <rect x="0" y="164" width="320" height="1" fill="#000000" opacity="0.16"/>
    <rect x="0" y="168" width="320" height="1" fill="#000000" opacity="0.16"/>
    <rect x="0" y="172" width="320" height="1" fill="#000000" opacity="0.16"/>
    <rect x="0" y="176" width="320" height="1" fill="#000000" opacity="0.16"/>
    <rect x="0" y="66" width="18" height="44" fill="#03274c" opacity="0.95"/>
    <rect x="16" y="58" width="2" height="8" fill="#53ebe4" opacity="0.55"/>
    <rect x="12" y="74" width="2" height="3" fill="#53ebe4" opacity="0.35"/>
    <rect x="4" y="88" width="2" height="3" fill="#53ebe4" opacity="0.35"/>
    <rect x="7" y="102" width="2" height="3" fill="#53ebe4" opacity="0.8"/>
    <rect x="22" y="76" width="12" height="34" fill="#03274c" opacity="0.95"/>
    <rect x="26" y="84" width="2" height="3" fill="#53ebe4" opacity="0.35"/>
    <rect x="30" y="98" width="2" height="3" fill="#53ebe4" opacity="0.8"/>
    <rect x="38" y="52" width="24" height="58" fill="#03274c" opacity="0.95"/>
    <rect x="60" y="44" width="2" height="8" fill="#53ebe4" opacity="0.55"/>
    <rect x="53" y="60" width="2" height="3" fill="#53ebe4" opacity="0.35"/>
    <rect x="50" y="74" width="2" height="3" fill="#53ebe4" opacity="0.35"/>
    <rect x="47" y="88" width="2" height="3" fill="#53ebe4" opacity="0.8"/>
    <rect x="44" y="102" width="2" height="3" fill="#53ebe4" opacity="0.35"/>
    <rect x="66" y="38" width="16" height="72" fill="#03274c" opacity="0.95"/>
    <rect x="74" y="46" width="2" height="3" fill="#53ebe4" opacity="0.35"/>
    <rect x="70" y="60" width="2" height="3" fill="#53ebe4" opacity="0.8"/>
    <rect x="75" y="74" width="2" height="3" fill="#53ebe4" opacity="0.35"/>
    <rect x="71" y="88" width="2" height="3" fill="#53ebe4" opacity="0.35"/>
    <rect x="76" y="102" width="2" height="3" fill="#53ebe4" opacity="0.8"/>
    <rect x="86" y="70" width="26" height="40" fill="#03274c" opacity="0.95"/>
    <rect x="110" y="62" width="2" height="8" fill="#53ebe4" opacity="0.55"/>
    <rect x="96" y="78" width="2" height="3" fill="#53ebe4" opacity="0.35"/>
    <rect x="91" y="92" width="2" height="3" fill="#53ebe4" opacity="0.8"/>
    <rect x="116" y="48" width="14" height="62" fill="#03274c" opacity="0.95"/>
    <rect x="125" y="56" width="2" height="3" fill="#53ebe4" opacity="0.35"/>
    <rect x="125" y="70" width="2" height="3" fill="#53ebe4" opacity="0.8"/>
    <rect x="125" y="84" width="2" height="3" fill="#53ebe4" opacity="0.35"/>
    <rect x="125" y="98" width="2" height="3" fill="#53ebe4" opacity="0.35"/>
    <rect x="134" y="58" width="21" height="52" fill="#03274c" opacity="0.95"/>
    <rect x="153" y="50" width="2" height="8" fill="#53ebe4" opacity="0.55"/>
    <rect x="140" y="66" width="2" height="3" fill="#53ebe4" opacity="0.8"/>
    <rect x="140" y="80" width="2" height="3" fill="#53ebe4" opacity="0.35"/>
    <rect x="140" y="94" width="2" height="3" fill="#53ebe4" opacity="0.35"/>
    <rect x="159" y="74" width="11" height="36" fill="#03274c" opacity="0.95"/>
    <rect x="164" y="82" width="2" height="3" fill="#53ebe4" opacity="0.35"/>
    <rect x="166" y="96" width="2" height="3" fill="#53ebe4" opacity="0.35"/>
    <rect x="174" y="44" width="19" height="66" fill="#03274c" opacity="0.95"/>
    <rect x="191" y="36" width="2" height="8" fill="#53ebe4" opacity="0.55"/>
    <rect x="178" y="52" width="2" height="3" fill="#53ebe4" opacity="0.8"/>
    <rect x="180" y="66" width="2" height="3" fill="#53ebe4" opacity="0.35"/>
    <rect x="182" y="80" width="2" height="3" fill="#53ebe4" opacity="0.35"/>
    <rect x="184" y="94" width="2" height="3" fill="#53ebe4" opacity="0.8"/>
    <rect x="82" y="60" width="156" height="8" fill="#e13a6a"/>
    <rect x="94" y="68" width="10" height="62" fill="#e13a6a"/>
    <rect x="216" y="68" width="10" height="62" fill="#e13a6a"/>
    <rect x="104" y="82" width="112" height="6" fill="#53ebe4"/>
    <rect x="114" y="88" width="8" height="38" fill="#53ebe4"/>
    <rect x="198" y="88" width="8" height="38" fill="#53ebe4"/>
    <rect x="138" y="92" width="44" height="28" fill="#050915"/>
    <rect x="146" y="100" width="28" height="4" fill="#c8ff2b"/>
    <rect x="150" y="108" width="20" height="3" fill="#53ebe4"/>
    <rect x="0" y="134" width="320" height="2" fill="#e13a6a" opacity="0.8"/>
    <rect x="0" y="160" width="320" height="2" fill="#c1115a" opacity="0.55"/>
    <line x1="0" y1="148" x2="320" y2="148" stroke="#e13a6a" stroke-width="1" opacity="0.34"/>
    <line x1="0" y1="156" x2="320" y2="156" stroke="#e13a6a" stroke-width="1" opacity="0.34"/>
    <line x1="0" y1="165" x2="320" y2="165" stroke="#e13a6a" stroke-width="1" opacity="0.34"/>
    <line x1="0" y1="174" x2="320" y2="174" stroke="#e13a6a" stroke-width="1" opacity="0.34"/>
    <line x1="160" y1="134" x2="-160" y2="180" stroke="#e13a6a" stroke-width="1" opacity="0.28"/>
    <line x1="160" y1="134" x2="-128" y2="180" stroke="#e13a6a" stroke-width="1" opacity="0.28"/>
    <line x1="160" y1="134" x2="-96" y2="180" stroke="#e13a6a" stroke-width="1" opacity="0.28"/>
    <line x1="160" y1="134" x2="-64" y2="180" stroke="#e13a6a" stroke-width="1" opacity="0.28"/>
    <line x1="160" y1="134" x2="-32" y2="180" stroke="#e13a6a" stroke-width="1" opacity="0.28"/>
    <line x1="160" y1="134" x2="0" y2="180" stroke="#e13a6a" stroke-width="1" opacity="0.28"/>
    <line x1="160" y1="134" x2="32" y2="180" stroke="#e13a6a" stroke-width="1" opacity="0.28"/>
    <line x1="160" y1="134" x2="64" y2="180" stroke="#e13a6a" stroke-width="1" opacity="0.28"/>
    <line x1="160" y1="134" x2="96" y2="180" stroke="#e13a6a" stroke-width="1" opacity="0.28"/>
    <line x1="160" y1="134" x2="128" y2="180" stroke="#e13a6a" stroke-width="1" opacity="0.28"/>
    <line x1="160" y1="134" x2="160" y2="180" stroke="#e13a6a" stroke-width="1" opacity="0.28"/>
    <line x1="160" y1="134" x2="192" y2="180" stroke="#e13a6a" stroke-width="1" opacity="0.28"/>
    <line x1="160" y1="134" x2="224" y2="180" stroke="#e13a6a" stroke-width="1" opacity="0.28"/>
    <line x1="160" y1="134" x2="256" y2="180" stroke="#e13a6a" stroke-width="1" opacity="0.28"/>
    <line x1="160" y1="134" x2="288" y2="180" stroke="#e13a6a" stroke-width="1" opacity="0.28"/>
    <line x1="160" y1="134" x2="320" y2="180" stroke="#e13a6a" stroke-width="1" opacity="0.28"/>
    <line x1="160" y1="134" x2="352" y2="180" stroke="#e13a6a" stroke-width="1" opacity="0.28"/>
    <line x1="160" y1="134" x2="384" y2="180" stroke="#e13a6a" stroke-width="1" opacity="0.28"/>
    <line x1="160" y1="134" x2="416" y2="180" stroke="#e13a6a" stroke-width="1" opacity="0.28"/>
    <line x1="160" y1="134" x2="448" y2="180" stroke="#e13a6a" stroke-width="1" opacity="0.28"/>
    <line x1="160" y1="134" x2="480" y2="180" stroke="#e13a6a" stroke-width="1" opacity="0.28"/>
  </g>
</svg>
