<?xml version="1.0" encoding="UTF-8"?>
<!-- Maglev Platform — kofun-friends cyberpunk background study -->
<svg xmlns="http://www.w3.org/2000/svg" viewBox="0 0 320 180" width="320" height="180" role="img" aria-label="Maglev Platform">
  <g shape-rendering="crispEdges">
    <rect x="0" y="0" width="320" height="180" fill="#0a0a14"/>
    <rect x="0" y="0" width="320" height="84" fill="#12101e" opacity="0.72"/>
    <rect x="0" y="80" width="320" height="46" fill="#0d2240" opacity="0.48"/>
    <rect x="0" y="126" width="320" height="54" fill="#0a0a14"/>
    <rect x="93" y="65" width="1" height="1" fill="#ff0090" opacity="0.75"/>
    <rect x="140" y="10" width="1" height="1" fill="#00ffff" opacity="0.45"/>
    <rect x="187" y="33" width="1" height="1" fill="#00ffff" opacity="0.45"/>
    <rect x="234" y="56" width="1" height="1" fill="#00ffff" opacity="0.75"/>
    <rect x="281" y="79" width="1" height="1" fill="#00ffff" opacity="0.45"/>
    <rect x="8" y="24" width="1" height="1" fill="#ff0090" opacity="0.45"/>
    <rect x="55" y="47" width="1" height="1" fill="#00ffff" opacity="0.75"/>
    <rect x="102" y="70" width="1" height="1" fill="#00ffff" opacity="0.45"/>
    <rect x="149" y="15" width="1" height="1" fill="#00ffff" opacity="0.45"/>
    <rect x="196" y="38" width="1" height="1" fill="#00ffff" opacity="0.75"/>
    <rect x="243" y="61" width="1" height="1" fill="#ff0090" opacity="0.45"/>
    <rect x="290" y="84" width="1" height="1" fill="#00ffff" opacity="0.45"/>
    <rect x="17" y="29" width="1" height="1" fill="#00ffff" opacity="0.75"/>
    <rect x="64" y="52" width="1" height="1" fill="#00ffff" opacity="0.45"/>
    <rect x="111" y="75" width="1" height="1" fill="#00ffff" opacity="0.45"/>
    <rect x="158" y="20" width="1" height="1" fill="#ff0090" opacity="0.75"/>
    <rect x="205" y="43" width="1" height="1" fill="#00ffff" opacity="0.45"/>
    <rect x="252" y="66" width="1" height="1" fill="#00ffff" opacity="0.45"/>
    <rect x="299" y="11" width="1" height="1" fill="#00ffff" opacity="0.75"/>
    <rect x="26" y="34" width="1" height="1" fill="#00ffff" opacity="0.45"/>
    <rect x="73" y="57" width="1" height="1" fill="#ff0090" opacity="0.45"/>
    <rect x="120" y="80" width="1" height="1" fill="#00ffff" opacity="0.75"/>
    <rect x="167" y="25" width="1" height="1" fill="#00ffff" opacity="0.45"/>
    <rect x="214" y="48" width="1" height="1" fill="#00ffff" opacity="0.45"/>
    <rect x="261" y="71" width="1" height="1" fill="#00ffff" opacity="0.75"/>
    <rect x="308" y="16" width="1" height="1" fill="#ff0090" opacity="0.45"/>
    <rect x="35" y="39" width="1" height="1" fill="#00ffff" opacity="0.45"/>
    <rect x="82" y="62" width="1" height="1" fill="#00ffff" opacity="0.75"/>
    <rect x="129" y="85" width="1" height="1" fill="#00ffff" opacity="0.45"/>
    <rect x="176" y="30" width="1" height="1" fill="#00ffff" opacity="0.45"/>
    <rect x="223" y="53" width="1" height="1" fill="#ff0090" opacity="0.75"/>
    <rect x="270" y="76" width="1" height="1" fill="#00ffff" opacity="0.45"/>
    <rect x="317" y="21" width="1" height="1" fill="#00ffff" opacity="0.45"/>
    <rect x="44" y="44" width="1" height="1" fill="#00ffff" opacity="0.75"/>
    <rect x="0" y="0" width="320" height="1" fill="#000000" opacity="0.16"/>
    <rect x="0" y="4" width="320" height="1" fill="#000000" opacity="0.16"/>
    <rect x="0" y="8" width="320" height="1" fill="#000000" opacity="0.16"/>
    <rect x="0" y="12" width="320" height="1" fill="#000000" opacity="0.16"/>
    <rect x="0" y="16" width="320" height="1" fill="#000000" opacity="0.16"/>
    <rect x="0" y="20" width="320" height="1" fill="#000000" opacity="0.16"/>
    <rect x="0" y="24" width="320" height="1" fill="#000000" opacity="0.16"/>
    <rect x="0" y="28" width="320" height="1" fill="#000000" opacity="0.16"/>
    <rect x="0" y="32" width="320" height="1" fill="#000000" opacity="0.16"/>
    <rect x="0" y="36" width="320" height="1" fill="#000000" opacity="0.16"/>
    <rect x="0" y="40" width="320" height="1" fill="#000000" opacity="0.16"/>
    <rect x="0" y="44" width="320" height="1" fill="#000000" opacity="0.16"/>
    <rect x="0" y="48" width="320" height="1" fill="#000000" opacity="0.16"/>
    <rect x="0" y="52" width="320" height="1" fill="#000000" opacity="0.16"/>
    <rect x="0" y="56" width="320" height="1" fill="#000000" opacity="0.16"/>
    <rect x="0" y="60" width="320" height="1" fill="#000000" opacity="0.16"/>
    <rect x="0" y="64" width="320" height="1" fill="#000000" opacity="0.16"/>
    <rect x="0" y="68" width="320" height="1" fill="#000000" opacity="0.16"/>
    <rect x="0" y="72" width="320" height="1" fill="#000000" opacity="0.16"/>
    <rect x="0" y="76" width="320" height="1" fill="#000000" opacity="0.16"/>
    <rect x="0" y="80" width="320" height="1" fill="#000000" opacity="0.16"/>
    <rect x="0" y="84" width="320" height="1" fill="#000000" opacity="0.16"/>
    <rect x="0" y="88" width="320" height="1" fill="#000000" opacity="0.16"/>
    <rect x="0" y="92" width="320" height="1" fill="#000000" opacity="0.16"/>
    <rect x="0" y="96" width="320" height="1" fill="#000000" opacity="0.16"/>
    <rect x="0" y="100" width="320" height="1" fill="#000000" opacity="0.16"/>
    <rect x="0" y="104" width="320" height="1" fill="#000000" opacity="0.16"/>
    <rect x="0" y="108" width="320" height="1" fill="#000000" opacity="0.16"/>
    <rect x="0" y="112" width="320" height="1" fill="#000000" opacity="0.16"/>
    <rect x="0" y="116" width="320" height="1" fill="#000000" opacity="0.16"/>
    <rect x="0" y="120" width="320" height="1" fill="#000000" opacity="0.16"/>
    <rect x="0" y="124" width="320" height="1" fill="#000000" opacity="0.16"/>
    <rect x="0" y="128" width="320" height="1" fill="#000000" opacity="0.16"/>
    <rect x="0" y="132" width="320" height="1" fill="#000000" opacity="0.16"/>
    <rect x="0" y="136" width="320" height="1" fill="#000000" opacity="0.16"/>
    <rect x="0" y="140" width="320" height="1" fill="#000000" opacity="0.16"/>
    <rect x="0" y="144" width="320" height="1" fill="#000000" opacity="0.16"/>
    <rect x="0" y="148" width="320" height="1" fill="#000000" opacity="0.16"/>
    <rect x="0" y="152" width="320" height="1" fill="#000000" opacity="0.16"/>
    <rect x="0" y="156" width="320" height="1" fill="#000000" opacity="0.16"/>
    <rect x="0" y="160" width="320" height="1" fill="#000000" opacity="0.16"/>
    <rect x="0" y="164" width="320" height="1" fill="#000000" opacity="0.16"/>
    <rect x="0" y="168" width="320" height="1" fill="#000000" opacity="0.16"/>
    <rect x="0" y="172" width="320" height="1" fill="#000000" opacity="0.16"/>
    <rect x="0" y="176" width="320" height="1" fill="#000000" opacity="0.16"/>
    <rect x="0" y="66" width="18" height="36" fill="#1c1830" opacity="0.95"/>
    <rect x="16" y="58" width="2" height="8" fill="#00ffff" opacity="0.55"/>
    <rect x="12" y="74" width="2" height="3" fill="#00ffff" opacity="0.35"/>
    <rect x="4" y="88" width="2" height="3" fill="#00ffff" opacity="0.35"/>
    <rect x="22" y="44" width="12" height="58" fill="#1c1830" opacity="0.95"/>
    <rect x="29" y="52" width="2" height="3" fill="#00ffff" opacity="0.35"/>
    <rect x="28" y="66" width="2" height="3" fill="#00ffff" opacity="0.35"/>
    <rect x="27" y="80" width="2" height="3" fill="#00ffff" opacity="0.8"/>
    <rect x="26" y="94" width="2" height="3" fill="#00ffff" opacity="0.35"/>
    <rect x="38" y="54" width="24" height="48" fill="#1c1830" opacity="0.95"/>
    <rect x="60" y="46" width="2" height="8" fill="#00ffff" opacity="0.55"/>
    <rect x="55" y="62" width="2" height="3" fill="#00ffff" opacity="0.35"/>
    <rect x="52" y="76" width="2" height="3" fill="#00ffff" opacity="0.8"/>
    <rect x="49" y="90" width="2" height="3" fill="#00ffff" opacity="0.35"/>
    <rect x="66" y="29" width="16" height="73" fill="#1c1830" opacity="0.95"/>
    <rect x="74" y="37" width="2" height="3" fill="#00ffff" opacity="0.35"/>
    <rect x="70" y="51" width="2" height="3" fill="#00ffff" opacity="0.8"/>
    <rect x="75" y="65" width="2" height="3" fill="#00ffff" opacity="0.35"/>
    <rect x="71" y="79" width="2" height="3" fill="#00ffff" opacity="0.35"/>
    <rect x="76" y="93" width="2" height="3" fill="#00ffff" opacity="0.8"/>
    <rect x="86" y="61" width="26" height="41" fill="#1c1830" opacity="0.95"/>
    <rect x="110" y="53" width="2" height="8" fill="#00ffff" opacity="0.55"/>
    <rect x="106" y="69" width="2" height="3" fill="#00ffff" opacity="0.35"/>
    <rect x="101" y="83" width="2" height="3" fill="#00ffff" opacity="0.8"/>
    <rect x="96" y="97" width="2" height="3" fill="#00ffff" opacity="0.35"/>
    <rect x="116" y="38" width="14" height="64" fill="#1c1830" opacity="0.95"/>
    <rect x="122" y="46" width="2" height="3" fill="#00ffff" opacity="0.8"/>
    <rect x="122" y="60" width="2" height="3" fill="#00ffff" opacity="0.35"/>
    <rect x="122" y="74" width="2" height="3" fill="#00ffff" opacity="0.35"/>
    <rect x="122" y="88" width="2" height="3" fill="#00ffff" opacity="0.8"/>
    <rect x="134" y="48" width="21" height="54" fill="#1c1830" opacity="0.95"/>
    <rect x="153" y="40" width="2" height="8" fill="#00ffff" opacity="0.55"/>
    <rect x="144" y="56" width="2" height="3" fill="#00ffff" opacity="0.35"/>
    <rect x="144" y="70" width="2" height="3" fill="#00ffff" opacity="0.35"/>
    <rect x="144" y="84" width="2" height="3" fill="#00ffff" opacity="0.8"/>
    <rect x="159" y="64" width="11" height="38" fill="#1c1830" opacity="0.95"/>
    <rect x="166" y="72" width="2" height="3" fill="#00ffff" opacity="0.35"/>
    <rect x="164" y="86" width="2" height="3" fill="#00ffff" opacity="0.8"/>
    <rect x="174" y="32" width="19" height="70" fill="#1c1830" opacity="0.95"/>
    <rect x="191" y="24" width="2" height="8" fill="#00ffff" opacity="0.55"/>
    <rect x="178" y="40" width="2" height="3" fill="#00ffff" opacity="0.8"/>
    <rect x="180" y="54" width="2" height="3" fill="#00ffff" opacity="0.35"/>
    <rect x="182" y="68" width="2" height="3" fill="#00ffff" opacity="0.35"/>
    <rect x="184" y="82" width="2" height="3" fill="#00ffff" opacity="0.8"/>
    <rect x="186" y="96" width="2" height="3" fill="#00ffff" opacity="0.35"/>
    <rect x="0" y="104" width="320" height="20" fill="#0a0a14"/>
    <rect x="28" y="92" width="258" height="22" fill="#0d2240"/>
    <rect x="36" y="96" width="226" height="4" fill="#00ffff"/>
    <rect x="55" y="105" width="164" height="5" fill="#ff0090"/>
    <rect x="70" y="92" width="14" height="22" fill="#ffe040"/>
    <rect x="236" y="92" width="8" height="22" fill="#ccff00"/>
    <rect x="0" y="128" width="320" height="10" fill="#7c4dff" opacity="0.45"/>
    <rect x="0" y="142" width="320" height="4" fill="#1870a8"/>
    <rect x="0" y="146" width="320" height="2" fill="#00ffff" opacity="0.8"/>
    <rect x="0" y="160" width="320" height="2" fill="#a0006a" opacity="0.55"/>
    <line x1="0" y1="148" x2="320" y2="148" stroke="#00ffff" stroke-width="1" opacity="0.34"/>
    <line x1="0" y1="156" x2="320" y2="156" stroke="#00ffff" stroke-width="1" opacity="0.34"/>
    <line x1="0" y1="165" x2="320" y2="165" stroke="#00ffff" stroke-width="1" opacity="0.34"/>
    <line x1="0" y1="174" x2="320" y2="174" stroke="#00ffff" stroke-width="1" opacity="0.34"/>
    <line x1="160" y1="146" x2="-160" y2="180" stroke="#00ffff" stroke-width="1" opacity="0.28"/>
    <line x1="160" y1="146" x2="-128" y2="180" stroke="#00ffff" stroke-width="1" opacity="0.28"/>
    <line x1="160" y1="146" x2="-96" y2="180" stroke="#00ffff" stroke-width="1" opacity="0.28"/>
    <line x1="160" y1="146" x2="-64" y2="180" stroke="#00ffff" stroke-width="1" opacity="0.28"/>
    <line x1="160" y1="146" x2="-32" y2="180" stroke="#00ffff" stroke-width="1" opacity="0.28"/>
    <line x1="160" y1="146" x2="0" y2="180" stroke="#00ffff" stroke-width="1" opacity="0.28"/>
    <line x1="160" y1="146" x2="32" y2="180" stroke="#00ffff" stroke-width="1" opacity="0.28"/>
    <line x1="160" y1="146" x2="64" y2="180" stroke="#00ffff" stroke-width="1" opacity="0.28"/>
    <line x1="160" y1="146" x2="96" y2="180" stroke="#00ffff" stroke-width="1" opacity="0.28"/>
    <line x1="160" y1="146" x2="128" y2="180" stroke="#00ffff" stroke-width="1" opacity="0.28"/>
    <line x1="160" y1="146" x2="160" y2="180" stroke="#00ffff" stroke-width="1" opacity="0.28"/>
    <line x1="160" y1="146" x2="192" y2="180" stroke="#00ffff" stroke-width="1" opacity="0.28"/>
    <line x1="160" y1="146" x2="224" y2="180" stroke="#00ffff" stroke-width="1" opacity="0.28"/>
    <line x1="160" y1="146" x2="256" y2="180" stroke="#00ffff" stroke-width="1" opacity="0.28"/>
    <line x1="160" y1="146" x2="288" y2="180" stroke="#00ffff" stroke-width="1" opacity="0.28"/>
    <line x1="160" y1="146" x2="320" y2="180" stroke="#00ffff" stroke-width="1" opacity="0.28"/>
    <line x1="160" y1="146" x2="352" y2="180" stroke="#00ffff" stroke-width="1" opacity="0.28"/>
    <line x1="160" y1="146" x2="384" y2="180" stroke="#00ffff" stroke-width="1" opacity="0.28"/>
    <line x1="160" y1="146" x2="416" y2="180" stroke="#00ffff" stroke-width="1" opacity="0.28"/>
    <line x1="160" y1="146" x2="448" y2="180" stroke="#00ffff" stroke-width="1" opacity="0.28"/>
    <line x1="160" y1="146" x2="480" y2="180" stroke="#00ffff" stroke-width="1" opacity="0.28"/>
  </g>
</svg>
