<?xml version="1.0" encoding="UTF-8"?>
<!-- Moai Plaza — kofun-friends cyberpunk background study -->
<svg xmlns="http://www.w3.org/2000/svg" viewBox="0 0 320 180" width="320" height="180" role="img" aria-label="Moai Plaza">
  <g shape-rendering="crispEdges">
    <rect x="0" y="0" width="320" height="180" fill="#0b001b"/>
    <rect x="0" y="0" width="320" height="84" fill="#08173d" opacity="0.72"/>
    <rect x="0" y="80" width="320" height="58" fill="#03274c" opacity="0.48"/>
    <rect x="0" y="138" width="320" height="42" fill="#050915"/>
    <rect x="21" y="61" width="1" height="1" fill="#e13a6a" opacity="0.75"/>
    <rect x="68" y="84" width="1" height="1" fill="#53ebe4" opacity="0.45"/>
    <rect x="115" y="29" width="1" height="1" fill="#53ebe4" opacity="0.45"/>
    <rect x="162" y="52" width="1" height="1" fill="#53ebe4" opacity="0.75"/>
    <rect x="209" y="75" width="1" height="1" fill="#53ebe4" opacity="0.45"/>
    <rect x="256" y="20" width="1" height="1" fill="#e13a6a" opacity="0.45"/>
    <rect x="303" y="43" width="1" height="1" fill="#53ebe4" opacity="0.75"/>
    <rect x="30" y="66" width="1" height="1" fill="#53ebe4" opacity="0.45"/>
    <rect x="77" y="11" width="1" height="1" fill="#53ebe4" opacity="0.45"/>
    <rect x="124" y="34" width="1" height="1" fill="#53ebe4" opacity="0.75"/>
    <rect x="171" y="57" width="1" height="1" fill="#e13a6a" opacity="0.45"/>
    <rect x="218" y="80" width="1" height="1" fill="#53ebe4" opacity="0.45"/>
    <rect x="265" y="25" width="1" height="1" fill="#53ebe4" opacity="0.75"/>
    <rect x="312" y="48" width="1" height="1" fill="#53ebe4" opacity="0.45"/>
    <rect x="39" y="71" width="1" height="1" fill="#53ebe4" opacity="0.45"/>
    <rect x="86" y="16" width="1" height="1" fill="#e13a6a" opacity="0.75"/>
    <rect x="133" y="39" width="1" height="1" fill="#53ebe4" opacity="0.45"/>
    <rect x="180" y="62" width="1" height="1" fill="#53ebe4" opacity="0.45"/>
    <rect x="227" y="85" width="1" height="1" fill="#53ebe4" opacity="0.75"/>
    <rect x="274" y="30" width="1" height="1" fill="#53ebe4" opacity="0.45"/>
    <rect x="1" y="53" width="1" height="1" fill="#e13a6a" opacity="0.45"/>
    <rect x="48" y="76" width="1" height="1" fill="#53ebe4" opacity="0.75"/>
    <rect x="95" y="21" width="1" height="1" fill="#53ebe4" opacity="0.45"/>
    <rect x="142" y="44" width="1" height="1" fill="#53ebe4" opacity="0.45"/>
    <rect x="189" y="67" width="1" height="1" fill="#53ebe4" opacity="0.75"/>
    <rect x="236" y="12" width="1" height="1" fill="#e13a6a" opacity="0.45"/>
    <rect x="283" y="35" width="1" height="1" fill="#53ebe4" opacity="0.45"/>
    <rect x="10" y="58" width="1" height="1" fill="#53ebe4" opacity="0.75"/>
    <rect x="57" y="81" width="1" height="1" fill="#53ebe4" opacity="0.45"/>
    <rect x="104" y="26" width="1" height="1" fill="#53ebe4" opacity="0.45"/>
    <rect x="151" y="49" width="1" height="1" fill="#e13a6a" opacity="0.75"/>
    <rect x="198" y="72" width="1" height="1" fill="#53ebe4" opacity="0.45"/>
    <rect x="245" y="17" width="1" height="1" fill="#53ebe4" opacity="0.45"/>
    <rect x="292" y="40" width="1" height="1" fill="#53ebe4" opacity="0.75"/>
    <rect x="0" y="0" width="320" height="1" fill="#000000" opacity="0.16"/>
    <rect x="0" y="4" width="320" height="1" fill="#000000" opacity="0.16"/>
    <rect x="0" y="8" width="320" height="1" fill="#000000" opacity="0.16"/>
    <rect x="0" y="12" width="320" height="1" fill="#000000" opacity="0.16"/>
    <rect x="0" y="16" width="320" height="1" fill="#000000" opacity="0.16"/>
    <rect x="0" y="20" width="320" height="1" fill="#000000" opacity="0.16"/>
    <rect x="0" y="24" width="320" height="1" fill="#000000" opacity="0.16"/>
    <rect x="0" y="28" width="320" height="1" fill="#000000" opacity="0.16"/>
    <rect x="0" y="32" width="320" height="1" fill="#000000" opacity="0.16"/>
    <rect x="0" y="36" width="320" height="1" fill="#000000" opacity="0.16"/>
    <rect x="0" y="40" width="320" height="1" fill="#000000" opacity="0.16"/>
    <rect x="0" y="44" width="320" height="1" fill="#000000" opacity="0.16"/>
    <rect x="0" y="48" width="320" height="1" fill="#000000" opacity="0.16"/>
    <rect x="0" y="52" width="320" height="1" fill="#000000" opacity="0.16"/>
    <rect x="0" y="56" width="320" height="1" fill="#000000" opacity="0.16"/>
    <rect x="0" y="60" width="320" height="1" fill="#000000" opacity="0.16"/>
    <rect x="0" y="64" width="320" height="1" fill="#000000" opacity="0.16"/>
    <rect x="0" y="68" width="320" height="1" fill="#000000" opacity="0.16"/>
    <rect x="0" y="72" width="320" height="1" fill="#000000" opacity="0.16"/>
    <rect x="0" y="76" width="320" height="1" fill="#000000" opacity="0.16"/>
    <rect x="0" y="80" width="320" height="1" fill="#000000" opacity="0.16"/>
    <rect x="0" y="84" width="320" height="1" fill="#000000" opacity="0.16"/>
    <rect x="0" y="88" width="320" height="1" fill="#000000" opacity="0.16"/>
    <rect x="0" y="92" width="320" height="1" fill="#000000" opacity="0.16"/>
    <rect x="0" y="96" width="320" height="1" fill="#000000" opacity="0.16"/>
    <rect x="0" y="100" width="320" height="1" fill="#000000" opacity="0.16"/>
    <rect x="0" y="104" width="320" height="1" fill="#000000" opacity="0.16"/>
    <rect x="0" y="108" width="320" height="1" fill="#000000" opacity="0.16"/>
    <rect x="0" y="112" width="320" height="1" fill="#000000" opacity="0.16"/>
    <rect x="0" y="116" width="320" height="1" fill="#000000" opacity="0.16"/>
    <rect x="0" y="120" width="320" height="1" fill="#000000" opacity="0.16"/>
    <rect x="0" y="124" width="320" height="1" fill="#000000" opacity="0.16"/>
    <rect x="0" y="128" width="320" height="1" fill="#000000" opacity="0.16"/>
    <rect x="0" y="132" width="320" height="1" fill="#000000" opacity="0.16"/>
    <rect x="0" y="136" width="320" height="1" fill="#000000" opacity="0.16"/>
    <rect x="0" y="140" width="320" height="1" fill="#000000" opacity="0.16"/>
    <rect x="0" y="144" width="320" height="1" fill="#000000" opacity="0.16"/>
    <rect x="0" y="148" width="320" height="1" fill="#000000" opacity="0.16"/>
    <rect x="0" y="152" width="320" height="1" fill="#000000" opacity="0.16"/>
    <rect x="0" y="156" width="320" height="1" fill="#000000" opacity="0.16"/>
    <rect x="0" y="160" width="320" height="1" fill="#000000" opacity="0.16"/>
    <rect x="0" y="164" width="320" height="1" fill="#000000" opacity="0.16"/>
    <rect x="0" y="168" width="320" height="1" fill="#000000" opacity="0.16"/>
    <rect x="0" y="172" width="320" height="1" fill="#000000" opacity="0.16"/>
    <rect x="0" y="176" width="320" height="1" fill="#000000" opacity="0.16"/>
    <rect x="0" y="66" width="18" height="36" fill="#03274c" opacity="0.95"/>
    <rect x="16" y="58" width="2" height="8" fill="#53ebe4" opacity="0.55"/>
    <rect x="12" y="74" width="2" height="3" fill="#53ebe4" opacity="0.35"/>
    <rect x="4" y="88" width="2" height="3" fill="#53ebe4" opacity="0.35"/>
    <rect x="22" y="28" width="12" height="74" fill="#03274c" opacity="0.95"/>
    <rect x="28" y="36" width="2" height="3" fill="#53ebe4" opacity="0.35"/>
    <rect x="27" y="50" width="2" height="3" fill="#53ebe4" opacity="0.8"/>
    <rect x="26" y="64" width="2" height="3" fill="#53ebe4" opacity="0.35"/>
    <rect x="30" y="78" width="2" height="3" fill="#53ebe4" opacity="0.35"/>
    <rect x="29" y="92" width="2" height="3" fill="#53ebe4" opacity="0.8"/>
    <rect x="38" y="56" width="24" height="46" fill="#03274c" opacity="0.95"/>
    <rect x="60" y="48" width="2" height="8" fill="#53ebe4" opacity="0.55"/>
    <rect x="57" y="64" width="2" height="3" fill="#53ebe4" opacity="0.8"/>
    <rect x="54" y="78" width="2" height="3" fill="#53ebe4" opacity="0.35"/>
    <rect x="51" y="92" width="2" height="3" fill="#53ebe4" opacity="0.35"/>
    <rect x="66" y="44" width="16" height="58" fill="#03274c" opacity="0.95"/>
    <rect x="71" y="52" width="2" height="3" fill="#53ebe4" opacity="0.35"/>
    <rect x="76" y="66" width="2" height="3" fill="#53ebe4" opacity="0.8"/>
    <rect x="72" y="80" width="2" height="3" fill="#53ebe4" opacity="0.35"/>
    <rect x="77" y="94" width="2" height="3" fill="#53ebe4" opacity="0.35"/>
    <rect x="86" y="20" width="26" height="82" fill="#03274c" opacity="0.95"/>
    <rect x="110" y="12" width="2" height="8" fill="#53ebe4" opacity="0.55"/>
    <rect x="103" y="28" width="2" height="3" fill="#53ebe4" opacity="0.35"/>
    <rect x="98" y="42" width="2" height="3" fill="#53ebe4" opacity="0.35"/>
    <rect x="93" y="56" width="2" height="3" fill="#53ebe4" opacity="0.8"/>
    <rect x="107" y="70" width="2" height="3" fill="#53ebe4" opacity="0.35"/>
    <rect x="102" y="84" width="2" height="3" fill="#53ebe4" opacity="0.35"/>
    <rect x="116" y="62" width="14" height="40" fill="#03274c" opacity="0.95"/>
    <rect x="125" y="70" width="2" height="3" fill="#53ebe4" opacity="0.8"/>
    <rect x="125" y="84" width="2" height="3" fill="#53ebe4" opacity="0.35"/>
    <rect x="134" y="36" width="21" height="66" fill="#03274c" opacity="0.95"/>
    <rect x="153" y="28" width="2" height="8" fill="#53ebe4" opacity="0.55"/>
    <rect x="146" y="44" width="2" height="3" fill="#53ebe4" opacity="0.35"/>
    <rect x="146" y="58" width="2" height="3" fill="#53ebe4" opacity="0.35"/>
    <rect x="146" y="72" width="2" height="3" fill="#53ebe4" opacity="0.8"/>
    <rect x="146" y="86" width="2" height="3" fill="#53ebe4" opacity="0.35"/>
    <rect x="159" y="48" width="11" height="54" fill="#03274c" opacity="0.95"/>
    <rect x="166" y="56" width="2" height="3" fill="#53ebe4" opacity="0.8"/>
    <rect x="164" y="70" width="2" height="3" fill="#53ebe4" opacity="0.35"/>
    <rect x="166" y="84" width="2" height="3" fill="#53ebe4" opacity="0.35"/>
    <rect x="126" y="52" width="68" height="82" fill="#7c4dff" opacity="0.82"/>
    <rect x="136" y="62" width="48" height="10" fill="#53ebe4" opacity="0.72"/>
    <rect x="142" y="76" width="8" height="10" fill="#050915"/>
    <rect x="170" y="76" width="8" height="10" fill="#050915"/>
    <rect x="154" y="78" width="12" height="36" fill="#e13a6a"/>
    <rect x="146" y="114" width="32" height="5" fill="#53ebe4"/>
    <rect x="150" y="124" width="24" height="4" fill="#eca6c0"/>
    <rect x="112" y="134" width="96" height="8" fill="#050915"/>
    <rect x="96" y="142" width="128" height="6" fill="#0f9595"/>
    <rect x="0" y="148" width="320" height="2" fill="#e13a6a" opacity="0.8"/>
    <rect x="0" y="160" width="320" height="2" fill="#c1115a" opacity="0.55"/>
    <line x1="0" y1="148" x2="320" y2="148" stroke="#e13a6a" stroke-width="1" opacity="0.34"/>
    <line x1="0" y1="156" x2="320" y2="156" stroke="#e13a6a" stroke-width="1" opacity="0.34"/>
    <line x1="0" y1="165" x2="320" y2="165" stroke="#e13a6a" stroke-width="1" opacity="0.34"/>
    <line x1="0" y1="174" x2="320" y2="174" stroke="#e13a6a" stroke-width="1" opacity="0.34"/>
    <line x1="160" y1="148" x2="-160" y2="180" stroke="#e13a6a" stroke-width="1" opacity="0.28"/>
    <line x1="160" y1="148" x2="-128" y2="180" stroke="#e13a6a" stroke-width="1" opacity="0.28"/>
    <line x1="160" y1="148" x2="-96" y2="180" stroke="#e13a6a" stroke-width="1" opacity="0.28"/>
    <line x1="160" y1="148" x2="-64" y2="180" stroke="#e13a6a" stroke-width="1" opacity="0.28"/>
    <line x1="160" y1="148" x2="-32" y2="180" stroke="#e13a6a" stroke-width="1" opacity="0.28"/>
    <line x1="160" y1="148" x2="0" y2="180" stroke="#e13a6a" stroke-width="1" opacity="0.28"/>
    <line x1="160" y1="148" x2="32" y2="180" stroke="#e13a6a" stroke-width="1" opacity="0.28"/>
    <line x1="160" y1="148" x2="64" y2="180" stroke="#e13a6a" stroke-width="1" opacity="0.28"/>
    <line x1="160" y1="148" x2="96" y2="180" stroke="#e13a6a" stroke-width="1" opacity="0.28"/>
    <line x1="160" y1="148" x2="128" y2="180" stroke="#e13a6a" stroke-width="1" opacity="0.28"/>
    <line x1="160" y1="148" x2="160" y2="180" stroke="#e13a6a" stroke-width="1" opacity="0.28"/>
    <line x1="160" y1="148" x2="192" y2="180" stroke="#e13a6a" stroke-width="1" opacity="0.28"/>
    <line x1="160" y1="148" x2="224" y2="180" stroke="#e13a6a" stroke-width="1" opacity="0.28"/>
    <line x1="160" y1="148" x2="256" y2="180" stroke="#e13a6a" stroke-width="1" opacity="0.28"/>
    <line x1="160" y1="148" x2="288" y2="180" stroke="#e13a6a" stroke-width="1" opacity="0.28"/>
    <line x1="160" y1="148" x2="320" y2="180" stroke="#e13a6a" stroke-width="1" opacity="0.28"/>
    <line x1="160" y1="148" x2="352" y2="180" stroke="#e13a6a" stroke-width="1" opacity="0.28"/>
    <line x1="160" y1="148" x2="384" y2="180" stroke="#e13a6a" stroke-width="1" opacity="0.28"/>
    <line x1="160" y1="148" x2="416" y2="180" stroke="#e13a6a" stroke-width="1" opacity="0.28"/>
    <line x1="160" y1="148" x2="448" y2="180" stroke="#e13a6a" stroke-width="1" opacity="0.28"/>
    <line x1="160" y1="148" x2="480" y2="180" stroke="#e13a6a" stroke-width="1" opacity="0.28"/>
  </g>
</svg>
