<?xml version="1.0" encoding="UTF-8"?>
<!-- Neon Alley — kofun-friends cyberpunk background study -->
<svg xmlns="http://www.w3.org/2000/svg" viewBox="0 0 320 180" width="320" height="180" role="img" aria-label="Neon Alley">
  <g shape-rendering="crispEdges">
    <rect x="0" y="0" width="320" height="180" fill="#0b001b"/>
    <rect x="0" y="0" width="320" height="84" fill="#08173d" opacity="0.72"/>
    <rect x="0" y="80" width="320" height="56" fill="#03274c" opacity="0.48"/>
    <rect x="0" y="136" width="320" height="44" fill="#050915"/>
    <rect x="31" y="27" width="1" height="1" fill="#e13a6a" opacity="0.75"/>
    <rect x="78" y="50" width="1" height="1" fill="#53ebe4" opacity="0.45"/>
    <rect x="125" y="73" width="1" height="1" fill="#53ebe4" opacity="0.45"/>
    <rect x="172" y="18" width="1" height="1" fill="#53ebe4" opacity="0.75"/>
    <rect x="219" y="41" width="1" height="1" fill="#53ebe4" opacity="0.45"/>
    <rect x="266" y="64" width="1" height="1" fill="#e13a6a" opacity="0.45"/>
    <rect x="313" y="9" width="1" height="1" fill="#53ebe4" opacity="0.75"/>
    <rect x="40" y="32" width="1" height="1" fill="#53ebe4" opacity="0.45"/>
    <rect x="87" y="55" width="1" height="1" fill="#53ebe4" opacity="0.45"/>
    <rect x="134" y="78" width="1" height="1" fill="#53ebe4" opacity="0.75"/>
    <rect x="181" y="23" width="1" height="1" fill="#e13a6a" opacity="0.45"/>
    <rect x="228" y="46" width="1" height="1" fill="#53ebe4" opacity="0.45"/>
    <rect x="275" y="69" width="1" height="1" fill="#53ebe4" opacity="0.75"/>
    <rect x="2" y="14" width="1" height="1" fill="#53ebe4" opacity="0.45"/>
    <rect x="49" y="37" width="1" height="1" fill="#53ebe4" opacity="0.45"/>
    <rect x="96" y="60" width="1" height="1" fill="#e13a6a" opacity="0.75"/>
    <rect x="143" y="83" width="1" height="1" fill="#53ebe4" opacity="0.45"/>
    <rect x="190" y="28" width="1" height="1" fill="#53ebe4" opacity="0.45"/>
    <rect x="237" y="51" width="1" height="1" fill="#53ebe4" opacity="0.75"/>
    <rect x="284" y="74" width="1" height="1" fill="#53ebe4" opacity="0.45"/>
    <rect x="11" y="19" width="1" height="1" fill="#e13a6a" opacity="0.45"/>
    <rect x="58" y="42" width="1" height="1" fill="#53ebe4" opacity="0.75"/>
    <rect x="105" y="65" width="1" height="1" fill="#53ebe4" opacity="0.45"/>
    <rect x="152" y="10" width="1" height="1" fill="#53ebe4" opacity="0.45"/>
    <rect x="199" y="33" width="1" height="1" fill="#53ebe4" opacity="0.75"/>
    <rect x="246" y="56" width="1" height="1" fill="#e13a6a" opacity="0.45"/>
    <rect x="293" y="79" width="1" height="1" fill="#53ebe4" opacity="0.45"/>
    <rect x="20" y="24" width="1" height="1" fill="#53ebe4" opacity="0.75"/>
    <rect x="67" y="47" width="1" height="1" fill="#53ebe4" opacity="0.45"/>
    <rect x="114" y="70" width="1" height="1" fill="#53ebe4" opacity="0.45"/>
    <rect x="161" y="15" width="1" height="1" fill="#e13a6a" opacity="0.75"/>
    <rect x="208" y="38" width="1" height="1" fill="#53ebe4" opacity="0.45"/>
    <rect x="255" y="61" width="1" height="1" fill="#53ebe4" opacity="0.45"/>
    <rect x="302" y="84" width="1" height="1" fill="#53ebe4" opacity="0.75"/>
    <rect x="0" y="0" width="320" height="1" fill="#000000" opacity="0.16"/>
    <rect x="0" y="4" width="320" height="1" fill="#000000" opacity="0.16"/>
    <rect x="0" y="8" width="320" height="1" fill="#000000" opacity="0.16"/>
    <rect x="0" y="12" width="320" height="1" fill="#000000" opacity="0.16"/>
    <rect x="0" y="16" width="320" height="1" fill="#000000" opacity="0.16"/>
    <rect x="0" y="20" width="320" height="1" fill="#000000" opacity="0.16"/>
    <rect x="0" y="24" width="320" height="1" fill="#000000" opacity="0.16"/>
    <rect x="0" y="28" width="320" height="1" fill="#000000" opacity="0.16"/>
    <rect x="0" y="32" width="320" height="1" fill="#000000" opacity="0.16"/>
    <rect x="0" y="36" width="320" height="1" fill="#000000" opacity="0.16"/>
    <rect x="0" y="40" width="320" height="1" fill="#000000" opacity="0.16"/>
    <rect x="0" y="44" width="320" height="1" fill="#000000" opacity="0.16"/>
    <rect x="0" y="48" width="320" height="1" fill="#000000" opacity="0.16"/>
    <rect x="0" y="52" width="320" height="1" fill="#000000" opacity="0.16"/>
    <rect x="0" y="56" width="320" height="1" fill="#000000" opacity="0.16"/>
    <rect x="0" y="60" width="320" height="1" fill="#000000" opacity="0.16"/>
    <rect x="0" y="64" width="320" height="1" fill="#000000" opacity="0.16"/>
    <rect x="0" y="68" width="320" height="1" fill="#000000" opacity="0.16"/>
    <rect x="0" y="72" width="320" height="1" fill="#000000" opacity="0.16"/>
    <rect x="0" y="76" width="320" height="1" fill="#000000" opacity="0.16"/>
    <rect x="0" y="80" width="320" height="1" fill="#000000" opacity="0.16"/>
    <rect x="0" y="84" width="320" height="1" fill="#000000" opacity="0.16"/>
    <rect x="0" y="88" width="320" height="1" fill="#000000" opacity="0.16"/>
    <rect x="0" y="92" width="320" height="1" fill="#000000" opacity="0.16"/>
    <rect x="0" y="96" width="320" height="1" fill="#000000" opacity="0.16"/>
    <rect x="0" y="100" width="320" height="1" fill="#000000" opacity="0.16"/>
    <rect x="0" y="104" width="320" height="1" fill="#000000" opacity="0.16"/>
    <rect x="0" y="108" width="320" height="1" fill="#000000" opacity="0.16"/>
    <rect x="0" y="112" width="320" height="1" fill="#000000" opacity="0.16"/>
    <rect x="0" y="116" width="320" height="1" fill="#000000" opacity="0.16"/>
    <rect x="0" y="120" width="320" height="1" fill="#000000" opacity="0.16"/>
    <rect x="0" y="124" width="320" height="1" fill="#000000" opacity="0.16"/>
    <rect x="0" y="128" width="320" height="1" fill="#000000" opacity="0.16"/>
    <rect x="0" y="132" width="320" height="1" fill="#000000" opacity="0.16"/>
    <rect x="0" y="136" width="320" height="1" fill="#000000" opacity="0.16"/>
    <rect x="0" y="140" width="320" height="1" fill="#000000" opacity="0.16"/>
    <rect x="0" y="144" width="320" height="1" fill="#000000" opacity="0.16"/>
    <rect x="0" y="148" width="320" height="1" fill="#000000" opacity="0.16"/>
    <rect x="0" y="152" width="320" height="1" fill="#000000" opacity="0.16"/>
    <rect x="0" y="156" width="320" height="1" fill="#000000" opacity="0.16"/>
    <rect x="0" y="160" width="320" height="1" fill="#000000" opacity="0.16"/>
    <rect x="0" y="164" width="320" height="1" fill="#000000" opacity="0.16"/>
    <rect x="0" y="168" width="320" height="1" fill="#000000" opacity="0.16"/>
    <rect x="0" y="172" width="320" height="1" fill="#000000" opacity="0.16"/>
    <rect x="0" y="176" width="320" height="1" fill="#000000" opacity="0.16"/>
    <rect x="0" y="50" width="18" height="54" fill="#4d004f" opacity="0.95"/>
    <rect x="16" y="42" width="2" height="8" fill="#e13a6a" opacity="0.55"/>
    <rect x="7" y="58" width="2" height="3" fill="#e13a6a" opacity="0.35"/>
    <rect x="10" y="72" width="2" height="3" fill="#e13a6a" opacity="0.8"/>
    <rect x="13" y="86" width="2" height="3" fill="#e13a6a" opacity="0.35"/>
    <rect x="22" y="32" width="12" height="72" fill="#4d004f" opacity="0.95"/>
    <rect x="27" y="40" width="2" height="3" fill="#e13a6a" opacity="0.35"/>
    <rect x="26" y="54" width="2" height="3" fill="#e13a6a" opacity="0.35"/>
    <rect x="30" y="68" width="2" height="3" fill="#e13a6a" opacity="0.8"/>
    <rect x="29" y="82" width="2" height="3" fill="#e13a6a" opacity="0.35"/>
    <rect x="28" y="96" width="2" height="3" fill="#e13a6a" opacity="0.35"/>
    <rect x="38" y="60" width="24" height="44" fill="#4d004f" opacity="0.95"/>
    <rect x="60" y="52" width="2" height="8" fill="#e13a6a" opacity="0.55"/>
    <rect x="44" y="68" width="2" height="3" fill="#e13a6a" opacity="0.35"/>
    <rect x="58" y="82" width="2" height="3" fill="#e13a6a" opacity="0.8"/>
    <rect x="55" y="96" width="2" height="3" fill="#e13a6a" opacity="0.35"/>
    <rect x="66" y="42" width="16" height="62" fill="#4d004f" opacity="0.95"/>
    <rect x="78" y="50" width="2" height="3" fill="#e13a6a" opacity="0.35"/>
    <rect x="74" y="64" width="2" height="3" fill="#e13a6a" opacity="0.35"/>
    <rect x="70" y="78" width="2" height="3" fill="#e13a6a" opacity="0.8"/>
    <rect x="75" y="92" width="2" height="3" fill="#e13a6a" opacity="0.35"/>
    <rect x="86" y="20" width="26" height="84" fill="#4d004f" opacity="0.95"/>
    <rect x="110" y="12" width="2" height="8" fill="#e13a6a" opacity="0.55"/>
    <rect x="103" y="28" width="2" height="3" fill="#e13a6a" opacity="0.35"/>
    <rect x="98" y="42" width="2" height="3" fill="#e13a6a" opacity="0.35"/>
    <rect x="93" y="56" width="2" height="3" fill="#e13a6a" opacity="0.8"/>
    <rect x="107" y="70" width="2" height="3" fill="#e13a6a" opacity="0.35"/>
    <rect x="102" y="84" width="2" height="3" fill="#e13a6a" opacity="0.35"/>
    <rect x="97" y="98" width="2" height="3" fill="#e13a6a" opacity="0.8"/>
    <rect x="116" y="66" width="14" height="38" fill="#4d004f" opacity="0.95"/>
    <rect x="122" y="74" width="2" height="3" fill="#e13a6a" opacity="0.35"/>
    <rect x="122" y="88" width="2" height="3" fill="#e13a6a" opacity="0.8"/>
    <rect x="134" y="36" width="21" height="68" fill="#4d004f" opacity="0.95"/>
    <rect x="153" y="28" width="2" height="8" fill="#e13a6a" opacity="0.55"/>
    <rect x="146" y="44" width="2" height="3" fill="#e13a6a" opacity="0.35"/>
    <rect x="146" y="58" width="2" height="3" fill="#e13a6a" opacity="0.35"/>
    <rect x="146" y="72" width="2" height="3" fill="#e13a6a" opacity="0.8"/>
    <rect x="146" y="86" width="2" height="3" fill="#e13a6a" opacity="0.35"/>
    <rect x="159" y="49" width="11" height="55" fill="#4d004f" opacity="0.95"/>
    <rect x="163" y="57" width="2" height="3" fill="#e13a6a" opacity="0.35"/>
    <rect x="165" y="71" width="2" height="3" fill="#e13a6a" opacity="0.8"/>
    <rect x="163" y="85" width="2" height="3" fill="#e13a6a" opacity="0.35"/>
    <rect x="165" y="99" width="2" height="3" fill="#e13a6a" opacity="0.35"/>
    <rect x="174" y="28" width="19" height="76" fill="#4d004f" opacity="0.95"/>
    <rect x="191" y="20" width="2" height="8" fill="#e13a6a" opacity="0.55"/>
    <rect x="186" y="36" width="2" height="3" fill="#e13a6a" opacity="0.35"/>
    <rect x="188" y="50" width="2" height="3" fill="#e13a6a" opacity="0.35"/>
    <rect x="178" y="64" width="2" height="3" fill="#e13a6a" opacity="0.8"/>
    <rect x="180" y="78" width="2" height="3" fill="#e13a6a" opacity="0.35"/>
    <rect x="182" y="92" width="2" height="3" fill="#e13a6a" opacity="0.35"/>
    <polygon points="0,42 58,24 58,150 0,180" fill="#050915" opacity="0.82"/>
    <polygon points="320,28 258,42 258,152 320,180" fill="#03274c" opacity="0.9"/>
    <rect x="14" y="58" width="22" height="70" fill="#c1115a" opacity="0.9"/>
    <rect x="14" y="58" width="22" height="2" fill="#53ebe4"/>
    <rect x="14" y="126" width="22" height="2" fill="#53ebe4"/>
    <rect x="18" y="63" width="4" height="60" fill="#53ebe4" opacity="0.78"/>
    <rect x="26" y="63" width="4" height="60" fill="#53ebe4" opacity="0.78"/>
    <rect x="268" y="52" width="30" height="58" fill="#0f9595" opacity="0.9"/>
    <rect x="268" y="52" width="30" height="2" fill="#c8ff2b"/>
    <rect x="268" y="108" width="30" height="2" fill="#c8ff2b"/>
    <rect x="272" y="57" width="4" height="48" fill="#c8ff2b" opacity="0.78"/>
    <rect x="280" y="57" width="4" height="48" fill="#c8ff2b" opacity="0.78"/>
    <rect x="288" y="57" width="4" height="48" fill="#c8ff2b" opacity="0.78"/>
    <rect x="86" y="118" width="146" height="16" fill="#7c4dff" opacity="0.28"/>
    <rect x="0" y="136" width="320" height="2" fill="#53ebe4" opacity="0.8"/>
    <rect x="0" y="160" width="320" height="2" fill="#c1115a" opacity="0.55"/>
    <line x1="0" y1="148" x2="320" y2="148" stroke="#53ebe4" stroke-width="1" opacity="0.34"/>
    <line x1="0" y1="156" x2="320" y2="156" stroke="#53ebe4" stroke-width="1" opacity="0.34"/>
    <line x1="0" y1="165" x2="320" y2="165" stroke="#53ebe4" stroke-width="1" opacity="0.34"/>
    <line x1="0" y1="174" x2="320" y2="174" stroke="#53ebe4" stroke-width="1" opacity="0.34"/>
    <line x1="160" y1="136" x2="-160" y2="180" stroke="#53ebe4" stroke-width="1" opacity="0.28"/>
    <line x1="160" y1="136" x2="-128" y2="180" stroke="#53ebe4" stroke-width="1" opacity="0.28"/>
    <line x1="160" y1="136" x2="-96" y2="180" stroke="#53ebe4" stroke-width="1" opacity="0.28"/>
    <line x1="160" y1="136" x2="-64" y2="180" stroke="#53ebe4" stroke-width="1" opacity="0.28"/>
    <line x1="160" y1="136" x2="-32" y2="180" stroke="#53ebe4" stroke-width="1" opacity="0.28"/>
    <line x1="160" y1="136" x2="0" y2="180" stroke="#53ebe4" stroke-width="1" opacity="0.28"/>
    <line x1="160" y1="136" x2="32" y2="180" stroke="#53ebe4" stroke-width="1" opacity="0.28"/>
    <line x1="160" y1="136" x2="64" y2="180" stroke="#53ebe4" stroke-width="1" opacity="0.28"/>
    <line x1="160" y1="136" x2="96" y2="180" stroke="#53ebe4" stroke-width="1" opacity="0.28"/>
    <line x1="160" y1="136" x2="128" y2="180" stroke="#53ebe4" stroke-width="1" opacity="0.28"/>
    <line x1="160" y1="136" x2="160" y2="180" stroke="#53ebe4" stroke-width="1" opacity="0.28"/>
    <line x1="160" y1="136" x2="192" y2="180" stroke="#53ebe4" stroke-width="1" opacity="0.28"/>
    <line x1="160" y1="136" x2="224" y2="180" stroke="#53ebe4" stroke-width="1" opacity="0.28"/>
    <line x1="160" y1="136" x2="256" y2="180" stroke="#53ebe4" stroke-width="1" opacity="0.28"/>
    <line x1="160" y1="136" x2="288" y2="180" stroke="#53ebe4" stroke-width="1" opacity="0.28"/>
    <line x1="160" y1="136" x2="320" y2="180" stroke="#53ebe4" stroke-width="1" opacity="0.28"/>
    <line x1="160" y1="136" x2="352" y2="180" stroke="#53ebe4" stroke-width="1" opacity="0.28"/>
    <line x1="160" y1="136" x2="384" y2="180" stroke="#53ebe4" stroke-width="1" opacity="0.28"/>
    <line x1="160" y1="136" x2="416" y2="180" stroke="#53ebe4" stroke-width="1" opacity="0.28"/>
    <line x1="160" y1="136" x2="448" y2="180" stroke="#53ebe4" stroke-width="1" opacity="0.28"/>
    <line x1="160" y1="136" x2="480" y2="180" stroke="#53ebe4" stroke-width="1" opacity="0.28"/>
  </g>
</svg>
