<?xml version="1.0" encoding="UTF-8"?>
<!-- Rain Skyline — kofun-friends cyberpunk background study -->
<svg xmlns="http://www.w3.org/2000/svg" viewBox="0 0 320 180" width="320" height="180" role="img" aria-label="Rain Skyline">
  <g shape-rendering="crispEdges">
    <rect x="0" y="0" width="320" height="180" fill="#0a0a14"/>
    <rect x="0" y="0" width="320" height="84" fill="#12101e" opacity="0.72"/>
    <rect x="0" y="80" width="320" height="48" fill="#0d2240" opacity="0.48"/>
    <rect x="0" y="128" width="320" height="52" fill="#0a0a14"/>
    <rect x="62" y="46" width="1" height="1" fill="#ff0090" opacity="0.75"/>
    <rect x="109" y="69" width="1" height="1" fill="#00ffff" opacity="0.45"/>
    <rect x="156" y="14" width="1" height="1" fill="#00ffff" opacity="0.45"/>
    <rect x="203" y="37" width="1" height="1" fill="#00ffff" opacity="0.75"/>
    <rect x="250" y="60" width="1" height="1" fill="#00ffff" opacity="0.45"/>
    <rect x="297" y="83" width="1" height="1" fill="#ff0090" opacity="0.45"/>
    <rect x="24" y="28" width="1" height="1" fill="#00ffff" opacity="0.75"/>
    <rect x="71" y="51" width="1" height="1" fill="#00ffff" opacity="0.45"/>
    <rect x="118" y="74" width="1" height="1" fill="#00ffff" opacity="0.45"/>
    <rect x="165" y="19" width="1" height="1" fill="#00ffff" opacity="0.75"/>
    <rect x="212" y="42" width="1" height="1" fill="#ff0090" opacity="0.45"/>
    <rect x="259" y="65" width="1" height="1" fill="#00ffff" opacity="0.45"/>
    <rect x="306" y="10" width="1" height="1" fill="#00ffff" opacity="0.75"/>
    <rect x="33" y="33" width="1" height="1" fill="#00ffff" opacity="0.45"/>
    <rect x="80" y="56" width="1" height="1" fill="#00ffff" opacity="0.45"/>
    <rect x="127" y="79" width="1" height="1" fill="#ff0090" opacity="0.75"/>
    <rect x="174" y="24" width="1" height="1" fill="#00ffff" opacity="0.45"/>
    <rect x="221" y="47" width="1" height="1" fill="#00ffff" opacity="0.45"/>
    <rect x="268" y="70" width="1" height="1" fill="#00ffff" opacity="0.75"/>
    <rect x="315" y="15" width="1" height="1" fill="#00ffff" opacity="0.45"/>
    <rect x="42" y="38" width="1" height="1" fill="#ff0090" opacity="0.45"/>
    <rect x="89" y="61" width="1" height="1" fill="#00ffff" opacity="0.75"/>
    <rect x="136" y="84" width="1" height="1" fill="#00ffff" opacity="0.45"/>
    <rect x="183" y="29" width="1" height="1" fill="#00ffff" opacity="0.45"/>
    <rect x="230" y="52" width="1" height="1" fill="#00ffff" opacity="0.75"/>
    <rect x="277" y="75" width="1" height="1" fill="#ff0090" opacity="0.45"/>
    <rect x="4" y="20" width="1" height="1" fill="#00ffff" opacity="0.45"/>
    <rect x="51" y="43" width="1" height="1" fill="#00ffff" opacity="0.75"/>
    <rect x="98" y="66" width="1" height="1" fill="#00ffff" opacity="0.45"/>
    <rect x="145" y="11" width="1" height="1" fill="#00ffff" opacity="0.45"/>
    <rect x="192" y="34" width="1" height="1" fill="#ff0090" opacity="0.75"/>
    <rect x="239" y="57" width="1" height="1" fill="#00ffff" opacity="0.45"/>
    <rect x="286" y="80" width="1" height="1" fill="#00ffff" opacity="0.45"/>
    <rect x="13" y="25" width="1" height="1" fill="#00ffff" opacity="0.75"/>
    <rect x="0" y="0" width="320" height="1" fill="#000000" opacity="0.16"/>
    <rect x="0" y="4" width="320" height="1" fill="#000000" opacity="0.16"/>
    <rect x="0" y="8" width="320" height="1" fill="#000000" opacity="0.16"/>
    <rect x="0" y="12" width="320" height="1" fill="#000000" opacity="0.16"/>
    <rect x="0" y="16" width="320" height="1" fill="#000000" opacity="0.16"/>
    <rect x="0" y="20" width="320" height="1" fill="#000000" opacity="0.16"/>
    <rect x="0" y="24" width="320" height="1" fill="#000000" opacity="0.16"/>
    <rect x="0" y="28" width="320" height="1" fill="#000000" opacity="0.16"/>
    <rect x="0" y="32" width="320" height="1" fill="#000000" opacity="0.16"/>
    <rect x="0" y="36" width="320" height="1" fill="#000000" opacity="0.16"/>
    <rect x="0" y="40" width="320" height="1" fill="#000000" opacity="0.16"/>
    <rect x="0" y="44" width="320" height="1" fill="#000000" opacity="0.16"/>
    <rect x="0" y="48" width="320" height="1" fill="#000000" opacity="0.16"/>
    <rect x="0" y="52" width="320" height="1" fill="#000000" opacity="0.16"/>
    <rect x="0" y="56" width="320" height="1" fill="#000000" opacity="0.16"/>
    <rect x="0" y="60" width="320" height="1" fill="#000000" opacity="0.16"/>
    <rect x="0" y="64" width="320" height="1" fill="#000000" opacity="0.16"/>
    <rect x="0" y="68" width="320" height="1" fill="#000000" opacity="0.16"/>
    <rect x="0" y="72" width="320" height="1" fill="#000000" opacity="0.16"/>
    <rect x="0" y="76" width="320" height="1" fill="#000000" opacity="0.16"/>
    <rect x="0" y="80" width="320" height="1" fill="#000000" opacity="0.16"/>
    <rect x="0" y="84" width="320" height="1" fill="#000000" opacity="0.16"/>
    <rect x="0" y="88" width="320" height="1" fill="#000000" opacity="0.16"/>
    <rect x="0" y="92" width="320" height="1" fill="#000000" opacity="0.16"/>
    <rect x="0" y="96" width="320" height="1" fill="#000000" opacity="0.16"/>
    <rect x="0" y="100" width="320" height="1" fill="#000000" opacity="0.16"/>
    <rect x="0" y="104" width="320" height="1" fill="#000000" opacity="0.16"/>
    <rect x="0" y="108" width="320" height="1" fill="#000000" opacity="0.16"/>
    <rect x="0" y="112" width="320" height="1" fill="#000000" opacity="0.16"/>
    <rect x="0" y="116" width="320" height="1" fill="#000000" opacity="0.16"/>
    <rect x="0" y="120" width="320" height="1" fill="#000000" opacity="0.16"/>
    <rect x="0" y="124" width="320" height="1" fill="#000000" opacity="0.16"/>
    <rect x="0" y="128" width="320" height="1" fill="#000000" opacity="0.16"/>
    <rect x="0" y="132" width="320" height="1" fill="#000000" opacity="0.16"/>
    <rect x="0" y="136" width="320" height="1" fill="#000000" opacity="0.16"/>
    <rect x="0" y="140" width="320" height="1" fill="#000000" opacity="0.16"/>
    <rect x="0" y="144" width="320" height="1" fill="#000000" opacity="0.16"/>
    <rect x="0" y="148" width="320" height="1" fill="#000000" opacity="0.16"/>
    <rect x="0" y="152" width="320" height="1" fill="#000000" opacity="0.16"/>
    <rect x="0" y="156" width="320" height="1" fill="#000000" opacity="0.16"/>
    <rect x="0" y="160" width="320" height="1" fill="#000000" opacity="0.16"/>
    <rect x="0" y="164" width="320" height="1" fill="#000000" opacity="0.16"/>
    <rect x="0" y="168" width="320" height="1" fill="#000000" opacity="0.16"/>
    <rect x="0" y="172" width="320" height="1" fill="#000000" opacity="0.16"/>
    <rect x="0" y="176" width="320" height="1" fill="#000000" opacity="0.16"/>
    <rect x="0" y="90" width="18" height="28" fill="#0d2240" opacity="0.95"/>
    <rect x="16" y="82" width="2" height="8" fill="#00ffff" opacity="0.55"/>
    <rect x="14" y="98" width="2" height="3" fill="#00ffff" opacity="0.35"/>
    <rect x="6" y="112" width="2" height="3" fill="#00ffff" opacity="0.35"/>
    <rect x="22" y="70" width="12" height="48" fill="#0d2240" opacity="0.95"/>
    <rect x="30" y="78" width="2" height="3" fill="#00ffff" opacity="0.35"/>
    <rect x="29" y="92" width="2" height="3" fill="#00ffff" opacity="0.8"/>
    <rect x="28" y="106" width="2" height="3" fill="#00ffff" opacity="0.35"/>
    <rect x="38" y="44" width="24" height="74" fill="#0d2240" opacity="0.95"/>
    <rect x="60" y="36" width="2" height="8" fill="#00ffff" opacity="0.55"/>
    <rect x="45" y="52" width="2" height="3" fill="#00ffff" opacity="0.8"/>
    <rect x="42" y="66" width="2" height="3" fill="#00ffff" opacity="0.35"/>
    <rect x="56" y="80" width="2" height="3" fill="#00ffff" opacity="0.35"/>
    <rect x="53" y="94" width="2" height="3" fill="#00ffff" opacity="0.8"/>
    <rect x="50" y="108" width="2" height="3" fill="#00ffff" opacity="0.35"/>
    <rect x="66" y="79" width="16" height="39" fill="#0d2240" opacity="0.95"/>
    <rect x="70" y="87" width="2" height="3" fill="#00ffff" opacity="0.8"/>
    <rect x="75" y="101" width="2" height="3" fill="#00ffff" opacity="0.35"/>
    <rect x="86" y="58" width="26" height="60" fill="#0d2240" opacity="0.95"/>
    <rect x="110" y="50" width="2" height="8" fill="#00ffff" opacity="0.55"/>
    <rect x="103" y="66" width="2" height="3" fill="#00ffff" opacity="0.35"/>
    <rect x="98" y="80" width="2" height="3" fill="#00ffff" opacity="0.8"/>
    <rect x="93" y="94" width="2" height="3" fill="#00ffff" opacity="0.35"/>
    <rect x="107" y="108" width="2" height="3" fill="#00ffff" opacity="0.35"/>
    <rect x="116" y="28" width="14" height="90" fill="#0d2240" opacity="0.95"/>
    <rect x="126" y="36" width="2" height="3" fill="#00ffff" opacity="0.35"/>
    <rect x="126" y="50" width="2" height="3" fill="#00ffff" opacity="0.35"/>
    <rect x="126" y="64" width="2" height="3" fill="#00ffff" opacity="0.8"/>
    <rect x="126" y="78" width="2" height="3" fill="#00ffff" opacity="0.35"/>
    <rect x="126" y="92" width="2" height="3" fill="#00ffff" opacity="0.35"/>
    <rect x="126" y="106" width="2" height="3" fill="#00ffff" opacity="0.8"/>
    <rect x="134" y="74" width="21" height="44" fill="#0d2240" opacity="0.95"/>
    <rect x="153" y="66" width="2" height="8" fill="#00ffff" opacity="0.55"/>
    <rect x="142" y="82" width="2" height="3" fill="#00ffff" opacity="0.35"/>
    <rect x="142" y="96" width="2" height="3" fill="#00ffff" opacity="0.8"/>
    <rect x="142" y="110" width="2" height="3" fill="#00ffff" opacity="0.35"/>
    <rect x="159" y="52" width="11" height="66" fill="#0d2240" opacity="0.95"/>
    <rect x="166" y="60" width="2" height="3" fill="#00ffff" opacity="0.35"/>
    <rect x="164" y="74" width="2" height="3" fill="#00ffff" opacity="0.8"/>
    <rect x="166" y="88" width="2" height="3" fill="#00ffff" opacity="0.35"/>
    <rect x="164" y="102" width="2" height="3" fill="#00ffff" opacity="0.35"/>
    <rect x="174" y="84" width="19" height="34" fill="#0d2240" opacity="0.95"/>
    <rect x="191" y="76" width="2" height="8" fill="#00ffff" opacity="0.55"/>
    <rect x="182" y="92" width="2" height="3" fill="#00ffff" opacity="0.35"/>
    <rect x="184" y="106" width="2" height="3" fill="#00ffff" opacity="0.8"/>
    <rect x="197" y="60" width="28" height="58" fill="#0d2240" opacity="0.95"/>
    <rect x="215" y="68" width="2" height="3" fill="#00ffff" opacity="0.35"/>
    <rect x="208" y="82" width="2" height="3" fill="#00ffff" opacity="0.35"/>
    <rect x="201" y="96" width="2" height="3" fill="#00ffff" opacity="0.8"/>
    <rect x="215" y="110" width="2" height="3" fill="#00ffff" opacity="0.35"/>
    <rect x="229" y="36" width="13" height="82" fill="#0d2240" opacity="0.95"/>
    <rect x="240" y="28" width="2" height="8" fill="#00ffff" opacity="0.55"/>
    <rect x="233" y="44" width="2" height="3" fill="#00ffff" opacity="0.8"/>
    <rect x="235" y="58" width="2" height="3" fill="#00ffff" opacity="0.35"/>
    <rect x="237" y="72" width="2" height="3" fill="#00ffff" opacity="0.35"/>
    <rect x="233" y="86" width="2" height="3" fill="#00ffff" opacity="0.8"/>
    <rect x="235" y="100" width="2" height="3" fill="#00ffff" opacity="0.35"/>
    <rect x="0" y="86" width="18" height="46" fill="#1c1830" opacity="0.95"/>
    <rect x="16" y="78" width="2" height="8" fill="#ff0090" opacity="0.55"/>
    <rect x="10" y="94" width="2" height="3" fill="#ff0090" opacity="0.35"/>
    <rect x="13" y="108" width="2" height="3" fill="#ff0090" opacity="0.8"/>
    <rect x="5" y="122" width="2" height="3" fill="#ff0090" opacity="0.35"/>
    <rect x="22" y="100" width="12" height="32" fill="#1c1830" opacity="0.95"/>
    <rect x="30" y="108" width="2" height="3" fill="#ff0090" opacity="0.35"/>
    <rect x="29" y="122" width="2" height="3" fill="#ff0090" opacity="0.8"/>
    <rect x="38" y="70" width="24" height="62" fill="#1c1830" opacity="0.95"/>
    <rect x="60" y="62" width="2" height="8" fill="#ff0090" opacity="0.55"/>
    <rect x="54" y="78" width="2" height="3" fill="#ff0090" opacity="0.35"/>
    <rect x="51" y="92" width="2" height="3" fill="#ff0090" opacity="0.35"/>
    <rect x="48" y="106" width="2" height="3" fill="#ff0090" opacity="0.8"/>
    <rect x="45" y="120" width="2" height="3" fill="#ff0090" opacity="0.35"/>
    <rect x="66" y="46" width="16" height="86" fill="#1c1830" opacity="0.95"/>
    <rect x="73" y="54" width="2" height="3" fill="#ff0090" opacity="0.8"/>
    <rect x="78" y="68" width="2" height="3" fill="#ff0090" opacity="0.35"/>
    <rect x="74" y="82" width="2" height="3" fill="#ff0090" opacity="0.35"/>
    <rect x="70" y="96" width="2" height="3" fill="#ff0090" opacity="0.8"/>
    <rect x="75" y="110" width="2" height="3" fill="#ff0090" opacity="0.35"/>
    <rect x="71" y="124" width="2" height="3" fill="#ff0090" opacity="0.35"/>
    <rect x="86" y="80" width="26" height="52" fill="#1c1830" opacity="0.95"/>
    <rect x="110" y="72" width="2" height="8" fill="#ff0090" opacity="0.55"/>
    <rect x="106" y="88" width="2" height="3" fill="#ff0090" opacity="0.35"/>
    <rect x="101" y="102" width="2" height="3" fill="#ff0090" opacity="0.35"/>
    <rect x="96" y="116" width="2" height="3" fill="#ff0090" opacity="0.8"/>
    <rect x="116" y="60" width="14" height="72" fill="#1c1830" opacity="0.95"/>
    <rect x="123" y="68" width="2" height="3" fill="#ff0090" opacity="0.35"/>
    <rect x="123" y="82" width="2" height="3" fill="#ff0090" opacity="0.8"/>
    <rect x="123" y="96" width="2" height="3" fill="#ff0090" opacity="0.35"/>
    <rect x="123" y="110" width="2" height="3" fill="#ff0090" opacity="0.35"/>
    <rect x="123" y="124" width="2" height="3" fill="#ff0090" opacity="0.8"/>
    <rect x="134" y="104" width="21" height="28" fill="#1c1830" opacity="0.95"/>
    <rect x="153" y="96" width="2" height="8" fill="#ff0090" opacity="0.55"/>
    <rect x="144" y="112" width="2" height="3" fill="#ff0090" opacity="0.35"/>
    <rect x="144" y="126" width="2" height="3" fill="#ff0090" opacity="0.8"/>
    <rect x="159" y="88" width="11" height="44" fill="#1c1830" opacity="0.95"/>
    <rect x="166" y="96" width="2" height="3" fill="#ff0090" opacity="0.35"/>
    <rect x="164" y="110" width="2" height="3" fill="#ff0090" opacity="0.8"/>
    <rect x="166" y="124" width="2" height="3" fill="#ff0090" opacity="0.35"/>
    <rect x="174" y="64" width="19" height="68" fill="#1c1830" opacity="0.95"/>
    <rect x="191" y="56" width="2" height="8" fill="#ff0090" opacity="0.55"/>
    <rect x="186" y="72" width="2" height="3" fill="#ff0090" opacity="0.35"/>
    <rect x="188" y="86" width="2" height="3" fill="#ff0090" opacity="0.35"/>
    <rect x="178" y="100" width="2" height="3" fill="#ff0090" opacity="0.8"/>
    <rect x="180" y="114" width="2" height="3" fill="#ff0090" opacity="0.35"/>
    <rect x="197" y="82" width="28" height="50" fill="#1c1830" opacity="0.95"/>
    <rect x="216" y="90" width="2" height="3" fill="#ff0090" opacity="0.8"/>
    <rect x="209" y="104" width="2" height="3" fill="#ff0090" opacity="0.35"/>
    <rect x="202" y="118" width="2" height="3" fill="#ff0090" opacity="0.35"/>
    <line x1="4" y1="18" x2="0" y2="84" stroke="#00ffff" stroke-width="1" opacity="0.42"/>
    <line x1="15" y1="20" x2="11" y2="95" stroke="#00ffff" stroke-width="1" opacity="0.42"/>
    <line x1="26" y1="22" x2="22" y2="106" stroke="#00ffff" stroke-width="1" opacity="0.42"/>
    <line x1="37" y1="15" x2="33" y2="84" stroke="#00ffff" stroke-width="1" opacity="0.42"/>
    <line x1="48" y1="17" x2="44" y2="95" stroke="#00ffff" stroke-width="1" opacity="0.42"/>
    <line x1="59" y1="19" x2="55" y2="106" stroke="#00ffff" stroke-width="1" opacity="0.42"/>
    <line x1="70" y1="21" x2="66" y2="84" stroke="#00ffff" stroke-width="1" opacity="0.42"/>
    <line x1="81" y1="14" x2="77" y2="95" stroke="#00ffff" stroke-width="1" opacity="0.42"/>
    <line x1="92" y1="16" x2="88" y2="106" stroke="#00ffff" stroke-width="1" opacity="0.42"/>
    <line x1="103" y1="18" x2="99" y2="84" stroke="#00ffff" stroke-width="1" opacity="0.42"/>
    <line x1="114" y1="20" x2="110" y2="95" stroke="#00ffff" stroke-width="1" opacity="0.42"/>
    <line x1="125" y1="22" x2="121" y2="106" stroke="#00ffff" stroke-width="1" opacity="0.42"/>
    <line x1="136" y1="15" x2="132" y2="84" stroke="#00ffff" stroke-width="1" opacity="0.42"/>
    <line x1="147" y1="17" x2="143" y2="95" stroke="#00ffff" stroke-width="1" opacity="0.42"/>
    <line x1="158" y1="19" x2="154" y2="106" stroke="#00ffff" stroke-width="1" opacity="0.42"/>
    <line x1="169" y1="21" x2="165" y2="84" stroke="#00ffff" stroke-width="1" opacity="0.42"/>
    <line x1="180" y1="14" x2="176" y2="95" stroke="#00ffff" stroke-width="1" opacity="0.42"/>
    <line x1="191" y1="16" x2="187" y2="106" stroke="#00ffff" stroke-width="1" opacity="0.42"/>
    <line x1="202" y1="18" x2="198" y2="84" stroke="#00ffff" stroke-width="1" opacity="0.42"/>
    <line x1="213" y1="20" x2="209" y2="95" stroke="#00ffff" stroke-width="1" opacity="0.42"/>
    <line x1="224" y1="22" x2="220" y2="106" stroke="#00ffff" stroke-width="1" opacity="0.42"/>
    <line x1="235" y1="15" x2="231" y2="84" stroke="#00ffff" stroke-width="1" opacity="0.42"/>
    <line x1="246" y1="17" x2="242" y2="95" stroke="#00ffff" stroke-width="1" opacity="0.42"/>
    <line x1="257" y1="19" x2="253" y2="106" stroke="#00ffff" stroke-width="1" opacity="0.42"/>
    <line x1="268" y1="21" x2="264" y2="84" stroke="#00ffff" stroke-width="1" opacity="0.42"/>
    <line x1="279" y1="14" x2="275" y2="95" stroke="#00ffff" stroke-width="1" opacity="0.42"/>
    <line x1="290" y1="16" x2="286" y2="106" stroke="#00ffff" stroke-width="1" opacity="0.42"/>
    <line x1="301" y1="18" x2="297" y2="84" stroke="#00ffff" stroke-width="1" opacity="0.42"/>
    <line x1="312" y1="20" x2="308" y2="95" stroke="#00ffff" stroke-width="1" opacity="0.42"/>
    <rect x="18" y="140" width="280" height="1" fill="#00ffff" opacity="0.2"/>
    <rect x="50" y="143" width="210" height="1" fill="#ff0090" opacity="0.18"/>
    <rect x="18" y="148" width="280" height="1" fill="#00ffff" opacity="0.2"/>
    <rect x="50" y="151" width="210" height="1" fill="#ff0090" opacity="0.18"/>
    <rect x="18" y="156" width="280" height="1" fill="#00ffff" opacity="0.2"/>
    <rect x="50" y="159" width="210" height="1" fill="#ff0090" opacity="0.18"/>
    <rect x="18" y="164" width="280" height="1" fill="#00ffff" opacity="0.2"/>
    <rect x="50" y="167" width="210" height="1" fill="#ff0090" opacity="0.18"/>
    <rect x="18" y="172" width="280" height="1" fill="#00ffff" opacity="0.2"/>
    <rect x="50" y="175" width="210" height="1" fill="#ff0090" opacity="0.18"/>
  </g>
</svg>
