<?xml version="1.0" encoding="UTF-8"?>
<!-- Underpass — kofun-friends cyberpunk background study -->
<svg xmlns="http://www.w3.org/2000/svg" viewBox="0 0 320 180" width="320" height="180" role="img" aria-label="Underpass">
  <g shape-rendering="crispEdges">
    <rect x="0" y="0" width="320" height="180" fill="#0a0a14"/>
    <rect x="0" y="0" width="320" height="84" fill="#12101e" opacity="0.72"/>
    <rect x="0" y="80" width="320" height="46" fill="#0d2240" opacity="0.48"/>
    <rect x="0" y="126" width="320" height="54" fill="#0a0a14"/>
    <rect x="217" y="63" width="1" height="1" fill="#ff0090" opacity="0.75"/>
    <rect x="264" y="8" width="1" height="1" fill="#00ffff" opacity="0.45"/>
    <rect x="311" y="31" width="1" height="1" fill="#00ffff" opacity="0.45"/>
    <rect x="38" y="54" width="1" height="1" fill="#00ffff" opacity="0.75"/>
    <rect x="85" y="77" width="1" height="1" fill="#00ffff" opacity="0.45"/>
    <rect x="132" y="22" width="1" height="1" fill="#ff0090" opacity="0.45"/>
    <rect x="179" y="45" width="1" height="1" fill="#00ffff" opacity="0.75"/>
    <rect x="226" y="68" width="1" height="1" fill="#00ffff" opacity="0.45"/>
    <rect x="273" y="13" width="1" height="1" fill="#00ffff" opacity="0.45"/>
    <rect x="0" y="36" width="1" height="1" fill="#00ffff" opacity="0.75"/>
    <rect x="47" y="59" width="1" height="1" fill="#ff0090" opacity="0.45"/>
    <rect x="94" y="82" width="1" height="1" fill="#00ffff" opacity="0.45"/>
    <rect x="141" y="27" width="1" height="1" fill="#00ffff" opacity="0.75"/>
    <rect x="188" y="50" width="1" height="1" fill="#00ffff" opacity="0.45"/>
    <rect x="235" y="73" width="1" height="1" fill="#00ffff" opacity="0.45"/>
    <rect x="282" y="18" width="1" height="1" fill="#ff0090" opacity="0.75"/>
    <rect x="9" y="41" width="1" height="1" fill="#00ffff" opacity="0.45"/>
    <rect x="56" y="64" width="1" height="1" fill="#00ffff" opacity="0.45"/>
    <rect x="103" y="9" width="1" height="1" fill="#00ffff" opacity="0.75"/>
    <rect x="150" y="32" width="1" height="1" fill="#00ffff" opacity="0.45"/>
    <rect x="197" y="55" width="1" height="1" fill="#ff0090" opacity="0.45"/>
    <rect x="244" y="78" width="1" height="1" fill="#00ffff" opacity="0.75"/>
    <rect x="291" y="23" width="1" height="1" fill="#00ffff" opacity="0.45"/>
    <rect x="18" y="46" width="1" height="1" fill="#00ffff" opacity="0.45"/>
    <rect x="65" y="69" width="1" height="1" fill="#00ffff" opacity="0.75"/>
    <rect x="112" y="14" width="1" height="1" fill="#ff0090" opacity="0.45"/>
    <rect x="159" y="37" width="1" height="1" fill="#00ffff" opacity="0.45"/>
    <rect x="206" y="60" width="1" height="1" fill="#00ffff" opacity="0.75"/>
    <rect x="253" y="83" width="1" height="1" fill="#00ffff" opacity="0.45"/>
    <rect x="300" y="28" width="1" height="1" fill="#00ffff" opacity="0.45"/>
    <rect x="27" y="51" width="1" height="1" fill="#ff0090" opacity="0.75"/>
    <rect x="74" y="74" width="1" height="1" fill="#00ffff" opacity="0.45"/>
    <rect x="121" y="19" width="1" height="1" fill="#00ffff" opacity="0.45"/>
    <rect x="168" y="42" width="1" height="1" fill="#00ffff" opacity="0.75"/>
    <rect x="0" y="0" width="320" height="1" fill="#000000" opacity="0.16"/>
    <rect x="0" y="4" width="320" height="1" fill="#000000" opacity="0.16"/>
    <rect x="0" y="8" width="320" height="1" fill="#000000" opacity="0.16"/>
    <rect x="0" y="12" width="320" height="1" fill="#000000" opacity="0.16"/>
    <rect x="0" y="16" width="320" height="1" fill="#000000" opacity="0.16"/>
    <rect x="0" y="20" width="320" height="1" fill="#000000" opacity="0.16"/>
    <rect x="0" y="24" width="320" height="1" fill="#000000" opacity="0.16"/>
    <rect x="0" y="28" width="320" height="1" fill="#000000" opacity="0.16"/>
    <rect x="0" y="32" width="320" height="1" fill="#000000" opacity="0.16"/>
    <rect x="0" y="36" width="320" height="1" fill="#000000" opacity="0.16"/>
    <rect x="0" y="40" width="320" height="1" fill="#000000" opacity="0.16"/>
    <rect x="0" y="44" width="320" height="1" fill="#000000" opacity="0.16"/>
    <rect x="0" y="48" width="320" height="1" fill="#000000" opacity="0.16"/>
    <rect x="0" y="52" width="320" height="1" fill="#000000" opacity="0.16"/>
    <rect x="0" y="56" width="320" height="1" fill="#000000" opacity="0.16"/>
    <rect x="0" y="60" width="320" height="1" fill="#000000" opacity="0.16"/>
    <rect x="0" y="64" width="320" height="1" fill="#000000" opacity="0.16"/>
    <rect x="0" y="68" width="320" height="1" fill="#000000" opacity="0.16"/>
    <rect x="0" y="72" width="320" height="1" fill="#000000" opacity="0.16"/>
    <rect x="0" y="76" width="320" height="1" fill="#000000" opacity="0.16"/>
    <rect x="0" y="80" width="320" height="1" fill="#000000" opacity="0.16"/>
    <rect x="0" y="84" width="320" height="1" fill="#000000" opacity="0.16"/>
    <rect x="0" y="88" width="320" height="1" fill="#000000" opacity="0.16"/>
    <rect x="0" y="92" width="320" height="1" fill="#000000" opacity="0.16"/>
    <rect x="0" y="96" width="320" height="1" fill="#000000" opacity="0.16"/>
    <rect x="0" y="100" width="320" height="1" fill="#000000" opacity="0.16"/>
    <rect x="0" y="104" width="320" height="1" fill="#000000" opacity="0.16"/>
    <rect x="0" y="108" width="320" height="1" fill="#000000" opacity="0.16"/>
    <rect x="0" y="112" width="320" height="1" fill="#000000" opacity="0.16"/>
    <rect x="0" y="116" width="320" height="1" fill="#000000" opacity="0.16"/>
    <rect x="0" y="120" width="320" height="1" fill="#000000" opacity="0.16"/>
    <rect x="0" y="124" width="320" height="1" fill="#000000" opacity="0.16"/>
    <rect x="0" y="128" width="320" height="1" fill="#000000" opacity="0.16"/>
    <rect x="0" y="132" width="320" height="1" fill="#000000" opacity="0.16"/>
    <rect x="0" y="136" width="320" height="1" fill="#000000" opacity="0.16"/>
    <rect x="0" y="140" width="320" height="1" fill="#000000" opacity="0.16"/>
    <rect x="0" y="144" width="320" height="1" fill="#000000" opacity="0.16"/>
    <rect x="0" y="148" width="320" height="1" fill="#000000" opacity="0.16"/>
    <rect x="0" y="152" width="320" height="1" fill="#000000" opacity="0.16"/>
    <rect x="0" y="156" width="320" height="1" fill="#000000" opacity="0.16"/>
    <rect x="0" y="160" width="320" height="1" fill="#000000" opacity="0.16"/>
    <rect x="0" y="164" width="320" height="1" fill="#000000" opacity="0.16"/>
    <rect x="0" y="168" width="320" height="1" fill="#000000" opacity="0.16"/>
    <rect x="0" y="172" width="320" height="1" fill="#000000" opacity="0.16"/>
    <rect x="0" y="176" width="320" height="1" fill="#000000" opacity="0.16"/>
    <polygon points="0,44 122,76 122,126 0,158" fill="#0d2240" opacity="0.84"/>
    <polygon points="320,44 198,76 198,126 320,158" fill="#1c1830" opacity="0.88"/>
    <rect x="122" y="76" width="76" height="50" fill="#0a0a14"/>
    <rect x="136" y="88" width="48" height="24" fill="#7c4dff" opacity="0.45"/>
    <rect x="16" y="80" width="12" height="44" fill="#1870a8" opacity="0.9"/>
    <rect x="16" y="80" width="12" height="2" fill="#ccff00"/>
    <rect x="16" y="122" width="12" height="2" fill="#ccff00"/>
    <rect x="20" y="85" width="4" height="34" fill="#ccff00" opacity="0.78"/>
    <rect x="44" y="88" width="12" height="44" fill="#1870a8" opacity="0.9"/>
    <rect x="44" y="88" width="12" height="2" fill="#ccff00"/>
    <rect x="44" y="130" width="12" height="2" fill="#ccff00"/>
    <rect x="48" y="93" width="4" height="34" fill="#ccff00" opacity="0.78"/>
    <rect x="74" y="88" width="12" height="44" fill="#1870a8" opacity="0.9"/>
    <rect x="74" y="88" width="12" height="2" fill="#ccff00"/>
    <rect x="74" y="130" width="12" height="2" fill="#ccff00"/>
    <rect x="78" y="93" width="4" height="34" fill="#ccff00" opacity="0.78"/>
    <rect x="232" y="80" width="12" height="44" fill="#a0006a" opacity="0.9"/>
    <rect x="232" y="80" width="12" height="2" fill="#ccff00"/>
    <rect x="232" y="122" width="12" height="2" fill="#ccff00"/>
    <rect x="236" y="85" width="4" height="34" fill="#ccff00" opacity="0.78"/>
    <rect x="260" y="88" width="12" height="44" fill="#a0006a" opacity="0.9"/>
    <rect x="260" y="88" width="12" height="2" fill="#ccff00"/>
    <rect x="260" y="130" width="12" height="2" fill="#ccff00"/>
    <rect x="264" y="93" width="4" height="34" fill="#ccff00" opacity="0.78"/>
    <rect x="290" y="88" width="12" height="44" fill="#a0006a" opacity="0.9"/>
    <rect x="290" y="88" width="12" height="2" fill="#ccff00"/>
    <rect x="290" y="130" width="12" height="2" fill="#ccff00"/>
    <rect x="294" y="93" width="4" height="34" fill="#ccff00" opacity="0.78"/>
    <rect x="0" y="126" width="320" height="2" fill="#00ffff" opacity="0.8"/>
    <rect x="0" y="160" width="320" height="2" fill="#a0006a" opacity="0.55"/>
    <line x1="0" y1="148" x2="320" y2="148" stroke="#00ffff" stroke-width="1" opacity="0.34"/>
    <line x1="0" y1="156" x2="320" y2="156" stroke="#00ffff" stroke-width="1" opacity="0.34"/>
    <line x1="0" y1="165" x2="320" y2="165" stroke="#00ffff" stroke-width="1" opacity="0.34"/>
    <line x1="0" y1="174" x2="320" y2="174" stroke="#00ffff" stroke-width="1" opacity="0.34"/>
    <line x1="160" y1="126" x2="-160" y2="180" stroke="#00ffff" stroke-width="1" opacity="0.28"/>
    <line x1="160" y1="126" x2="-128" y2="180" stroke="#00ffff" stroke-width="1" opacity="0.28"/>
    <line x1="160" y1="126" x2="-96" y2="180" stroke="#00ffff" stroke-width="1" opacity="0.28"/>
    <line x1="160" y1="126" x2="-64" y2="180" stroke="#00ffff" stroke-width="1" opacity="0.28"/>
    <line x1="160" y1="126" x2="-32" y2="180" stroke="#00ffff" stroke-width="1" opacity="0.28"/>
    <line x1="160" y1="126" x2="0" y2="180" stroke="#00ffff" stroke-width="1" opacity="0.28"/>
    <line x1="160" y1="126" x2="32" y2="180" stroke="#00ffff" stroke-width="1" opacity="0.28"/>
    <line x1="160" y1="126" x2="64" y2="180" stroke="#00ffff" stroke-width="1" opacity="0.28"/>
    <line x1="160" y1="126" x2="96" y2="180" stroke="#00ffff" stroke-width="1" opacity="0.28"/>
    <line x1="160" y1="126" x2="128" y2="180" stroke="#00ffff" stroke-width="1" opacity="0.28"/>
    <line x1="160" y1="126" x2="160" y2="180" stroke="#00ffff" stroke-width="1" opacity="0.28"/>
    <line x1="160" y1="126" x2="192" y2="180" stroke="#00ffff" stroke-width="1" opacity="0.28"/>
    <line x1="160" y1="126" x2="224" y2="180" stroke="#00ffff" stroke-width="1" opacity="0.28"/>
    <line x1="160" y1="126" x2="256" y2="180" stroke="#00ffff" stroke-width="1" opacity="0.28"/>
    <line x1="160" y1="126" x2="288" y2="180" stroke="#00ffff" stroke-width="1" opacity="0.28"/>
    <line x1="160" y1="126" x2="320" y2="180" stroke="#00ffff" stroke-width="1" opacity="0.28"/>
    <line x1="160" y1="126" x2="352" y2="180" stroke="#00ffff" stroke-width="1" opacity="0.28"/>
    <line x1="160" y1="126" x2="384" y2="180" stroke="#00ffff" stroke-width="1" opacity="0.28"/>
    <line x1="160" y1="126" x2="416" y2="180" stroke="#00ffff" stroke-width="1" opacity="0.28"/>
    <line x1="160" y1="126" x2="448" y2="180" stroke="#00ffff" stroke-width="1" opacity="0.28"/>
    <line x1="160" y1="126" x2="480" y2="180" stroke="#00ffff" stroke-width="1" opacity="0.28"/>
  </g>
</svg>
