<?xml version="1.0" encoding="UTF-8"?>
<!-- Kofun-kun and friends — group — kofun-friends cast art (generated; do not edit by hand) -->
<svg xmlns="http://www.w3.org/2000/svg" viewBox="0 0 256 256" width="256" height="256" role="img" aria-label="Kofun-kun and friends — group">
  <g shape-rendering="crispEdges">
    <rect x="54" y="14" width="28" height="7" fill="#71f6bd"/>
    <rect x="47" y="21" width="42" height="7" fill="#71f6bd"/>
    <rect x="40" y="28" width="56" height="7" fill="#71f6bd"/>
    <rect x="33" y="35" width="70" height="7" fill="#71f6bd"/>
    <rect x="33" y="42" width="14" height="7" fill="#71f6bd"/>
    <rect x="47" y="42" width="7" height="7" fill="#0a1c17"/>
    <rect x="54" y="42" width="28" height="7" fill="#71f6bd"/>
    <rect x="82" y="42" width="7" height="7" fill="#0a1c17"/>
    <rect x="89" y="42" width="14" height="7" fill="#71f6bd"/>
    <rect x="33" y="49" width="14" height="7" fill="#71f6bd"/>
    <rect x="47" y="49" width="7" height="7" fill="#0a1c17"/>
    <rect x="54" y="49" width="28" height="7" fill="#71f6bd"/>
    <rect x="82" y="49" width="7" height="7" fill="#0a1c17"/>
    <rect x="89" y="49" width="14" height="7" fill="#71f6bd"/>
    <rect x="33" y="56" width="21" height="7" fill="#71f6bd"/>
    <rect x="54" y="56" width="7" height="7" fill="#0a1c17"/>
    <rect x="61" y="56" width="14" height="7" fill="#71f6bd"/>
    <rect x="75" y="56" width="7" height="7" fill="#0a1c17"/>
    <rect x="82" y="56" width="21" height="7" fill="#71f6bd"/>
    <rect x="40" y="63" width="21" height="7" fill="#71f6bd"/>
    <rect x="61" y="63" width="14" height="7" fill="#0a1c17"/>
    <rect x="75" y="63" width="21" height="7" fill="#71f6bd"/>
    <rect x="47" y="70" width="42" height="7" fill="#71f6bd"/>
    <rect x="47" y="77" width="42" height="7" fill="#71f6bd"/>
    <rect x="40" y="84" width="56" height="7" fill="#71f6bd"/>
    <rect x="40" y="91" width="56" height="7" fill="#71f6bd"/>
    <rect x="33" y="98" width="70" height="7" fill="#71f6bd"/>
    <rect x="26" y="105" width="84" height="7" fill="#71f6bd"/>
    <rect x="26" y="112" width="84" height="7" fill="#71f6bd"/>
    <rect x="40" y="119" width="21" height="7" fill="#71f6bd"/>
    <rect x="75" y="119" width="21" height="7" fill="#71f6bd"/>
    <rect x="174" y="10" width="7" height="7" fill="#ff5470"/>
    <rect x="188" y="10" width="7" height="7" fill="#ff5470"/>
    <rect x="202" y="10" width="7" height="7" fill="#ff5470"/>
    <rect x="174" y="17" width="35" height="7" fill="#ff5470"/>
    <rect x="174" y="24" width="28" height="7" fill="#ff9d42"/>
    <rect x="167" y="31" width="7" height="7" fill="#ff9d42"/>
    <rect x="174" y="31" width="7" height="7" fill="#2a1008"/>
    <rect x="181" y="31" width="14" height="7" fill="#ff9d42"/>
    <rect x="195" y="31" width="7" height="7" fill="#2a1008"/>
    <rect x="202" y="31" width="7" height="7" fill="#ff9d42"/>
    <rect x="167" y="38" width="7" height="7" fill="#ff9d42"/>
    <rect x="174" y="38" width="7" height="7" fill="#2a1008"/>
    <rect x="181" y="38" width="14" height="7" fill="#ff9d42"/>
    <rect x="195" y="38" width="7" height="7" fill="#2a1008"/>
    <rect x="202" y="38" width="7" height="7" fill="#ff9d42"/>
    <rect x="167" y="45" width="14" height="7" fill="#ff9d42"/>
    <rect x="181" y="45" width="14" height="7" fill="#ffd24a"/>
    <rect x="195" y="45" width="14" height="7" fill="#ff9d42"/>
    <rect x="160" y="52" width="21" height="7" fill="#ff9d42"/>
    <rect x="181" y="52" width="14" height="7" fill="#ffd24a"/>
    <rect x="195" y="52" width="21" height="7" fill="#ff9d42"/>
    <rect x="153" y="59" width="28" height="7" fill="#ff9d42"/>
    <rect x="181" y="59" width="14" height="7" fill="#ff5470"/>
    <rect x="195" y="59" width="28" height="7" fill="#ff9d42"/>
    <rect x="153" y="66" width="70" height="7" fill="#ff9d42"/>
    <rect x="153" y="73" width="7" height="7" fill="#ff9d42"/>
    <rect x="160" y="73" width="21" height="7" fill="#ef6f1f"/>
    <rect x="181" y="73" width="42" height="7" fill="#ff9d42"/>
    <rect x="153" y="80" width="7" height="7" fill="#ff9d42"/>
    <rect x="160" y="80" width="14" height="7" fill="#ef6f1f"/>
    <rect x="174" y="80" width="49" height="7" fill="#ff9d42"/>
    <rect x="153" y="87" width="70" height="7" fill="#ff9d42"/>
    <rect x="160" y="94" width="56" height="7" fill="#ff9d42"/>
    <rect x="160" y="101" width="56" height="7" fill="#ff9d42"/>
    <rect x="174" y="108" width="7" height="7" fill="#ff8a1f"/>
    <rect x="195" y="108" width="7" height="7" fill="#ff8a1f"/>
    <rect x="167" y="115" width="14" height="7" fill="#ff8a1f"/>
    <rect x="195" y="115" width="14" height="7" fill="#ff8a1f"/>
    <rect x="52" y="132" width="7" height="7" fill="#ff5470"/>
    <rect x="66" y="132" width="7" height="7" fill="#ff5470"/>
    <rect x="80" y="132" width="7" height="7" fill="#ff5470"/>
    <rect x="52" y="139" width="35" height="7" fill="#ff5470"/>
    <rect x="52" y="146" width="28" height="7" fill="#ff9d42"/>
    <rect x="45" y="153" width="7" height="7" fill="#ff9d42"/>
    <rect x="52" y="153" width="7" height="7" fill="#2a1008"/>
    <rect x="59" y="153" width="14" height="7" fill="#ff9d42"/>
    <rect x="73" y="153" width="7" height="7" fill="#2a1008"/>
    <rect x="80" y="153" width="7" height="7" fill="#ff9d42"/>
    <rect x="45" y="160" width="7" height="7" fill="#ff9d42"/>
    <rect x="52" y="160" width="7" height="7" fill="#2a1008"/>
    <rect x="59" y="160" width="14" height="7" fill="#ff9d42"/>
    <rect x="73" y="160" width="7" height="7" fill="#2a1008"/>
    <rect x="80" y="160" width="7" height="7" fill="#ff9d42"/>
    <rect x="45" y="167" width="42" height="7" fill="#ff9d42"/>
    <rect x="38" y="174" width="21" height="7" fill="#ff9d42"/>
    <rect x="59" y="174" width="14" height="7" fill="#ffd24a"/>
    <rect x="73" y="174" width="21" height="7" fill="#ff9d42"/>
    <rect x="31" y="181" width="28" height="7" fill="#ff9d42"/>
    <rect x="59" y="181" width="14" height="7" fill="#ff5470"/>
    <rect x="73" y="181" width="28" height="7" fill="#ff9d42"/>
    <rect x="31" y="188" width="70" height="7" fill="#ff9d42"/>
    <rect x="31" y="195" width="7" height="7" fill="#ff9d42"/>
    <rect x="38" y="195" width="21" height="7" fill="#ef6f1f"/>
    <rect x="59" y="195" width="42" height="7" fill="#ff9d42"/>
    <rect x="31" y="202" width="7" height="7" fill="#ff9d42"/>
    <rect x="38" y="202" width="14" height="7" fill="#ef6f1f"/>
    <rect x="52" y="202" width="49" height="7" fill="#ff9d42"/>
    <rect x="31" y="209" width="70" height="7" fill="#ff9d42"/>
    <rect x="38" y="216" width="56" height="7" fill="#ff9d42"/>
    <rect x="38" y="223" width="56" height="7" fill="#ff9d42"/>
    <rect x="52" y="230" width="7" height="7" fill="#ff8a1f"/>
    <rect x="73" y="230" width="7" height="7" fill="#ff8a1f"/>
    <rect x="45" y="237" width="14" height="7" fill="#ff8a1f"/>
    <rect x="73" y="237" width="14" height="7" fill="#ff8a1f"/>
    <rect x="176" y="134" width="28" height="7" fill="#71f6bd"/>
    <rect x="169" y="141" width="42" height="7" fill="#71f6bd"/>
    <rect x="162" y="148" width="56" height="7" fill="#71f6bd"/>
    <rect x="155" y="155" width="70" height="7" fill="#71f6bd"/>
    <rect x="155" y="162" width="14" height="7" fill="#71f6bd"/>
    <rect x="169" y="162" width="7" height="7" fill="#0a1c17"/>
    <rect x="176" y="162" width="28" height="7" fill="#71f6bd"/>
    <rect x="204" y="162" width="7" height="7" fill="#0a1c17"/>
    <rect x="211" y="162" width="14" height="7" fill="#71f6bd"/>
    <rect x="155" y="169" width="14" height="7" fill="#71f6bd"/>
    <rect x="169" y="169" width="7" height="7" fill="#0a1c17"/>
    <rect x="176" y="169" width="28" height="7" fill="#71f6bd"/>
    <rect x="204" y="169" width="7" height="7" fill="#0a1c17"/>
    <rect x="211" y="169" width="14" height="7" fill="#71f6bd"/>
    <rect x="141" y="176" width="14" height="7" fill="#7bf0a6"/>
    <rect x="155" y="176" width="28" height="7" fill="#71f6bd"/>
    <rect x="183" y="176" width="14" height="7" fill="#0a1c17"/>
    <rect x="197" y="176" width="28" height="7" fill="#71f6bd"/>
    <rect x="141" y="183" width="14" height="7" fill="#7bf0a6"/>
    <rect x="162" y="183" width="21" height="7" fill="#71f6bd"/>
    <rect x="183" y="183" width="14" height="7" fill="#0a1c17"/>
    <rect x="197" y="183" width="21" height="7" fill="#71f6bd"/>
    <rect x="134" y="190" width="7" height="7" fill="#7bf0a6"/>
    <rect x="169" y="190" width="42" height="7" fill="#71f6bd"/>
    <rect x="169" y="197" width="42" height="7" fill="#71f6bd"/>
    <rect x="162" y="204" width="56" height="7" fill="#71f6bd"/>
    <rect x="162" y="211" width="56" height="7" fill="#71f6bd"/>
    <rect x="155" y="218" width="70" height="7" fill="#71f6bd"/>
    <rect x="148" y="225" width="84" height="7" fill="#71f6bd"/>
    <rect x="148" y="232" width="84" height="7" fill="#71f6bd"/>
    <rect x="162" y="239" width="21" height="7" fill="#71f6bd"/>
    <rect x="197" y="239" width="21" height="7" fill="#71f6bd"/>
    <rect x="124" y="96" width="4" height="4" fill="#71f6bd"/>
    <rect x="124" y="100" width="4" height="4" fill="#71f6bd"/>
    <rect x="120" y="104" width="12" height="4" fill="#71f6bd"/>
    <rect x="120" y="108" width="4" height="4" fill="#71f6bd"/>
    <rect x="124" y="108" width="4" height="4" fill="#7dd3fc"/>
    <rect x="128" y="108" width="4" height="4" fill="#71f6bd"/>
    <rect x="100" y="112" width="4" height="4" fill="#71f6bd"/>
    <rect x="116" y="112" width="20" height="4" fill="#71f6bd"/>
    <rect x="148" y="112" width="4" height="4" fill="#71f6bd"/>
    <rect x="104" y="116" width="16" height="4" fill="#71f6bd"/>
    <rect x="120" y="116" width="12" height="4" fill="#7dd3fc"/>
    <rect x="132" y="116" width="16" height="4" fill="#71f6bd"/>
    <rect x="108" y="120" width="4" height="4" fill="#71f6bd"/>
    <rect x="112" y="120" width="8" height="4" fill="#7dd3fc"/>
    <rect x="120" y="120" width="12" height="4" fill="#eafff6"/>
    <rect x="132" y="120" width="8" height="4" fill="#7dd3fc"/>
    <rect x="140" y="120" width="4" height="4" fill="#71f6bd"/>
    <rect x="104" y="124" width="16" height="4" fill="#71f6bd"/>
    <rect x="120" y="124" width="12" height="4" fill="#7dd3fc"/>
    <rect x="132" y="124" width="16" height="4" fill="#71f6bd"/>
    <rect x="100" y="128" width="4" height="4" fill="#71f6bd"/>
    <rect x="116" y="128" width="20" height="4" fill="#71f6bd"/>
    <rect x="148" y="128" width="4" height="4" fill="#71f6bd"/>
    <rect x="120" y="132" width="4" height="4" fill="#71f6bd"/>
    <rect x="124" y="132" width="4" height="4" fill="#7dd3fc"/>
    <rect x="128" y="132" width="4" height="4" fill="#71f6bd"/>
    <rect x="120" y="136" width="12" height="4" fill="#71f6bd"/>
    <rect x="124" y="140" width="4" height="4" fill="#71f6bd"/>
    <rect x="124" y="144" width="4" height="4" fill="#71f6bd"/>
  </g>
</svg>
