<?xml version="1.0" encoding="UTF-8"?>
<!-- copy — kofun-friends pixel art -->
<svg xmlns="http://www.w3.org/2000/svg" viewBox="0 0 16 16" width="128" height="128" shape-rendering="crispEdges" role="img" aria-label="copy">
  <rect x="3" y="1" width="6" height="1" fill="#00ffff"/>
  <rect x="3" y="2" width="1" height="1" fill="#00ffff"/>
  <rect x="8" y="2" width="1" height="1" fill="#00ffff"/>
  <rect x="3" y="3" width="1" height="1" fill="#00ffff"/>
  <rect x="5" y="3" width="6" height="1" fill="#00ccff"/>
  <rect x="3" y="4" width="1" height="1" fill="#00ffff"/>
  <rect x="5" y="4" width="1" height="1" fill="#00ccff"/>
  <rect x="10" y="4" width="1" height="1" fill="#00ccff"/>
  <rect x="3" y="5" width="2" height="1" fill="#00ffff"/>
  <rect x="5" y="5" width="1" height="1" fill="#00ccff"/>
  <rect x="10" y="5" width="1" height="1" fill="#00ccff"/>
  <rect x="5" y="6" width="1" height="1" fill="#00ccff"/>
  <rect x="10" y="6" width="1" height="1" fill="#00ccff"/>
  <rect x="5" y="7" width="1" height="1" fill="#00ccff"/>
  <rect x="10" y="7" width="1" height="1" fill="#00ccff"/>
  <rect x="5" y="8" width="1" height="1" fill="#00ccff"/>
  <rect x="10" y="8" width="1" height="1" fill="#00ccff"/>
  <rect x="5" y="9" width="1" height="1" fill="#00ccff"/>
  <rect x="10" y="9" width="1" height="1" fill="#00ccff"/>
  <rect x="5" y="10" width="6" height="1" fill="#00ccff"/>
</svg>
