<?xml version="1.0" encoding="UTF-8"?>
<!-- download — kofun-friends pixel art -->
<svg xmlns="http://www.w3.org/2000/svg" viewBox="0 0 16 16" width="128" height="128" shape-rendering="crispEdges" role="img" aria-label="download">
  <rect x="6" y="1" width="2" height="1" fill="#71f6bd"/>
  <rect x="6" y="2" width="2" height="1" fill="#71f6bd"/>
  <rect x="6" y="3" width="2" height="1" fill="#71f6bd"/>
  <rect x="6" y="4" width="2" height="1" fill="#71f6bd"/>
  <rect x="3" y="5" width="1" height="1" fill="#71f6bd"/>
  <rect x="6" y="5" width="2" height="1" fill="#71f6bd"/>
  <rect x="10" y="5" width="1" height="1" fill="#71f6bd"/>
  <rect x="3" y="6" width="2" height="1" fill="#71f6bd"/>
  <rect x="6" y="6" width="2" height="1" fill="#71f6bd"/>
  <rect x="9" y="6" width="2" height="1" fill="#71f6bd"/>
  <rect x="4" y="7" width="6" height="1" fill="#71f6bd"/>
  <rect x="5" y="8" width="4" height="1" fill="#71f6bd"/>
  <rect x="6" y="9" width="2" height="1" fill="#71f6bd"/>
  <rect x="1" y="11" width="2" height="1" fill="#71f6bd"/>
  <rect x="11" y="11" width="2" height="1" fill="#71f6bd"/>
  <rect x="1" y="12" width="2" height="1" fill="#71f6bd"/>
  <rect x="11" y="12" width="2" height="1" fill="#71f6bd"/>
  <rect x="1" y="13" width="12" height="1" fill="#71f6bd"/>
  <rect x="1" y="14" width="12" height="1" fill="#71f6bd"/>
</svg>
