<?xml version="1.0" encoding="UTF-8"?>
<!-- link — kofun-friends pixel art -->
<svg xmlns="http://www.w3.org/2000/svg" viewBox="0 0 16 16" width="128" height="128" shape-rendering="crispEdges" role="img" aria-label="link">
  <rect x="3" y="3" width="4" height="1" fill="#00ffff"/>
  <rect x="9" y="3" width="4" height="1" fill="#00ffff"/>
  <rect x="2" y="4" width="2" height="1" fill="#00ffff"/>
  <rect x="6" y="4" width="4" height="1" fill="#00ffff"/>
  <rect x="12" y="4" width="2" height="1" fill="#00ffff"/>
  <rect x="2" y="5" width="1" height="1" fill="#00ffff"/>
  <rect x="7" y="5" width="2" height="1" fill="#00ffff"/>
  <rect x="13" y="5" width="1" height="1" fill="#00ffff"/>
  <rect x="2" y="6" width="1" height="1" fill="#00ffff"/>
  <rect x="13" y="6" width="1" height="1" fill="#00ffff"/>
  <rect x="2" y="7" width="1" height="1" fill="#00ffff"/>
  <rect x="7" y="7" width="2" height="1" fill="#00ffff"/>
  <rect x="13" y="7" width="1" height="1" fill="#00ffff"/>
  <rect x="2" y="8" width="2" height="1" fill="#00ffff"/>
  <rect x="6" y="8" width="4" height="1" fill="#00ffff"/>
  <rect x="12" y="8" width="2" height="1" fill="#00ffff"/>
  <rect x="3" y="9" width="4" height="1" fill="#00ffff"/>
  <rect x="9" y="9" width="4" height="1" fill="#00ffff"/>
</svg>
