<?xml version="1.0" encoding="UTF-8"?>
<!-- search — kofun-friends pixel art -->
<svg xmlns="http://www.w3.org/2000/svg" viewBox="0 0 16 16" width="128" height="128" shape-rendering="crispEdges" role="img" aria-label="search">
  <rect x="4" y="1" width="4" height="1" fill="#00ffff"/>
  <rect x="3" y="2" width="1" height="1" fill="#00ffff"/>
  <rect x="8" y="2" width="1" height="1" fill="#00ffff"/>
  <rect x="2" y="3" width="1" height="1" fill="#00ffff"/>
  <rect x="9" y="3" width="1" height="1" fill="#00ffff"/>
  <rect x="2" y="4" width="1" height="1" fill="#00ffff"/>
  <rect x="9" y="4" width="1" height="1" fill="#00ffff"/>
  <rect x="2" y="5" width="1" height="1" fill="#00ffff"/>
  <rect x="9" y="5" width="1" height="1" fill="#00ffff"/>
  <rect x="2" y="6" width="1" height="1" fill="#00ffff"/>
  <rect x="9" y="6" width="1" height="1" fill="#00ffff"/>
  <rect x="3" y="7" width="1" height="1" fill="#00ffff"/>
  <rect x="8" y="7" width="1" height="1" fill="#00ffff"/>
  <rect x="4" y="8" width="4" height="1" fill="#00ffff"/>
  <rect x="5" y="9" width="4" height="1" fill="#00ffff"/>
  <rect x="6" y="10" width="4" height="1" fill="#00ffff"/>
  <rect x="7" y="11" width="4" height="1" fill="#00ffff"/>
  <rect x="8" y="12" width="3" height="1" fill="#00ffff"/>
  <rect x="9" y="13" width="2" height="1" fill="#00ffff"/>
</svg>
