<?xml version="1.0" encoding="UTF-8"?>
<!-- star — kofun-friends pixel art -->
<svg xmlns="http://www.w3.org/2000/svg" viewBox="0 0 16 16" width="128" height="128" shape-rendering="crispEdges" role="img" aria-label="star">
  <rect x="7" y="1" width="2" height="1" fill="#00ffff"/>
  <rect x="7" y="2" width="2" height="1" fill="#00ffff"/>
  <rect x="6" y="3" width="4" height="1" fill="#00ffff"/>
  <rect x="6" y="4" width="4" height="1" fill="#00ffff"/>
  <rect x="0" y="5" width="14" height="1" fill="#00ffff"/>
  <rect x="1" y="6" width="12" height="1" fill="#00ffff"/>
  <rect x="2" y="7" width="10" height="1" fill="#00ffff"/>
  <rect x="3" y="8" width="8" height="1" fill="#00ffff"/>
  <rect x="3" y="9" width="8" height="1" fill="#00ffff"/>
  <rect x="2" y="10" width="9" height="1" fill="#00ffff"/>
  <rect x="2" y="11" width="3" height="1" fill="#00ffff"/>
  <rect x="8" y="11" width="3" height="1" fill="#00ffff"/>
  <rect x="1" y="12" width="2" height="1" fill="#00ffff"/>
  <rect x="10" y="12" width="2" height="1" fill="#00ffff"/>
  <rect x="1" y="13" width="1" height="1" fill="#00ffff"/>
  <rect x="11" y="13" width="1" height="1" fill="#00ffff"/>
</svg>
