<?xml version="1.0" encoding="UTF-8"?>
<!-- egg — kofun-friends pixel art -->
<svg xmlns="http://www.w3.org/2000/svg" viewBox="0 0 16 16" width="128" height="128" shape-rendering="crispEdges" role="img" aria-label="egg">
  <rect x="7" y="1" width="2" height="1" fill="#f5e9d0"/>
  <rect x="6" y="2" width="4" height="1" fill="#f5e9d0"/>
  <rect x="5" y="3" width="6" height="1" fill="#f5e9d0"/>
  <rect x="5" y="4" width="6" height="1" fill="#f5e9d0"/>
  <rect x="4" y="5" width="3" height="1" fill="#f5e9d0"/>
  <rect x="7" y="5" width="2" height="1" fill="#71f6bd"/>
  <rect x="9" y="5" width="3" height="1" fill="#f5e9d0"/>
  <rect x="4" y="6" width="8" height="1" fill="#f5e9d0"/>
  <rect x="3" y="7" width="7" height="1" fill="#f5e9d0"/>
  <rect x="10" y="7" width="1" height="1" fill="#71f6bd"/>
  <rect x="11" y="7" width="2" height="1" fill="#f5e9d0"/>
  <rect x="3" y="8" width="2" height="1" fill="#f5e9d0"/>
  <rect x="5" y="8" width="1" height="1" fill="#71f6bd"/>
  <rect x="6" y="8" width="7" height="1" fill="#f5e9d0"/>
  <rect x="3" y="9" width="10" height="1" fill="#f5e9d0"/>
  <rect x="3" y="10" width="6" height="1" fill="#f5e9d0"/>
  <rect x="9" y="10" width="1" height="1" fill="#71f6bd"/>
  <rect x="10" y="10" width="3" height="1" fill="#f5e9d0"/>
  <rect x="3" y="11" width="3" height="1" fill="#f5e9d0"/>
  <rect x="6" y="11" width="1" height="1" fill="#71f6bd"/>
  <rect x="7" y="11" width="6" height="1" fill="#f5e9d0"/>
  <rect x="4" y="12" width="8" height="1" fill="#f5e9d0"/>
  <rect x="4" y="13" width="1" height="1" fill="#e8d4a8"/>
  <rect x="5" y="13" width="6" height="1" fill="#f5e9d0"/>
  <rect x="11" y="13" width="1" height="1" fill="#e8d4a8"/>
  <rect x="5" y="14" width="6" height="1" fill="#e8d4a8"/>
</svg>
