<?xml version="1.0" encoding="UTF-8"?>
<!-- penguin — kofun-friends pixel art -->
<svg xmlns="http://www.w3.org/2000/svg" viewBox="0 0 16 16" width="128" height="128" shape-rendering="crispEdges" role="img" aria-label="penguin">
  <rect x="6" y="1" width="4" height="1" fill="#163b45"/>
  <rect x="5" y="2" width="6" height="1" fill="#163b45"/>
  <rect x="4" y="3" width="2" height="1" fill="#163b45"/>
  <rect x="6" y="3" width="1" height="1" fill="#eafff6"/>
  <rect x="7" y="3" width="2" height="1" fill="#163b45"/>
  <rect x="9" y="3" width="1" height="1" fill="#eafff6"/>
  <rect x="10" y="3" width="2" height="1" fill="#163b45"/>
  <rect x="4" y="4" width="3" height="1" fill="#163b45"/>
  <rect x="7" y="4" width="3" height="1" fill="#ff9d42"/>
  <rect x="10" y="4" width="2" height="1" fill="#163b45"/>
  <rect x="3" y="5" width="10" height="1" fill="#163b45"/>
  <rect x="2" y="6" width="4" height="1" fill="#163b45"/>
  <rect x="6" y="6" width="4" height="1" fill="#eafff6"/>
  <rect x="10" y="6" width="4" height="1" fill="#163b45"/>
  <rect x="1" y="7" width="5" height="1" fill="#163b45"/>
  <rect x="6" y="7" width="4" height="1" fill="#eafff6"/>
  <rect x="10" y="7" width="5" height="1" fill="#163b45"/>
  <rect x="1" y="8" width="5" height="1" fill="#163b45"/>
  <rect x="6" y="8" width="4" height="1" fill="#eafff6"/>
  <rect x="10" y="8" width="5" height="1" fill="#163b45"/>
  <rect x="2" y="9" width="4" height="1" fill="#163b45"/>
  <rect x="6" y="9" width="4" height="1" fill="#eafff6"/>
  <rect x="10" y="9" width="4" height="1" fill="#163b45"/>
  <rect x="3" y="10" width="3" height="1" fill="#163b45"/>
  <rect x="6" y="10" width="4" height="1" fill="#eafff6"/>
  <rect x="10" y="10" width="3" height="1" fill="#163b45"/>
  <rect x="4" y="11" width="3" height="1" fill="#163b45"/>
  <rect x="7" y="11" width="2" height="1" fill="#eafff6"/>
  <rect x="9" y="11" width="3" height="1" fill="#163b45"/>
  <rect x="5" y="12" width="6" height="1" fill="#163b45"/>
  <rect x="4" y="13" width="2" height="1" fill="#ff9d42"/>
  <rect x="10" y="13" width="2" height="1" fill="#ff9d42"/>
  <rect x="3" y="14" width="3" height="1" fill="#ff9d42"/>
  <rect x="10" y="14" width="3" height="1" fill="#ff9d42"/>
</svg>
