<?xml version="1.0" encoding="UTF-8"?>
<!-- penguin — kofun-friends pixel art -->
<svg xmlns="http://www.w3.org/2000/svg" viewBox="0 0 16 16" width="128" height="128" shape-rendering="crispEdges" role="img" aria-label="penguin">
  <rect x="6" y="1" width="4" height="1" fill="#241a24"/>
  <rect x="5" y="2" width="1" height="1" fill="#241a24"/>
  <rect x="6" y="2" width="4" height="1" fill="#16304f"/>
  <rect x="10" y="2" width="1" height="1" fill="#241a24"/>
  <rect x="4" y="3" width="1" height="1" fill="#241a24"/>
  <rect x="5" y="3" width="6" height="1" fill="#16304f"/>
  <rect x="11" y="3" width="1" height="1" fill="#241a24"/>
  <rect x="4" y="4" width="1" height="1" fill="#241a24"/>
  <rect x="5" y="4" width="1" height="1" fill="#16304f"/>
  <rect x="6" y="4" width="1" height="1" fill="#08070d"/>
  <rect x="7" y="4" width="2" height="1" fill="#16304f"/>
  <rect x="9" y="4" width="1" height="1" fill="#08070d"/>
  <rect x="10" y="4" width="1" height="1" fill="#16304f"/>
  <rect x="11" y="4" width="1" height="1" fill="#241a24"/>
  <rect x="3" y="5" width="1" height="1" fill="#241a24"/>
  <rect x="4" y="5" width="3" height="1" fill="#16304f"/>
  <rect x="7" y="5" width="2" height="1" fill="#ff6600"/>
  <rect x="9" y="5" width="3" height="1" fill="#16304f"/>
  <rect x="12" y="5" width="1" height="1" fill="#241a24"/>
  <rect x="3" y="6" width="1" height="1" fill="#241a24"/>
  <rect x="4" y="6" width="2" height="1" fill="#16304f"/>
  <rect x="6" y="6" width="4" height="1" fill="#f0f2ee"/>
  <rect x="10" y="6" width="2" height="1" fill="#16304f"/>
  <rect x="12" y="6" width="1" height="1" fill="#241a24"/>
  <rect x="2" y="7" width="1" height="1" fill="#241a24"/>
  <rect x="3" y="7" width="3" height="1" fill="#16304f"/>
  <rect x="6" y="7" width="4" height="1" fill="#f0f2ee"/>
  <rect x="10" y="7" width="3" height="1" fill="#16304f"/>
  <rect x="13" y="7" width="1" height="1" fill="#241a24"/>
  <rect x="2" y="8" width="1" height="1" fill="#241a24"/>
  <rect x="3" y="8" width="3" height="1" fill="#16304f"/>
  <rect x="6" y="8" width="4" height="1" fill="#f0f2ee"/>
  <rect x="10" y="8" width="3" height="1" fill="#16304f"/>
  <rect x="13" y="8" width="1" height="1" fill="#241a24"/>
  <rect x="3" y="9" width="1" height="1" fill="#241a24"/>
  <rect x="4" y="9" width="2" height="1" fill="#16304f"/>
  <rect x="6" y="9" width="4" height="1" fill="#f0f2ee"/>
  <rect x="10" y="9" width="2" height="1" fill="#16304f"/>
  <rect x="12" y="9" width="1" height="1" fill="#241a24"/>
  <rect x="4" y="10" width="1" height="1" fill="#241a24"/>
  <rect x="5" y="10" width="2" height="1" fill="#16304f"/>
  <rect x="7" y="10" width="2" height="1" fill="#f0f2ee"/>
  <rect x="9" y="10" width="2" height="1" fill="#16304f"/>
  <rect x="11" y="10" width="1" height="1" fill="#241a24"/>
  <rect x="5" y="11" width="1" height="1" fill="#241a24"/>
  <rect x="6" y="11" width="4" height="1" fill="#16304f"/>
  <rect x="10" y="11" width="1" height="1" fill="#241a24"/>
  <rect x="6" y="12" width="4" height="1" fill="#241a24"/>
  <rect x="5" y="13" width="2" height="1" fill="#ff6600"/>
  <rect x="9" y="13" width="2" height="1" fill="#ff6600"/>
  <rect x="4" y="14" width="1" height="1" fill="#241a24"/>
  <rect x="5" y="14" width="2" height="1" fill="#ff6600"/>
  <rect x="9" y="14" width="2" height="1" fill="#ff6600"/>
  <rect x="11" y="14" width="1" height="1" fill="#241a24"/>
</svg>
