<?xml version="1.0" encoding="UTF-8"?>
<!-- キラキラ (sparkle) emoji — kofun-friends -->
<svg xmlns="http://www.w3.org/2000/svg" viewBox="0 0 128 128" width="128" height="128" role="img" aria-label="sparkle">
  <rect width="128" height="128" fill="none"/>
  <defs>
    <radialGradient id="spark" cx="50%" cy="50%" r="50%">
      <stop offset="0%" stop-color="#fff9c4"/>
      <stop offset="100%" stop-color="#fbc02d"/>
    </radialGradient>
  </defs>
  <!-- big four-point star -->
  <path d="M64 16 Q72 56 112 64 Q72 72 64 112 Q56 72 16 64 Q56 56 64 16 Z"
        fill="url(#spark)" stroke="#f9a825" stroke-width="2"/>
  <!-- small stars -->
  <path d="M100 24 Q103 36 116 38 Q103 40 100 52 Q97 40 84 38 Q97 36 100 24 Z" fill="#fff176"/>
  <path d="M28 84 Q30 94 40 96 Q30 98 28 108 Q26 98 16 96 Q26 94 28 84 Z" fill="#fff176"/>
</svg>
