<?xml version="1.0" encoding="UTF-8"?>
<!-- subesube-manjugani — kofun-friends pixel art -->
<svg xmlns="http://www.w3.org/2000/svg" viewBox="0 0 16 16" width="128" height="128" shape-rendering="crispEdges" role="img" aria-label="subesube-manjugani">
  <rect x="5" y="2" width="6" height="1" fill="#f5e9d0"/>
  <rect x="3" y="3" width="10" height="1" fill="#f5e9d0"/>
  <rect x="2" y="4" width="12" height="1" fill="#f5e9d0"/>
  <rect x="1" y="5" width="1" height="1" fill="#ff9d42"/>
  <rect x="2" y="5" width="3" height="1" fill="#f5e9d0"/>
  <rect x="5" y="5" width="1" height="1" fill="#71f6bd"/>
  <rect x="6" y="5" width="4" height="1" fill="#f5e9d0"/>
  <rect x="10" y="5" width="1" height="1" fill="#71f6bd"/>
  <rect x="11" y="5" width="3" height="1" fill="#f5e9d0"/>
  <rect x="14" y="5" width="1" height="1" fill="#ff9d42"/>
  <rect x="0" y="6" width="1" height="1" fill="#ff9d42"/>
  <rect x="2" y="6" width="12" height="1" fill="#f5e9d0"/>
  <rect x="15" y="6" width="1" height="1" fill="#ff9d42"/>
  <rect x="1" y="7" width="1" height="1" fill="#ff9d42"/>
  <rect x="2" y="7" width="12" height="1" fill="#f5e9d0"/>
  <rect x="14" y="7" width="1" height="1" fill="#ff9d42"/>
  <rect x="2" y="8" width="4" height="1" fill="#f5e9d0"/>
  <rect x="6" y="8" width="1" height="1" fill="#71f6bd"/>
  <rect x="7" y="8" width="4" height="1" fill="#f5e9d0"/>
  <rect x="11" y="8" width="1" height="1" fill="#71f6bd"/>
  <rect x="12" y="8" width="2" height="1" fill="#f5e9d0"/>
  <rect x="3" y="9" width="10" height="1" fill="#f5e9d0"/>
  <rect x="4" y="10" width="1" height="1" fill="#e8d4a8"/>
  <rect x="5" y="10" width="6" height="1" fill="#f5e9d0"/>
  <rect x="11" y="10" width="1" height="1" fill="#e8d4a8"/>
  <rect x="5" y="11" width="6" height="1" fill="#e8d4a8"/>
  <rect x="1" y="12" width="1" height="1" fill="#ff9d42"/>
  <rect x="3" y="12" width="1" height="1" fill="#ff9d42"/>
  <rect x="12" y="12" width="1" height="1" fill="#ff9d42"/>
  <rect x="14" y="12" width="1" height="1" fill="#ff9d42"/>
  <rect x="0" y="13" width="2" height="1" fill="#ff9d42"/>
  <rect x="12" y="13" width="2" height="1" fill="#ff9d42"/>
</svg>
