<?xml version="1.0" encoding="UTF-8"?>
<!-- sword — kofun-friends pixel art -->
<svg xmlns="http://www.w3.org/2000/svg" viewBox="0 0 16 16" width="128" height="128" shape-rendering="crispEdges" role="img" aria-label="sword">
  <rect x="7" y="0" width="1" height="1" fill="#cfe9ff"/>
  <rect x="7" y="1" width="2" height="1" fill="#cfe9ff"/>
  <rect x="6" y="2" width="1" height="1" fill="#7fa8c9"/>
  <rect x="7" y="2" width="2" height="1" fill="#cfe9ff"/>
  <rect x="6" y="3" width="1" height="1" fill="#7fa8c9"/>
  <rect x="7" y="3" width="2" height="1" fill="#cfe9ff"/>
  <rect x="6" y="4" width="1" height="1" fill="#7fa8c9"/>
  <rect x="7" y="4" width="2" height="1" fill="#cfe9ff"/>
  <rect x="6" y="5" width="1" height="1" fill="#7fa8c9"/>
  <rect x="7" y="5" width="2" height="1" fill="#cfe9ff"/>
  <rect x="6" y="6" width="1" height="1" fill="#7fa8c9"/>
  <rect x="7" y="6" width="2" height="1" fill="#cfe9ff"/>
  <rect x="6" y="7" width="1" height="1" fill="#7fa8c9"/>
  <rect x="7" y="7" width="2" height="1" fill="#cfe9ff"/>
  <rect x="6" y="8" width="1" height="1" fill="#7fa8c9"/>
  <rect x="7" y="8" width="2" height="1" fill="#cfe9ff"/>
  <rect x="4" y="9" width="8" height="1" fill="#f6c177"/>
  <rect x="7" y="10" width="2" height="1" fill="#f6c177"/>
  <rect x="6" y="11" width="1" height="1" fill="#71f6bd"/>
  <rect x="7" y="11" width="3" height="1" fill="#f6c177"/>
  <rect x="7" y="12" width="2" height="1" fill="#f6c177"/>
  <rect x="7" y="13" width="2" height="1" fill="#f6c177"/>
  <rect x="6" y="14" width="4" height="1" fill="#71f6bd"/>
</svg>
