<?xml version="1.0" encoding="UTF-8"?>
<!-- uribo — kofun-friends pixel art -->
<svg xmlns="http://www.w3.org/2000/svg" viewBox="0 0 16 16" width="128" height="128" shape-rendering="crispEdges" role="img" aria-label="uribo">
  <rect x="4" y="2" width="2" height="1" fill="#241a24"/>
  <rect x="7" y="2" width="2" height="1" fill="#241a24"/>
  <rect x="3" y="3" width="1" height="1" fill="#241a24"/>
  <rect x="4" y="3" width="2" height="1" fill="#e1b36b"/>
  <rect x="6" y="3" width="1" height="1" fill="#241a24"/>
  <rect x="7" y="3" width="2" height="1" fill="#e1b36b"/>
  <rect x="9" y="3" width="2" height="1" fill="#241a24"/>
  <rect x="2" y="4" width="1" height="1" fill="#241a24"/>
  <rect x="3" y="4" width="3" height="1" fill="#8e5f3c"/>
  <rect x="6" y="4" width="1" height="1" fill="#e1b36b"/>
  <rect x="7" y="4" width="3" height="1" fill="#8e5f3c"/>
  <rect x="10" y="4" width="2" height="1" fill="#241a24"/>
  <rect x="1" y="5" width="1" height="1" fill="#241a24"/>
  <rect x="2" y="5" width="3" height="1" fill="#8e5f3c"/>
  <rect x="5" y="5" width="1" height="1" fill="#e1b36b"/>
  <rect x="6" y="5" width="5" height="1" fill="#8e5f3c"/>
  <rect x="11" y="5" width="2" height="1" fill="#241a24"/>
  <rect x="0" y="6" width="1" height="1" fill="#241a24"/>
  <rect x="1" y="6" width="3" height="1" fill="#8e5f3c"/>
  <rect x="4" y="6" width="1" height="1" fill="#e1b36b"/>
  <rect x="5" y="6" width="4" height="1" fill="#8e5f3c"/>
  <rect x="9" y="6" width="1" height="1" fill="#08070d"/>
  <rect x="10" y="6" width="1" height="1" fill="#8e5f3c"/>
  <rect x="11" y="6" width="2" height="1" fill="#f28b93"/>
  <rect x="13" y="6" width="1" height="1" fill="#241a24"/>
  <rect x="0" y="7" width="1" height="1" fill="#241a24"/>
  <rect x="1" y="7" width="3" height="1" fill="#8e5f3c"/>
  <rect x="4" y="7" width="1" height="1" fill="#e1b36b"/>
  <rect x="5" y="7" width="6" height="1" fill="#8e5f3c"/>
  <rect x="11" y="7" width="2" height="1" fill="#f28b93"/>
  <rect x="13" y="7" width="1" height="1" fill="#241a24"/>
  <rect x="1" y="8" width="1" height="1" fill="#241a24"/>
  <rect x="2" y="8" width="4" height="1" fill="#8e5f3c"/>
  <rect x="6" y="8" width="1" height="1" fill="#e1b36b"/>
  <rect x="7" y="8" width="4" height="1" fill="#8e5f3c"/>
  <rect x="11" y="8" width="2" height="1" fill="#241a24"/>
  <rect x="2" y="9" width="10" height="1" fill="#241a24"/>
  <rect x="3" y="10" width="1" height="1" fill="#241a24"/>
  <rect x="5" y="10" width="1" height="1" fill="#241a24"/>
  <rect x="9" y="10" width="1" height="1" fill="#241a24"/>
  <rect x="11" y="10" width="1" height="1" fill="#241a24"/>
  <rect x="3" y="11" width="1" height="1" fill="#241a24"/>
  <rect x="5" y="11" width="1" height="1" fill="#241a24"/>
  <rect x="9" y="11" width="1" height="1" fill="#241a24"/>
  <rect x="11" y="11" width="1" height="1" fill="#241a24"/>
</svg>
