<?xml version="1.0" encoding="UTF-8"?>
<!-- hand / pointing cursor (hotspot near fingertip ~12,2) — kofun-friends -->
<svg xmlns="http://www.w3.org/2000/svg" viewBox="0 0 32 32" width="32" height="32" role="img" aria-label="hand cursor">
  <path d="M12 3
           q0 -2 2 -2 q2 0 2 2 l0 9
           l1 -3 q1 -2 3 -1 q1 1 1 2
           q2 -1 3 1 q1 1 1 2
           q2 0 2 3 l0 6
           q0 6 -6 6 l-6 0 q-4 0 -6 -5 l-3 -7
           q-1 -3 2 -4 q2 0 3 2 l1 2 Z"
        fill="#ffffff" stroke="#33691e" stroke-width="1.6" stroke-linejoin="round"/>
</svg>
